<svg width="22" height="24" fill="none" xmlns="http://www.w3.org/2000/svg"><path d="M2.918 10.295a.818.818 0 01-1.17 0 .845.845 0 010-1.184L8.985 1.8C10.617.532 12.258-.076 13.893.006c2.059.106 3.662.89 5.023 2.178 1.387 1.313 2.285 3.186 2.285 5.457 0 1.742-.507 3.276-1.576 4.637L9.422 22.79c-1.032.846-2.18 1.255-3.408 1.206-1.56-.065-2.72-.57-3.584-1.422C1.42 21.577.8 20.352.8 18.705c0-1.31.453-2.52 1.387-3.656l8.98-9.169c.72-.768 1.425-1.224 2.145-1.334a2.983 2.983 0 012.64.906c.638.675.912 1.518.816 2.477-.066.654-.334 1.256-.826 1.833L7.686 18.22a.818.818 0 01-1.168.007.845.845 0 01-.008-1.184l8.217-8.415c.24-.282.366-.566.396-.869.048-.48-.067-.834-.366-1.15a1.341 1.341 0 00-1.2-.407c-.292.044-.7.31-1.203.845l-8.943 9.128c-.645.786-.957 1.62-.957 2.53 0 1.146.414 1.965 1.13 2.672.57.564 1.345.9 2.497.948.816.032 1.572-.238 2.23-.77l10.076-10.38c.774-.993 1.16-2.16 1.16-3.532 0-1.778-.692-3.22-1.761-4.234-1.092-1.034-2.34-1.644-3.976-1.728-1.21-.062-2.478.408-3.74 1.376l-7.152 7.24v-.002z" fill="#fff"/></svg>