<svg width="144" height="24" fill="none" xmlns="http://www.w3.org/2000/svg"><g clip-path="url(#clip0_1152_1656)"><path d="M0 23.645l5.796-8.563-5.404-8.02h4.256l2.566 4.07c.17.259.317.532.439.816.13.3.236.542.317.722.08-.18.19-.422.332-.723.14-.301.28-.572.422-.814l2.597-4.07h4.256l-5.403 8.019 5.766 8.563h-4.287l-2.869-4.553a8.146 8.146 0 01-.452-.844 12.271 12.271 0 00-.362-.724 46.71 46.71 0 01-.333.724c-.134.29-.285.572-.452.844l-2.929 4.553H0zm64.297-12.579v12.578h-3.321V11.218a2.023 2.023 0 00-.364-1.28 1.248 1.248 0 00-1.056-.47 1.295 1.295 0 00-1.043.452 1.982 1.982 0 00-.378 1.298v12.426H55.42V11.218a2.044 2.044 0 00-.36-1.298 1.279 1.279 0 00-1.057-.452 1.235 1.235 0 00-1.042.452 2.09 2.09 0 00-.35 1.298v12.426h-3.32V7.062h3.08v2.286h.155c.06-.628.322-1.22.75-1.686a2.638 2.638 0 012.023-.847 2.36 2.36 0 012.067 1.087c.292.438.494.93.594 1.446h.152c.059-.63.323-1.222.752-1.686a2.693 2.693 0 012.08-.847 2.948 2.948 0 012.446 1.147c.604.762.908 1.799.908 3.104zm9.769 12.904a7.926 7.926 0 01-3.668-.799 5.822 5.822 0 01-2.416-2.261 6.687 6.687 0 01-.86-3.453v-4.1a6.693 6.693 0 01.86-3.453 5.838 5.838 0 012.416-2.262 8.856 8.856 0 017.351 0 5.86 5.86 0 012.4 2.262 6.627 6.627 0 01.86 3.423v4.13a6.686 6.686 0 01-.86 3.453 5.843 5.843 0 01-2.4 2.261 7.907 7.907 0 01-3.683.799zm0-3.287a3.167 3.167 0 002.34-.828c.553-.553.83-1.353.83-2.398v-4.1c0-1.066-.277-1.87-.83-2.413a3.75 3.75 0 00-4.666 0c-.562.543-.844 1.347-.845 2.412v4.101c0 1.046.282 1.845.845 2.398a3.18 3.18 0 002.326.828zM96.005 8.531a5.069 5.069 0 00-4.013-1.718c-1.371 0-2.458.387-3.261 1.16a3.904 3.904 0 00-1.145 2.308h-.095l.12-3.952V0h-3.773v23.642h3.685v-3.108h.063a3.884 3.884 0 001.145 2.304c.805.776 1.892 1.163 3.26 1.16a5.076 5.076 0 004.014-1.718c1.007-1.146 1.51-2.684 1.508-4.611v-4.495c0-1.947-.502-3.495-1.508-4.643zm-2.265 8.954c0 1.048-.27 1.853-.812 2.414a2.998 2.998 0 01-2.265.846 2.945 2.945 0 01-2.236-.86 3.363 3.363 0 01-.816-2.4v-4.16a3.348 3.348 0 01.816-2.395 2.928 2.928 0 012.236-.86 3.013 3.013 0 012.265.842c.54.565.811 1.37.812 2.414v4.16zm6.248 6.16v-3.382h5.042v-9.739h-5.042V7.063h8.665v13.2h5.045v3.382h-13.71zm23.075-.001a5.883 5.883 0 01-2.853-.664 4.79 4.79 0 01-1.917-1.885 5.588 5.588 0 01-.694-2.819V3.407h-5.314V0h9.088v18.276a1.825 1.825 0 001.961 1.96h5.013v3.408h-5.284zm20.936-7.332v-2.984a6.614 6.614 0 00-.862-3.423 5.928 5.928 0 00-2.413-2.275 7.74 7.74 0 00-3.639-.815 7.902 7.902 0 00-3.685.815 5.933 5.933 0 00-2.43 2.275 6.634 6.634 0 00-.859 3.423v4.16a6.634 6.634 0 00.859 3.422 5.92 5.92 0 002.43 2.279 7.904 7.904 0 003.685.811c1.6.05 3.177-.398 4.511-1.28a5.267 5.267 0 002.283-3.423h-3.713a1.958 1.958 0 01-.997 1.281 4.2 4.2 0 01-2.056.437c-1.105 0-1.94-.296-2.504-.889-.566-.592-.845-1.47-.845-2.639v-1.175h10.235zm-10.235-2.984c0-1.147.279-2.03.845-2.653.565-.622 1.388-.936 2.476-.936s1.901.307 2.445.921c.544.614.816 1.493.816 2.636v.607l-6.582.06v-.635z" fill="#fff"/><path d="M24.814 8.14a7.61 7.61 0 012.817.54c.942.378 1.84.856 2.68 1.425a24.842 24.842 0 012.59 2.007 90.272 90.272 0 012.5 2.289c.453.43.998.934 1.634 1.51a33.523 33.523 0 001.954 1.64c.615.484 1.269.917 1.954 1.295a3.569 3.569 0 001.636.519V7.063h3.18V23.25a2.622 2.622 0 01-.477.042h-.477a10.125 10.125 0 01-3.544-.604 15.267 15.267 0 01-3.089-1.555 21.189 21.189 0 01-2.749-2.136c-.863-.79-1.704-1.574-2.521-2.351a183.426 183.426 0 00-1.954-1.836c-.6-.56-1.238-1.08-1.908-1.554a9.873 9.873 0 00-1.976-1.079 5.621 5.621 0 00-2.113-.41 5.34 5.34 0 00-2.089.366 4.04 4.04 0 00-1.43.995c-.38.417-.667.91-.842 1.445a5.59 5.59 0 00-.273 1.77 6.32 6.32 0 00.317 2.05c.193.575.453 1.126.773 1.64.27.428.565.84.886 1.23.22.272.456.531.704.778l-2.634 1.77a9.297 9.297 0 01-1-1.037 9.533 9.533 0 01-1.113-1.662 11.704 11.704 0 01-.886-2.18A8.943 8.943 0 0117 16.345c0-2.792.674-4.857 2.023-6.195 1.347-1.34 3.277-2.01 5.791-2.01z" fill="#C477D5"/><path d="M106.471 4.342c1.2 0 2.174-.972 2.174-2.171A2.173 2.173 0 00106.471 0a2.172 2.172 0 00-2.174 2.171c0 1.199.973 2.171 2.174 2.171z" fill="#fff"/></g><defs><clipPath id="clip0_1152_1656"><path fill="#fff" d="M0 0h144v24H0z"/></clipPath></defs></svg>