<svg width="100" height="100" fill="none" xmlns="http://www.w3.org/2000/svg"><g clip-path="url(#clip0_678_7128)"><path d="M26.093 0H74.13c14.41 0 26.093 11.683 26.093 26.093V74.13c0 14.41-11.682 26.093-26.093 26.093H26.093C11.683 100.222 0 88.54 0 74.129V26.093C0 11.683 11.683 0 26.093 0z" fill="url(#paint0_linear_678_7128)"/><path d="M72.617 13.344c1.335.83 2.61 1.72 3.855 2.668h7.74v7.74a49.456 49.456 0 012.668 3.854V13.344H72.617zm-20.104 0h-2.401c-20.312 0-36.768 16.456-36.768 36.768 0 20.311 16.456 36.768 36.768 36.768 20.311 0 36.768-16.457 36.768-36.768V47.71c-1.216-18.443-15.923-33.15-34.366-34.366zm-2.401 68.198c-17.346 0-31.431-14.084-31.431-31.43S32.766 18.68 50.111 18.68c17.347 0 31.431 14.085 31.431 31.43 0 17.347-14.084 31.431-31.43 31.431z" fill="#fff"/></g><defs><linearGradient id="paint0_linear_678_7128" x1="50.111" y1="100.222" x2="50.111" y2="0" gradientUnits="userSpaceOnUse"><stop stop-color="#07243C"/><stop offset=".067" stop-color="#07243D"/><stop offset=".133" stop-color="#07253E"/><stop offset=".2" stop-color="#082742"/><stop offset=".267" stop-color="#082A46"/><stop offset=".333" stop-color="#092D4C"/><stop offset=".4" stop-color="#0A3153"/><stop offset=".467" stop-color="#0B365B"/><stop offset=".533" stop-color="#0B3A62"/><stop offset=".6" stop-color="#0C3F6A"/><stop offset=".667" stop-color="#0D4371"/><stop offset=".733" stop-color="#0E4677"/><stop offset=".8" stop-color="#0E497B"/><stop offset=".867" stop-color="#0F4B7F"/><stop offset=".933" stop-color="#0F4C80"/><stop offset="1" stop-color="#0F4C81"/></linearGradient><clipPath id="clip0_678_7128"><path fill="#fff" d="M0 0h100v100H0z"/></clipPath></defs></svg>