<svg width="243" height="56" fill="none" xmlns="http://www.w3.org/2000/svg"><path d="M22.178 10.704v20.77a5.346 5.346 0 01-3.294 4.934 5.327 5.327 0 01-2.041.406h-.164c-.24.02-.485.03-.734.03-.274 0-.542 0-.796-.037a5.33 5.33 0 01-3.598-1.652 5.343 5.343 0 01-1.47-3.68v-20.77H0v22.132c0 8.146 4.327 13.07 11.936 13.07 4.985 0 7.946-2.696 10.242-5.646v5.645h10.08V10.704h-10.08zm16.131 0h10.08v5.047c2.427-3.348 5.706-5.047 10.953-5.047 8.198 0 16.003 5.781 16.003 17.536v.133c0 11.752-7.674 17.533-16.003 17.533-5.312 0-8.591-1.766-10.953-4.598V56H38.31V10.704zm28.445 17.447v-.141c0-6.27-4.219-10.424-9.216-10.424-4.998 0-9.149 4.15-9.149 10.424v.144c0 6.27 4.151 10.432 9.149 10.432 4.997 0 9.216-4.093 9.216-10.435zm14.648-17.447h3.025v10.049c2.689-6.041 8.132-10.245 14.82-10.049v3.029h-.327c-7.689 0-14.493 6.432-14.493 17.265v14.908h-3.025V10.705zm48.991 18.85c.054-.437.075-.877.063-1.317 0-8.781-4.683-15.764-12.271-17.24a15.797 15.797 0 00-2.855-.29h-.431c-8.947.118-15.66 7.89-15.66 17.467v.134c0 8.55 5.04 14.572 11.65 16.813 1.529.52 3.132.785 4.746.785 6.363 0 10.428-2.624 13.838-6.308l-2.228-1.969c-2.82 2.963-6.232 5.27-11.479 5.27a11.34 11.34 0 01-4.055-.758c-4.789-1.824-8.65-6.013-9.073-12.572l27.755-.015zm-18.889-15.352a11.305 11.305 0 013.475-.54c7.672 0 11.477 6.24 12.004 13.003h-24.335c.429-6.061 3.957-10.896 8.856-12.463zm24.937-3.498h3.025v7.028c2.296-3.942 5.967-7.028 12.066-7.028 8.463 0 13.194 5.718 13.194 13.79v21.412h-3.025V25.09c0-6.899-3.805-11.428-10.627-11.428-6.553 0-11.608 4.925-11.608 11.95v20.294h-3.025V10.704zM171.97 0h3.024v10.704h11.752v3.028h-11.752v22.65c0 4.795 2.886 6.504 6.82 6.504 1.643 0 3.024-.33 4.922-1.181v3.015a12.435 12.435 0 01-5.446 1.186c-5.245 0-9.325-2.828-9.325-9.195L171.97 0zm43.801 16.087a10.855 10.855 0 00-1.383-1.703c-2.049-2.052-4.894-3.263-8.498-3.588a21.922 21.922 0 00-1.553-.086h-1.043c-4.393.083-7.8 1.18-11.328 2.886l1.179 2.824a26.842 26.842 0 013.632-1.56 20.87 20.87 0 016.852-1.135c.684-.003 1.367.035 2.047.114 5.647.63 8.966 4.012 8.966 10.131v1.843a39.396 39.396 0 00-8.606-1.383c-.779-.04-1.6-.06-2.477-.06-8.657 0-14.618 3.875-14.618 10.9v.129c0 5.105 3.529 8.327 7.848 9.723a16.69 16.69 0 005.076.785c6.358 0 10.494-3.213 12.787-6.37v6.37h3.025V23.844c-.003-3.099-.545-5.675-1.906-7.757zm-1.053 16.488c0 6.107-5.837 10.311-12.659 10.311-2.974 0-5.771-.954-7.591-2.708a6.734 6.734 0 01-2.114-4.97v-.132a6.74 6.74 0 012.49-5.398c1.862-1.539 4.753-2.425 8.533-2.425a44.32 44.32 0 0111.341 1.514v3.808zM223.848.61h3.024v45.296h-3.024V.611zm14.11 45.296a5.044 5.044 0 005.041-5.047 5.044 5.044 0 00-5.041-5.047 5.044 5.044 0 00-5.04 5.047 5.044 5.044 0 005.04 5.047z" fill="#0B193D"/></svg>