<svg width="1720" height="327" fill="none" xmlns="http://www.w3.org/2000/svg"><path d="M161.836 327c56.291 0 99.828-22.035 131.491-48.918V144.109h-133.69v58.613h68.164v44.07c-17.151 12.34-38.699 18.51-63.766 18.51-54.532 0-93.232-41.426-93.232-97.836v-.881c0-52.443 39.14-96.073 88.394-96.073 35.182 0 57.17 11.458 80.478 31.29l42.658-51.562C250.67 22.916 216.367 7.933 161.396 7.933 68.165 7.933 0 79.767 0 167.466v.882C0 260.013 65.966 327 161.836 327zm305.28 0c73.442 0 127.973-55.088 127.973-122.956v-.881c0-68.309-54.531-122.074-127.093-122.074-73.442 0-127.974 55.088-127.974 122.955v.882c0 68.308 54.532 122.074 127.094 122.074zm.88-57.732c-36.941 0-62.008-30.408-62.008-65.224v-.881c0-35.256 22.868-64.342 61.128-64.342 36.941 0 62.008 30.408 62.008 65.223v.882c0 35.256-22.868 64.342-61.128 64.342zm255.094 56.41c22.429 0 38.7-5.289 52.773-13.662v-53.765c-10.115 5.729-21.109 8.373-32.983 8.373-14.512 0-21.549-7.492-21.549-22.916V142.787h55.411V85.496h-55.411V25.12h-66.845v60.376h-28.145v57.291h28.145v111.938c0 54.647 28.145 70.953 68.604 70.953zm102.924-3.966h66.845v-131.77c0-31.73 15.832-48.036 41.779-48.036 25.946 0 40.458 16.306 40.458 48.036v131.77h66.844V168.788c0-54.646-29.02-87.699-80.037-87.699-33.422 0-53.652 18.069-69.044 37.9V0h-66.845v321.712zm340.846 4.407c32.98 0 54.97-11.899 71.24-29.968v25.561h64.65V184.654c0-31.731-7.92-57.732-25.51-75.36-17.15-17.188-42.66-26.442-79.6-26.442-40.02 0-65.52 7.932-91.47 18.95l16.71 51.121c21.55-8.373 39.14-12.78 65.09-12.78 33.42 0 50.57 14.984 50.57 43.189v3.966c-17.15-5.729-33.42-9.696-57.61-9.696-55.85 0-94.99 24.239-94.99 75.36v.882c0 47.155 36.5 72.275 80.92 72.275zm20.23-46.274c-21.55 0-36.5-10.577-36.5-28.646v-.881c0-21.154 17.59-32.612 46.17-32.612 16.27 0 30.79 3.526 42.66 8.814v11.899c0 24.679-20.67 41.426-52.33 41.426zm173.18 41.867h66.84v-131.77c0-31.73 15.39-48.036 40.46-48.036s39.14 16.306 39.14 48.036v131.77h66.85v-131.77c0-31.73 15.39-48.036 40.46-48.036 25.06 0 39.13 16.306 39.13 48.036v131.77H1720V167.907c0-56.85-29.9-86.818-79.6-86.818-32.1 0-56.73 12.78-77.4 37.46-12.31-24.239-35.18-37.46-66.4-37.46-33.87 0-54.1 18.069-69.49 37.9V85.496h-66.84v236.216z" fill="#0B193D"/></svg>