<svg width="1270" height="542" fill="none" xmlns="http://www.w3.org/2000/svg"><path d="M64.613 49.337h-6.75l-3.404-2.84-3.404-2.839-3.347-2.84-3.375-2.839-3.375-2.84-3.376-2.839h-9.615l-1.985-2.84h3.914v-2.84H18.55v2.84h3.971l1.985 2.84H14.182v8.519h9.048l-5.956 8.518h-3.347l-1.986 2.84-1.985 2.84-1.986 2.839-5.985 8.519L0 69.215h54.204l1.985-2.84 9.9-14.198 1.985-2.84h-3.46zm-17.897-5.679H35.937v-2.84h7.403l3.376 2.84zM17.018 37.98v-2.84h19.543l3.376 2.84H17.018zm9.673 2.84h6.41v5.679h17.018l3.376 2.84h-32.76l5.956-8.52zM15.345 52.177h20.082v2.84h-22.01l1.928-2.84zm37.299 14.198H5.474l5.872-8.52h26.889v-5.678h24.308l-9.9 14.198zm190.245-11.106h24.862v-2.79H251.61l1.983-2.788 2.831-3.85 11.327-16.288v-4.936h2.832v25.046h2.831V25.398l-7.447-5.216-2.492-1.701 2.492-1.73 7.447-5.215 2.832-1.952v8.674L298.73 49.69l1.982 2.789h-24.466v2.789h31.149l-1.983 2.789-2.01 2.789-2.011 2.789-1.982 2.79-1.982 2.788h-48.139l-1.982-2.789-1.982-2.789-1.982-2.79-2.039-2.788-1.982-2.79h3.568zm24.862-20.835l-10.845 15.257h10.845V34.434zm.538-15.981l5.125 3.542v-7.057l-5.125 3.515zm26.986 31.238l-19.029-26.553v26.553h19.029zm-21.719 2.789h-2.832v2.789h2.69l.142-2.79zm-22.654 13.945h45.166l1.982-2.789h-49.186l2.038 2.79zm-3.964-5.578h52.981l2.039-2.79h-57.087l2.067 2.79zm296.302-9.791h-12.799l-5.701-5.642-2.851-2.82h-17.104v8.462h-2.851l-2.85-2.821h-13.569l-3.564 2.82-1.083.847-1.254 1.015-.969.762 1.795 2.2 9.949 12.27h44.242l1.996-2.82 4.105-5.811 1.995-2.821 1.996-2.82 1.995-2.822h-3.478zm-22.548-5.642l5.701 5.642h-13.084v-5.642h7.383zm-13.085 0h2.851v5.642h-2.851v-5.642zm25.656 19.915h-41.505l-4.562-5.811h50.058l-3.991 5.81zm5.986-8.632h-54.476l-2.109-2.595.285-.226 3.563-2.82h11.403l2.851 2.82h40.593l-2.11 2.821zm199.08-27.947l-1.164 2.996-1.196 2.996-1.164 2.995-1.163 2.996-1.196 2.995-1.164 2.996h-13.317l1.163 2.995 5.883 14.978 1.196 2.996h7.92V55.711h10.634l1.164 2.995 1.131 2.996h9.697l1.196-2.996 1.164-2.995h10.57v11.982h8.016l1.196-2.996 5.98-14.978 1.164-2.995h-13.318l-1.163-2.996-1.196-2.995-1.164-2.996-1.164-2.995-1.196-2.996-1.163-2.995h-27.346zm28.606 11.983h-7.628v-2.996h6.465l1.163 2.996zm-19.006-2.996h8.145v2.996h-8.145v-2.996zm-7.338-5.99h22.821l1.164 2.995h-25.148l1.163-2.996zm-2.359 5.99h6.465v2.996h-7.629l1.164-2.996zm29.899 5.991l1.164 2.996h-34.586l1.163-2.996h32.259zm-39.661 20.97l-5.883-14.978h8.307v14.977h-2.424zm31.968-11.983h-3.458l-1.164 2.996-1.196 2.995h-5.237l-1.195-2.995-1.132-2.996h-12.929V49.72h35.556v2.996h-9.245zm15.095 11.982h-2.618V49.72h8.404l-5.786 14.978zm242.657-16.425h-8.67l-1.02-2.84-1.05-2.839-1.02-2.84-1.02-2.839-1.05-2.84-1.02-2.839h-10.645v-2.84h17.905l-1.99-2.839L992.752 2.84V0h-2.889v31.235h-10.48l-1.02 2.84-1.048 2.84-1.019 2.839-1.02 2.84-1.048 2.839-1.02 2.84h-11.669l1.02 2.839 5.155 14.198 1.048 2.84h6.939V56.79h9.318l1.02 2.84.991 2.84h8.497l1.048-2.84 1.02-2.84h9.265v11.36h7.02l1.05-2.84 5.15-14.197 1.02-2.84h-2.91zm-25.495-40.52l12.515 17.804h-12.515V7.752zm11.755 34.841h-6.685v-2.84h5.665l1.02 2.84zm-16.655-2.84h7.138v2.84h-7.138v-2.84zm-6.429-5.678h19.994l1.02 2.84h-22.034l1.02-2.84zm-2.068 5.679h5.665v2.84h-6.685l1.02-2.84zm26.202 5.679l1.02 2.84h-30.309l1.019-2.84h28.27zM970.744 65.31l-5.155-14.198h7.279V65.31h-2.124zm28.012-11.358h-3.03l-1.02 2.84-1.048 2.839h-4.588l-1.048-2.84-.992-2.84h-11.329v-2.839h31.159v2.84h-8.104zm13.224 11.358h-2.29V51.112h7.36l-5.07 14.198zm249.24-17.868h-12.46l-1.98-2.919h15.09l-1.98-2.918-21.74-31.786V5.324h-2.84v4.174l-16 23.35-1.99 2.92h17.91v2.918h-17.34l-1.99 2.919-4 5.837h-15.29l1.99 2.919 1.95 2.919 1.99 2.919 3.97 5.837 1.99 2.919h44.27l1.98-2.919 3.97-5.837 1.99-2.92 1.99-2.918 1.98-2.919h-3.46zm-38.36-14.594l12.45-18.271v18.271h-12.45zm15.29-17.95l18.19 26.707h-11.49l-1.99-2.92h-4.71V14.899zm3.15 26.707l3.97 5.837h-13.22v-5.837h9.25zm-21.99 0h9.85v5.837h-13.77l3.92-5.837zm31.92 20.431h-41.26L1206 56.2h49.26l-4.03 5.837zm5.96-8.756h-53.17l-1.99-2.919h57.2l-2.04 2.919z" fill="#0B193D"/><g clip-path="url(#clip0_609_4412)" fill="#0B193D"><path d="M52.475 196.994h-4.254v-2.84h1.078a4.619 4.619 0 003.24-1.355 4.631 4.631 0 001.355-3.245v-14.197a4.258 4.258 0 002.54-4.654 4.26 4.26 0 00-3.959-3.524H15.602a4.257 4.257 0 00-3.646 6.398 4.257 4.257 0 002.228 1.865v14.198a4.629 4.629 0 004.595 4.514h1.078v2.84h-4.255a4.26 4.26 0 00-4.255 4.259v4.26h2.837v.312a7.228 7.228 0 000 1.107 19.896 19.896 0 003.078 10.618 19.863 19.863 0 008.268 7.328v10.45h17.018v-10.45a19.863 19.863 0 008.268-7.328 19.895 19.895 0 003.078-10.618 7.228 7.228 0 000-1.107v-.312h2.836v-4.26a4.26 4.26 0 00-4.255-4.259zm-38.29-25.386a.367.367 0 010-.17 2.181 2.181 0 010-.426 1.422 1.422 0 011.417-.994h36.873a1.416 1.416 0 011.362.994c.014.142.014.284 0 .426a.367.367 0 010 .17 1.365 1.365 0 01-1.362 1.25H15.602a1.36 1.36 0 01-1.418-1.25zm4.254 19.707a1.419 1.419 0 01-1.419-1.42v-14.198h34.037v14.198a1.42 1.42 0 01-1.418 1.42h-31.2zm4.254 2.839h22.692v2.84H22.693v-2.84zm17.019 38.334H28.366v-6.502a19.83 19.83 0 0011.346 0v6.502zm11.345-26.663c.029.369.029.739 0 1.107a17.05 17.05 0 01-8.509 14.738 17.007 17.007 0 01-23.243-6.229 17.049 17.049 0 01-2.285-8.509 7.228 7.228 0 010-1.107v-.312h34.037v.312zm2.837-3.152h-39.71v-1.42a1.418 1.418 0 011.418-1.419h36.873a1.418 1.418 0 011.419 1.419v1.42z"/><path d="M32.39 181.15h-4.368a4.255 4.255 0 00-4.763-2.529 4.254 4.254 0 00-3.415 4.175 4.263 4.263 0 003.415 4.176 4.25 4.25 0 004.763-2.529h4.368a1.643 1.643 0 001.645-1.647 1.648 1.648 0 00-1.645-1.646zm-8.282 3.066a1.417 1.417 0 01-1.391-1.697 1.417 1.417 0 012.809.277 1.42 1.42 0 01-1.418 1.42z"/></g><g clip-path="url(#clip1_609_4412)"><path d="M302.543 201.253c0-3.577-2.546-6.569-5.919-7.258v-12.151c3.373-.689 5.919-3.68 5.919-7.258 0-4.084-3.319-7.407-7.399-7.407h-41.436c-4.08 0-7.399 3.323-7.399 7.407 0 3.577 2.546 6.569 5.919 7.258v12.151c-3.373.689-5.919 3.681-5.919 7.258 0 3.578 2.546 6.569 5.919 7.258v12.152c-3.373.689-5.919 3.681-5.919 7.258 0 4.084 3.319 7.407 7.399 7.407h41.436c4.08 0 7.399-3.323 7.399-7.407 0-3.577-2.546-6.569-5.919-7.258v-12.152c3.373-.689 5.919-3.68 5.919-7.258zm-16.031 7.408h7.152v11.852h-19.238a1.48 1.48 0 00-1.48 1.481c0 .82.662 1.482 1.48 1.482h20.718a4.448 4.448 0 014.44 4.445 4.447 4.447 0 01-4.44 4.444h-41.436a4.447 4.447 0 01-4.44-4.444 4.448 4.448 0 014.44-4.445h8.879a1.48 1.48 0 001.48-1.482 1.48 1.48 0 00-1.48-1.481h-7.399v-11.852h19.238a1.48 1.48 0 001.48-1.482 1.48 1.48 0 00-1.48-1.481h-20.718a4.448 4.448 0 01-4.44-4.445 4.447 4.447 0 014.44-4.444h8.879a1.48 1.48 0 001.48-1.482 1.48 1.48 0 00-1.48-1.481h-7.399v-11.852h19.238a1.48 1.48 0 001.48-1.482 1.48 1.48 0 00-1.48-1.481h-20.718a4.448 4.448 0 01-4.44-4.445 4.447 4.447 0 014.44-4.444h41.436a4.447 4.447 0 014.44 4.444 4.448 4.448 0 01-4.44 4.445h-8.879a1.48 1.48 0 00-1.48 1.481c0 .82.662 1.482 1.48 1.482h7.399v11.852h-19.238a1.48 1.48 0 00-1.48 1.481c0 .82.662 1.482 1.48 1.482h20.718a4.447 4.447 0 014.44 4.444 4.448 4.448 0 01-4.44 4.445h-8.632a1.48 1.48 0 00-1.48 1.481c0 .82.662 1.482 1.48 1.482z" fill="#0B193D"/></g><g clip-path="url(#clip2_609_4412)" fill="#0B193D"><path d="M504.54 167.179h-4.028l-2.836 2.839-10.523 10.535-2.837 2.84v51.935h56.728v-68.149H504.54zm33.668 65.309h-51.055v-47.903l14.551-14.567h36.504v62.47zm-45.81-65.254l-8.027 8.036v4.032l12.055-12.068h-4.028z"/><path d="M531.23 172.858h-22.691v3.379h22.691v-3.379zm-.001 17.522l-2.014-2.016-7.204 7.212h-18.664l-7.204-7.212-2.014 2.016 7.204 7.212v18.684l-7.204 7.213 2.014 2.016 7.204-7.213h18.664l7.204 7.213 2.014-2.016-7.204-7.213v-18.684l7.204-7.212zm-27.059 8.036h17.018v17.037H504.17v-17.037z"/></g><g clip-path="url(#clip3_609_4412)" fill="#0B193D"><path d="M753.423 192.621v-2.953l8.226 8.235 2.014-2.016-11.658-11.671-11.657 11.671 2.014 2.016 8.225-8.235v23.739l-8.225-8.235-2.014 2.016 11.657 11.671 11.658-11.671-2.014-2.016-8.226 8.235v-20.786z"/><path d="M780.366 177.457a16.494 16.494 0 00-7.205-1.76h-2.694c-2.09.192-4.123.79-5.985 1.76a11.503 11.503 0 01-5.673 1.335 11.506 11.506 0 01-5.673-1.335 16.993 16.993 0 00-7.942-1.76 16.998 16.998 0 00-7.942 1.76 11.33 11.33 0 01-4.169 1.25c-.501.031-1.003.031-1.503 0a7.784 7.784 0 01-1.163 0 10.982 10.982 0 01-4.51-1.25 16.996 16.996 0 00-7.942-1.76v2.555a11.516 11.516 0 015.673 1.335 16.396 16.396 0 006.438 1.789 106.144 106.144 0 00-.766 12.125c0 17.037 19.203 34.074 22.692 34.074 4.339 0 22.691-17.037 22.691-34.074a107.596 107.596 0 00-1.163-15.192c1.595.099 3.151.535 4.567 1.278a16.84 16.84 0 007.942 1.789v-2.584a11.503 11.503 0 01-5.673-1.335zm-28.364 47.251c-3.064 0-20.082-16.441-20.082-31.236.03-4.045.305-8.084.823-12.096a16.347 16.347 0 006.779-1.789 11.51 11.51 0 015.672-1.335 11.514 11.514 0 015.673 1.335 16.845 16.845 0 007.942 1.789 16.84 16.84 0 007.942-1.789 11.33 11.33 0 014.113-1.249 103.384 103.384 0 011.219 15.248c0 13.687-16.224 31.122-20.081 31.122z"/></g><g clip-path="url(#clip4_609_4412)" fill="#0B193D"><path d="M991.324 167.179c-4.34 0-22.691 17.037-22.691 34.074a135.444 135.444 0 005.105 34.075h35.172a135.957 135.957 0 005.11-34.075c0-17.037-19.207-34.074-22.696-34.074zm15.576 65.111h-31.205a127.436 127.436 0 01-4.453-31.037c0-13.771 16.225-31.235 20.082-31.235 3.063 0 20.086 16.441 20.086 31.235a128.212 128.212 0 01-4.51 31.037z"/><path d="M992.744 186.97v-2.953l8.226 8.235 2.01-2.016-11.654-11.671-11.658 11.671 2.014 2.016 8.225-8.235v37.141l-8.225-8.234-2.014 2.016 11.658 11.67 11.654-11.67-2.01-2.016-8.226 8.234V186.97z"/></g><path d="M1258.26 196.128c0 13.687-22.32 31.236-27.63 31.236-4.22 0-27.62-16.527-27.62-31.236h-3.58c0 17.038 26.41 34.075 31.2 34.075 5.96 0 31.2-17.037 31.2-34.075h-3.57z" fill="#0B193D"/><path d="M1253.44 185.959h2.95l-8.23 8.234 2.02 2.016 11.65-11.67-11.65-11.671-2.02 2.016 8.23 8.235h-51.51l8.23-8.235-2.02-2.016-11.66 11.671 11.66 11.67 2.02-2.016-8.23-8.234h48.56zM36.707 352.63a7.324 7.324 0 00-2.666-.88h-2.297c-.9.094-1.776.354-2.581.766a8.514 8.514 0 00-3.923 4 8.528 8.528 0 002.407 10.31 8.5 8.5 0 0010.576 0 8.528 8.528 0 002.407-10.31 8.514 8.514 0 00-3.923-4v.114zm-3.772 13.317a5.68 5.68 0 01-3.29-10.307 5.666 5.666 0 012.354-1.051h1.872a5.655 5.655 0 012.354.966 5.675 5.675 0 012.246 6.43 5.668 5.668 0 01-5.536 3.962z" fill="#0B193D"/><path d="M32.935 326.194c-2.354 0-4.255 8.064-4.255 18.002a69.43 69.43 0 00.483 8.519c0 1.079.312 2.101.482 3.01a5.67 5.67 0 012.354-1.136c0-.814-.085-1.76-.255-2.839 0-2.187-.227-4.799-.227-7.639 0-7.581.624-13.715 1.418-13.715.794 0 1.418 6.134 1.418 13.715 0 2.84 0 5.452-.227 7.639h-.085c0 1.06-.085 2.006-.255 2.839a5.655 5.655 0 012.354.966c.17-.909.34-1.931.483-3.01a69.45 69.45 0 00.482-8.519c.085-9.768-1.816-17.832-4.17-17.832zm24.082 58.183c1.645-1.675-2.836-8.717-9.729-15.76a67.906 67.906 0 00-6.297-5.679c-.85-.653-1.702-1.249-2.467-1.789a5.678 5.678 0 01-.965 2.357l2.156 1.818c1.645 1.448 3.545 3.237 5.673 5.253 5.332 5.366 9.246 10.137 8.68 10.705-.568.568-5.333-3.351-10.694-8.689-2.014-2.016-3.8-3.919-5.248-5.679l-1.815-2.158a5.666 5.666 0 01-2.354.965c.539.767 1.135 1.619 1.787 2.471a72.22 72.22 0 005.673 6.303c6.807 7.184 13.926 11.529 15.6 9.882zm-48.135-.001c1.645 1.647 8.68-2.697 15.714-9.739a67.784 67.784 0 005.673-6.304c.652-.852 1.248-1.704 1.787-2.471a5.827 5.827 0 01-2.355-.965l-1.815 2.158c-1.447 1.647-3.233 3.549-5.247 5.679-5.361 5.339-10.126 9.257-10.694 8.689-.567-.568 3.347-5.338 8.68-10.705 2.014-2.016 3.914-3.805 5.673-5.253l2.07-1.903a5.68 5.68 0 01-.964-2.356c-.766.539-1.617 1.135-2.468 1.788a67.787 67.787 0 00-6.297 5.68c-7.09 6.985-11.43 14.027-9.757 15.702z" fill="#0B193D"/><g clip-path="url(#clip5_609_4412)" fill="#0B193D"><path d="M298.148 362.342v3.606a.937.937 0 001.872 0v-3.606a.936.936 0 10-1.872 0zm-6.378 0v3.606a.936.936 0 101.872 0v-3.606a.937.937 0 00-1.872 0zm-6.383 0v3.606a.936.936 0 101.872 0v-3.606a.94.94 0 00-1.598-.663.936.936 0 00-.274.663zm-5.447-.937a.94.94 0 00-.936.937v3.606a.94.94 0 001.598.663.94.94 0 00.274-.663v-3.606a.94.94 0 00-.936-.937zm-6.383 0a.94.94 0 00-.936.937v3.606a.94.94 0 001.598.663.936.936 0 00.274-.663v-3.606a.936.936 0 00-.936-.937zm24.591 11.813v3.663a.936.936 0 001.872 0v-3.663a.936.936 0 10-1.872 0zm-6.378 0v3.663a.935.935 0 101.872 0v-3.663a.937.937 0 00-1.872 0zm-6.383 0v3.663a.935.935 0 101.872 0v-3.663a.935.935 0 10-1.872 0zm-5.447-.937a.935.935 0 00-.936.937v3.663a.94.94 0 00.936.937.936.936 0 00.936-.937v-3.663a.935.935 0 00-.936-.937zm-6.383 0a.935.935 0 00-.936.937v3.663a.94.94 0 00.936.937.936.936 0 00.936-.937v-3.663a.936.936 0 00-.936-.937zm24.591 11.784v3.663a.937.937 0 001.872 0v-3.663a.934.934 0 00-.936-.937.935.935 0 00-.936.937zm-6.378 0v3.663a.936.936 0 101.872 0v-3.663a.935.935 0 00-.936-.937.933.933 0 00-.936.937zm-6.383 0v3.663a.936.936 0 101.872 0v-3.663a.938.938 0 00-.936-.937.933.933 0 00-.936.937zm-6.356 0v3.663a.935.935 0 101.872 0v-3.663a.934.934 0 00-.936-.937.936.936 0 00-.936.937zm-6.41 0v3.663a.935.935 0 101.872 0v-3.663a.934.934 0 00-.936-.937.936.936 0 00-.936.937z"/><path d="M299.086 349.535h-1.418v-5.906a8.266 8.266 0 00-2.095-5.473 8.25 8.25 0 00-5.194-2.705v-6.418a8.521 8.521 0 00-2.493-6.023 8.503 8.503 0 00-6.017-2.495h-28.364a8.504 8.504 0 00-6.017 2.495 8.525 8.525 0 00-2.492 6.023v59.631h8.169v-58.552a1.418 1.418 0 011.418-1.419h26.237a1.418 1.418 0 011.418 1.419v5.339a8.248 8.248 0 00-5.176 2.713 8.265 8.265 0 00-2.085 5.465v5.906h-1.418a4.255 4.255 0 00-4.255 4.259v4.26h34.037v-4.26a4.255 4.255 0 00-4.255-4.259zm-18.266-23.682h-26.237a4.259 4.259 0 00-4.254 4.259v55.712h-2.497v-56.791a5.68 5.68 0 015.673-5.679h28.364c1.505 0 2.948.599 4.012 1.664a5.684 5.684 0 011.661 4.015v6.304h-2.468v-5.225a4.259 4.259 0 00-4.254-4.259zm-3.007 17.378c0-1.318.523-2.582 1.454-3.514a4.961 4.961 0 013.51-1.455h7.091c1.316 0 2.579.523 3.51 1.455a4.972 4.972 0 011.454 3.514v6.389h-17.019v-6.389zm22.692 12.068H272.14v-1.42a1.418 1.418 0 011.419-1.419h25.527a1.418 1.418 0 011.419 1.419v1.42z"/></g><g clip-path="url(#clip6_609_4412)" fill="#0B193D"><path d="M512.681 320.515a34.01 34.01 0 00-18.909 5.742 34.07 34.07 0 00-12.537 15.292 34.108 34.108 0 007.379 37.135 34.03 34.03 0 0017.427 9.325 34.002 34.002 0 0019.666-1.939 34.043 34.043 0 0015.275-12.55 34.099 34.099 0 005.736-18.931 34.093 34.093 0 00-9.969-24.094 34.017 34.017 0 00-24.068-9.98zm0 65.309a31.18 31.18 0 01-17.334-5.264 31.22 31.22 0 01-11.491-14.018 31.267 31.267 0 01-1.776-18.046 31.25 31.25 0 018.539-15.993 31.169 31.169 0 0134.002-6.771 31.21 31.21 0 0114.003 11.504 31.264 31.264 0 01-3.881 39.44 31.18 31.18 0 01-22.062 9.148z"/><path d="M512.682 326.194a28.34 28.34 0 00-14.215 3.813 28.384 28.384 0 00-10.392 10.43 28.418 28.418 0 0010.544 38.822 28.34 28.34 0 0028.424-.193 28.375 28.375 0 0010.315-10.506c.433-.743.821-1.511 1.163-2.3a28.069 28.069 0 002.525-11.671 28.428 28.428 0 00-8.308-20.079 28.332 28.332 0 00-20.056-8.316zm0 2.839a25.514 25.514 0 0116.933 6.447 25.564 25.564 0 018.396 16.071 7 7 0 01-3.744-1.278 10.999 10.999 0 00-12.027 0 6.968 6.968 0 01-4.254 1.335 7.056 7.056 0 01-4.283-1.335 10.354 10.354 0 00-6.013-1.789 10.316 10.316 0 00-5.985 1.789 7.055 7.055 0 01-4.283 1.477 6.97 6.97 0 01-4.255-1.335 10.486 10.486 0 00-5.304-1.732 25.56 25.56 0 019.002-14.139 25.51 25.51 0 0115.817-5.511zm-25.273 22.064a7.137 7.137 0 014.028 1.306 10.257 10.257 0 005.985 1.76 10.347 10.347 0 006.013-1.76 7.481 7.481 0 018.509 0 10.35 10.35 0 006.013 1.76 10.256 10.256 0 006.07-1.76 7.542 7.542 0 018.51 0 10.507 10.507 0 005.672 1.76v.426a25.365 25.365 0 01-.34 4.174 7.078 7.078 0 01-3.602-1.334 11.14 11.14 0 00-12.027 0 6.973 6.973 0 01-4.254 1.334 7.055 7.055 0 01-4.283-1.334 10.341 10.341 0 00-6.013-1.761 10.313 10.313 0 00-5.985 1.761 7.057 7.057 0 01-4.283 1.334 6.976 6.976 0 01-4.255-1.334 10.313 10.313 0 00-6.013-1.704v-1.136a23.86 23.86 0 01.255-3.492zm48.361 14.396a8.47 8.47 0 01-1.503-.795 11.14 11.14 0 00-12.027 0 6.974 6.974 0 01-4.254 1.335 7.063 7.063 0 01-4.283-1.335 10.341 10.341 0 00-6.013-1.761 10.313 10.313 0 00-5.985 1.761 7.055 7.055 0 01-4.283 1.249 6.976 6.976 0 01-4.255-1.334 10.395 10.395 0 00-4.566-1.505 25.603 25.603 0 01-1.192-4.714 7.145 7.145 0 014.028 1.306 10.23 10.23 0 005.985 1.789 10.337 10.337 0 006.013-1.789 7.488 7.488 0 018.509 0 10.34 10.34 0 006.013 1.789 10.225 10.225 0 006.07-1.874 7.54 7.54 0 018.51 0 10.458 10.458 0 004.765 1.676 26.133 26.133 0 01-1.532 4.202zm-23.088 14.652a25.507 25.507 0 01-13.353-3.884 25.546 25.546 0 01-9.339-10.314c.55.245 1.081.53 1.589.852a10.23 10.23 0 005.985 1.789 10.34 10.34 0 006.013-1.789 7.487 7.487 0 018.509 0 10.337 10.337 0 006.013 1.789 10.23 10.23 0 005.928-1.76 7.542 7.542 0 018.51 0c.627.386 1.281.728 1.957 1.022a25.543 25.543 0 01-9.298 9.008 25.51 25.51 0 01-12.514 3.287z"/></g><g clip-path="url(#clip7_609_4412)" fill="#0B193D"><path d="M782.329 378.577a34.097 34.097 0 003.683-16.807 34.091 34.091 0 00-4.989-16.466 34.058 34.058 0 00-12.39-11.926 34.006 34.006 0 00-33.262 0 34.053 34.053 0 00-12.391 11.926 34.113 34.113 0 00-1.305 33.273l2.486-1.268a31.309 31.309 0 011.199-30.545 31.256 31.256 0 0111.374-10.948 31.211 31.211 0 0130.535 0 31.287 31.287 0 0115.954 26.064 31.309 31.309 0 01-3.381 15.429l2.487 1.268z"/><path fill-rule="evenodd" clip-rule="evenodd" d="M752.005 380.145a5.676 5.676 0 005.673-5.679 5.676 5.676 0 00-5.673-5.679 5.676 5.676 0 00-5.673 5.679 5.676 5.676 0 005.673 5.679zm-.001-2.839a2.839 2.839 0 002.837-2.84c0-1.568-1.27-2.84-2.837-2.84a2.838 2.838 0 00-2.836 2.84c0 1.568 1.27 2.84 2.836 2.84z"/><rect width="2.838" height="31.218" rx="1.419" transform="rotate(45.032 -40.364 1106.808)"/></g><g clip-path="url(#clip8_609_4412)"><path d="M969.658 359.259a1.192 1.192 0 00-.583 1.561l2.676 5.752c.132.287.372.51.667.62.129.047.266.071.404.071a1.18 1.18 0 00.5-.106l20.224-9.457-1.832 19.174c-.035.378.11.749.392 1.001a5.192 5.192 0 003.142 1.191c.317-.001.632-.04.939-.119 1.642-.429 2.915-1.893 3.784-4.395l7.959-23.593 15.76-7.361c4.64-2.167 7.03-6.562 5.43-9.992a6.026 6.026 0 00-4.65-3.252c-2.22-.335-4.49.014-6.5 1.001l-18.19 8.539-19.558-7.658c-2.463-.929-4.413-.905-5.782.084a4.865 4.865 0 00-1.773 3.847c.012.377.202.725.512.941l13.17 9.063-7.543 3.573-12.646-3.216a1.19 1.19 0 00-1.321.572l-3.152 5.68a1.191 1.191 0 00.619 1.68l9.363 3.871-2.011.928zm5.448-23.688c.07-.503.324-.962.714-1.286.678-.489 1.916-.417 3.569.202l17.417 6.801-7.947 3.716-13.753-9.433zm-10.707 17.198l2.07-3.68 12.171 3.025c.262.066.539.041.785-.071l39.555-18.497a8.697 8.697 0 015.08-.81c1.22.113 2.3.816 2.9 1.882 1 2.144-.96 5.276-4.28 6.825l-13.7 6.431.83-2.466c.21-.634-.13-1.32-.77-1.53-.63-.21-1.32.134-1.53.768l-9.788 29.167c-.583 1.656-1.309 2.645-2.118 2.859a2.011 2.011 0 01-1.451-.274l2.379-25.011a1.195 1.195 0 10-2.379-.226l-.369 3.823-20.415 9.528-1.676-3.573 3.354-1.572a1.193 1.193 0 000-2.18l-10.648-4.418z" fill="#0B193D"/></g><g clip-path="url(#clip9_609_4412)" fill="#0B193D"><path d="M1259.82 332.582c-.6-.734-1.23-1.435-1.9-2.101a34.007 34.007 0 00-37.08-7.334 34.1 34.1 0 00-15.26 12.551 34.134 34.134 0 00-5.72 18.919c0 6.734 1.99 13.317 5.72 18.918a34.093 34.093 0 0015.26 12.551 33.99 33.99 0 0019.65 1.959 34.04 34.04 0 0017.43-9.292c.67-.666 1.3-1.367 1.9-2.101a34.088 34.088 0 008.05-22.007c0-8.057-2.85-15.854-8.05-22.006v-.057zm-2.02 41.883a25.52 25.52 0 01-1.9 2.102 31.171 31.171 0 01-34 6.764 31.226 31.226 0 01-14-11.504 31.317 31.317 0 01-5.25-17.352c0-6.177 1.83-12.216 5.25-17.352a31.183 31.183 0 0132.03-13.284 31.164 31.164 0 0115.97 8.544 25.67 25.67 0 011.9 2.101 31.256 31.256 0 010 39.981z"/><path d="M1249.89 370.661a22.713 22.713 0 01-11.62 6.21c-4.4.874-8.96.423-13.11-1.297a22.766 22.766 0 01-10.18-8.367 22.75 22.75 0 010-25.236 22.766 22.766 0 0110.18-8.367 22.688 22.688 0 0113.11-1.297 22.72 22.72 0 0111.62 6.21c.66.682 1.29 1.392 1.87 2.13l1.99-1.988a22.232 22.232 0 00-1.88-2.129 25.445 25.445 0 00-13.07-7.003 25.486 25.486 0 00-14.75 1.449 25.54 25.54 0 00-15.76 23.613 25.546 25.546 0 0015.76 23.614 25.503 25.503 0 0027.82-5.554c.67-.669 1.3-1.38 1.88-2.13l-1.99-1.988c-.6.739-1.23 1.449-1.87 2.13z"/><path d="M1243.88 364.641a14.167 14.167 0 01-15.45 3.062 14.206 14.206 0 01-8.75-13.114 14.197 14.197 0 018.75-13.113 14.167 14.167 0 0115.45 3.061c.67.672 1.27 1.415 1.79 2.215l2.04-2.016a17.03 17.03 0 00-6.06-5.279 17.036 17.036 0 00-7.81-1.905c-4.51 0-8.84 1.795-12.04 4.99a17.05 17.05 0 00-4.98 12.047c0 4.519 1.79 8.852 4.98 12.048 3.2 3.195 7.53 4.99 12.04 4.99a17.247 17.247 0 0013.87-7.156l-2.04-2.045c-.52.801-1.12 1.543-1.79 2.215z"/><path d="M1249.89 338.515l-4.03 4.033-1.98 1.987c.67.672 1.27 1.415 1.78 2.215l2.05-2.016 4.05-4.089c-.6-.738-1.23-1.448-1.87-2.13zm-2.18 25.954l-2.05-2.045-4.17-4.174-2.18-2.186a5.436 5.436 0 01-1.47 2.527l2.01 2.016 16.05 16.072 2.02 2.016c.67-.666 1.3-1.367 1.9-2.101l-2.02-2.13-10.09-9.995zm-2.05-17.719l2.05-2.016 4.05-4.089 1.99-1.988 4.05-3.947 2.02-2.016c-.6-.734-1.23-1.435-1.9-2.101l-6.04 5.935-1.99 1.987-4.03 4.033-1.98 1.987-4.03 4.032-2.01 2.016a5.444 5.444 0 011.47 2.528l6.35-6.361z"/><path d="M1241.5 350.926a8.11 8.11 0 00-1.65-2.357 8.527 8.527 0 00-4.36-2.334 8.47 8.47 0 00-4.91.483 8.454 8.454 0 00-3.82 3.137 8.498 8.498 0 000 9.468 8.454 8.454 0 003.82 3.137c1.55.645 3.26.813 4.91.483a8.52 8.52 0 004.36-2.334 8.097 8.097 0 001.65-2.357 8.306 8.306 0 000-7.326zm-3.66 7.667a5.677 5.677 0 01-4 1.675 5.65 5.65 0 01-4.01-1.663 5.666 5.666 0 010-8.032 5.65 5.65 0 014.01-1.663c1.5.006 2.94.609 4 1.675a5.444 5.444 0 011.47 2.528c.24.931.24 1.908 0 2.839a5.417 5.417 0 01-1.47 2.641z"/></g><g clip-path="url(#clip10_609_4412)"><path d="M37.56 501.929v-11.041a6.328 6.328 0 00-1.828-4.984 6.305 6.305 0 00-4.98-1.831h-17.58a6.289 6.289 0 00-6.807 6.815v11.075a6.932 6.932 0 00-4.754 2.445A6.954 6.954 0 000 509.51v8.638a2.614 2.614 0 00.762 1.86 2.606 2.606 0 001.858.764h.868v6.815a2.621 2.621 0 002.62 2.487h2.485a2.622 2.622 0 002.621-2.555v-6.815h21.767v6.815a2.602 2.602 0 002.62 2.555h2.468a2.607 2.607 0 002.621-2.624v-6.815h.885a2.608 2.608 0 001.874-.738 2.613 2.613 0 00.798-1.851v-8.519a7.263 7.263 0 00-1.801-5.16 7.247 7.247 0 00-4.887-2.438zm-5.02 0v-6.338a2.606 2.606 0 00-2.621-2.624H13.904a2.607 2.607 0 00-2.62 2.624v6.269h-2.4v-10.972h.136a3.732 3.732 0 014.152-4.191h17.631a3.718 3.718 0 013.98 2.513c.18.54.233 1.114.156 1.678v11.006l-2.4.035zm-2.179 0h7.863-7.863zm-.29-6.338v6.269H14.058v-6.269h16.015zM8.51 527.519H6.042v-6.815h2.467v6.815zm29.408 0H35.45v-6.815h2.484l-.017 6.815zm3.404-9.405H2.553v-3.868h38.802l-.034 3.868zm0-6.491H2.553v-2.113a4.569 4.569 0 013.075-4.822 4.559 4.559 0 012.03-.204H36.42a4.534 4.534 0 013.717 1.304 4.55 4.55 0 011.303 3.722l-.12 2.113z" fill="#0B193D"/></g><g clip-path="url(#clip11_609_4412)"><path d="M305.032 501.929v-11.041a6.334 6.334 0 00-1.828-4.984 6.308 6.308 0 00-4.98-1.831h-41.473a6.286 6.286 0 00-6.808 6.815v11.075a6.915 6.915 0 00-2.621.746 6.963 6.963 0 00-3.744 6.801v8.638a2.617 2.617 0 00.763 1.86 2.61 2.61 0 001.858.764h.868v6.815a2.62 2.62 0 002.621 2.487h2.485a2.62 2.62 0 002.62-2.555v-6.815h45.644v6.815a2.63 2.63 0 001.692 2.387c.324.122.668.18 1.014.168h2.484a2.623 2.623 0 002.621-2.555v-6.815h.868a2.604 2.604 0 002.536-2.658v-8.519a7.265 7.265 0 00-1.777-5.138 7.244 7.244 0 00-4.843-2.46zm-52.57-11.041h.136a3.736 3.736 0 012.476-4.014 3.73 3.73 0 011.677-.177h41.508a3.726 3.726 0 014.152 4.191v11.006h-1.974v-6.303a2.61 2.61 0 00-1.615-2.429 2.608 2.608 0 00-1.006-.195h-16.014a2.608 2.608 0 00-1.859.763 2.624 2.624 0 00-.762 1.861v6.269h-3.063v-6.269a2.61 2.61 0 00-1.616-2.429 2.607 2.607 0 00-1.005-.195h-16.015a2.607 2.607 0 00-2.62 2.624v6.269h-2.4v-10.972zm45.354 4.703v6.269h-16.014v-6.269h16.014zm-24.166 0v6.269h-16.014v-6.269h16.014zm-21.562 31.928h-2.468v-6.815h2.468v6.815zm53.284 0h-2.45v-6.815h2.467l-.017 6.815zm3.404-9.405h-62.645v-3.868h62.679l-.034 3.868zm0-6.491h-62.645v-2.113a4.573 4.573 0 011.336-3.752 4.57 4.57 0 013.77-1.274h52.552a4.536 4.536 0 013.718 1.304c.482.483.85 1.068 1.075 1.713a4.54 4.54 0 01.228 2.009l-.034 2.113z" fill="#0B193D"/></g><g clip-path="url(#clip12_609_4412)"><path d="M564.41 501.913v-11.04a6.318 6.318 0 00-6.808-6.815h-65.776a6.265 6.265 0 00-4.992 1.817 6.291 6.291 0 00-1.815 4.998v11.074a6.938 6.938 0 00-4.766 2.439 6.953 6.953 0 00-1.616 5.108v8.638a2.61 2.61 0 001.615 2.429c.319.131.661.197 1.006.195h.885v6.815a2.607 2.607 0 002.62 2.488h2.468a2.604 2.604 0 002.621-2.556v-6.815h69.963v6.815a2.619 2.619 0 002.62 2.556h2.485a2.623 2.623 0 002.621-2.624v-6.815h.868a2.623 2.623 0 002.621-2.624v-8.519a7.263 7.263 0 00-1.789-5.116 7.25 7.25 0 00-4.831-2.448zm-76.89-11.04h.154a3.726 3.726 0 011.048-3.116 3.72 3.72 0 013.104-1.075h65.81a3.717 3.717 0 013.104 1.075 3.737 3.737 0 011.049 3.116v11.006h-1.974v-6.304a2.617 2.617 0 00-.763-1.86 2.61 2.61 0 00-1.858-.764h-16.015a2.607 2.607 0 00-2.62 2.624v6.27h-3.064v-6.287a2.598 2.598 0 00-.762-1.86 2.61 2.61 0 00-1.859-.764H516.86a2.603 2.603 0 00-2.621 2.624v6.287h-3.046v-6.27a2.623 2.623 0 00-2.621-2.624h-16.031a2.623 2.623 0 00-2.621 2.624v6.27h-2.4v-10.972zm69.674 4.702v6.27h-16.015v-6.27h16.015zm-24.32 0v6.287H516.86v-6.304l16.014.017zm-24.166 0v6.27h-16.014v-6.27h16.014zm-21.562 31.928h-2.468v-6.815h2.468v6.815zm77.604 0h-2.451v-6.815h2.468l-.017 6.815zm3.404-9.405H481.19v-3.867h86.998l-.034 3.867zm0-6.491H481.19v-2.113a4.586 4.586 0 013.078-4.815 4.572 4.572 0 012.027-.211h76.872a4.546 4.546 0 014.793 3.017c.226.644.303 1.331.228 2.009l-.034 2.113z" fill="#0B193D"/></g><g clip-path="url(#clip13_609_4412)"><path d="M828.067 501.913v-11.04a6.318 6.318 0 00-6.807-6.815h-90.198a6.272 6.272 0 00-4.992 1.817 6.291 6.291 0 00-1.815 4.998v11.074a6.944 6.944 0 00-6.009 4.85 6.954 6.954 0 00-.288 2.697v8.638c-.003.346.064.688.195 1.007a2.598 2.598 0 002.426 1.617h.867v6.815a2.626 2.626 0 002.621 2.488h2.485a2.621 2.621 0 002.621-2.556v-6.815h94.299v6.815a2.604 2.604 0 002.638 2.556h2.468a2.608 2.608 0 002.62-2.624v-6.815h.868a2.608 2.608 0 001.859-.764 2.62 2.62 0 00.762-1.86v-8.519a7.246 7.246 0 00-1.784-5.12 7.233 7.233 0 00-4.836-2.444zm-101.226-11.04h.136a3.74 3.74 0 011.049-3.116 3.717 3.717 0 013.104-1.075h90.198a3.727 3.727 0 014.118 4.191v11.006h-1.974v-6.304a2.617 2.617 0 00-.763-1.86 2.595 2.595 0 00-1.858-.764h-16.014a2.608 2.608 0 00-1.858.764 2.607 2.607 0 00-.763 1.86v6.27h-3.08v-6.27a2.617 2.617 0 00-.763-1.86 2.61 2.61 0 00-1.858-.764H780.5a2.607 2.607 0 00-2.62 2.624v6.27h-3.064v-6.27a2.598 2.598 0 00-.762-1.86 2.61 2.61 0 00-1.859-.764h-16.014a2.608 2.608 0 00-1.858.764 2.607 2.607 0 00-.763 1.86v6.27h-3.063v-6.27a2.617 2.617 0 00-.763-1.86 2.595 2.595 0 00-1.858-.764h-16.014a2.608 2.608 0 00-1.858.764 2.607 2.607 0 00-.763 1.86v6.27h-2.4v-10.972zm94.027 4.702v6.27h-16.031v-6.27h16.031zm-24.353 6.27H780.5v-6.27h16.015v6.27zm-24.32 0h-16.014v-6.27h16.014v6.27zm-24.166-6.27v6.27h-16.014v-6.27h16.014zm-21.562 31.928h-2.468v-6.815h2.468v6.815zm101.957 0h-2.467v-6.815h2.484l-.017 6.815zm3.404-9.405H720.51v-3.867h111.352l-.034 3.867zm0-6.491H720.51v-2.113a4.56 4.56 0 013.075-4.822 4.573 4.573 0 012.031-.204h101.26a4.542 4.542 0 014.874 2.993c.23.652.309 1.347.231 2.033l-.153 2.113z" fill="#0B193D"/></g><g clip-path="url(#clip14_609_4412)" fill="#0B193D"><path d="M1022.1 498.52v-5.001c0-6.12-4.25-8.285-8.28-8.285h-42.868c-4.026 0-8.276 2.165-8.276 8.285v5.001a5.69 5.69 0 00-4.324 5.524v17.541a2.993 2.993 0 002.982 2.986h1.417v3.359a2.674 2.674 0 002.684 2.687h2.982a2.674 2.674 0 002.684-2.687v-3.359h42.579v3.359a2.672 2.672 0 002.68 2.687h2.98a2.68 2.68 0 002.69-2.687v-3.359h1.41a3 3 0 002.99-2.986v-17.541a5.696 5.696 0 00-4.33-5.524zm-56.814-4.926c.074-4.703 3.131-5.673 5.666-5.673h42.578c2.53 0 5.66.97 5.66 5.673v5.001c-2.46.597-4.32 2.836-4.32 5.449v1.567h-45.26v-1.567c0-2.613-1.864-4.852-4.324-5.449v-5.001zm49.584 14.705v5.15h-21.624v-5.15h21.624zm-24.308 0v5.15H969.61v-5.15h20.952zm-22.219 19.631h-2.983v-3.359h2.983v3.359zm50.847 0h-2.98v-3.359h2.98v3.359zm4.4-6.345c0 .149-.15.299-.3.299h-61.956c-.149 0-.298-.15-.298-.299v-17.541a2.993 2.993 0 012.982-2.986 2.994 2.994 0 012.983 2.986v10.749c0 .746.596 1.343 1.342 1.343h47.947c.74 0 1.34-.597 1.34-1.343v-10.749a2.991 2.991 0 012.98-2.986c1.64 0 2.98 1.344 2.98 2.986v17.541z"/><path d="M977.363 492.845c-2.312 0-4.101 1.792-4.101 4.106 0 2.239 1.864 4.105 4.101 4.105a4.09 4.09 0 004.1-4.105 4.091 4.091 0 00-4.1-4.106zm0 5.524a1.416 1.416 0 01-1.417-1.418c0-.821.596-1.418 1.417-1.418.745 0 1.416.597 1.416 1.418s-.671 1.418-1.416 1.418zm29.157-5.524c-2.31 0-4.1 1.792-4.1 4.106.07 2.239 1.86 4.105 4.1 4.105 2.24 0 4.1-1.791 4.1-4.105a4.092 4.092 0 00-4.1-4.106zm0 5.524c-.75 0-1.42-.597-1.42-1.418s.67-1.418 1.42-1.418c.74 0 1.42.597 1.42 1.418s-.6 1.418-1.42 1.418z"/></g><g clip-path="url(#clip15_609_4412)" fill="#0B193D"><path d="M1263.37 501.913v-11.04a6.33 6.33 0 00-.36-2.694 6.362 6.362 0 00-3.75-3.755 6.33 6.33 0 00-2.7-.366h-41.47c-.91-.081-1.83.04-2.7.354a6.287 6.287 0 00-3.75 3.76 6.212 6.212 0 00-.36 2.701v11.074a6.97 6.97 0 00-2.62.746 6.986 6.986 0 00-3.45 4.089 7.11 7.11 0 00-.29 2.712v8.638c0 .346.06.688.19 1.007.13.319.33.61.57.854.24.244.53.437.85.568.32.131.66.197 1.01.195h.87v6.815c.03.672.32 1.305.81 1.768.49.463 1.14.72 1.81.72h2.48c.69 0 1.34-.267 1.83-.745.49-.477.78-1.127.79-1.811v-6.815h45.65v6.815c.01.346.08.687.22 1.003a2.655 2.655 0 001.47 1.384c.32.123.67.18 1.01.169h2.49c.68 0 1.34-.267 1.83-.745a2.63 2.63 0 00.79-1.811v-6.815h.87a2.595 2.595 0 001.81-.805c.48-.498.74-1.164.72-1.853v-8.518a7.223 7.223 0 00-1.78-5.139 7.235 7.235 0 00-4.84-2.46zm-52.94 25.59h-2.47v-6.815h2.47v6.815zm53.28 0h-2.45v-6.815h2.47l-.02 6.815zm3.41-15.896h-19.06a10.903 10.903 0 01-4.87 2.624h23.96v3.901h-62.68v-3.901h24.25a10.903 10.903 0 01-4.87-2.624h-19.38v-2.113c-.07-.685.01-1.377.25-2.025.23-.648.6-1.236 1.09-1.719a4.603 4.603 0 013.77-1.282h9.88a5.004 5.004 0 01-.57-2.368c-.01-.085-.01-.17 0-.255h-2.91v-6.27h5.44c.66-.926 1.38-1.803 2.16-2.624h-7.76c-.69 0-1.36.277-1.85.769a2.633 2.633 0 00-.77 1.855v6.27h-2.4v-10.972h.14c-.08-.565-.02-1.14.16-1.68s.49-1.031.89-1.436.89-.712 1.42-.898a3.74 3.74 0 011.68-.177h41.51c.56-.07 1.14-.01 1.67.177a3.734 3.734 0 012.32 2.334c.18.54.24 1.115.16 1.68v11.006h-1.97v-6.304c0-.345-.07-.687-.2-1.007a2.507 2.507 0 00-.57-.853 2.6 2.6 0 00-1.85-.764h-7.83a21.36 21.36 0 012.16 2.624h5.67v6.27h-3.07c.01.085.01.17 0 .255a5.14 5.14 0 01-.56 2.403h9.6c.68-.076 1.36.002 2.01.227.64.226 1.22.594 1.71 1.077a4.5 4.5 0 011.07 1.712c.23.644.31 1.331.23 2.01l-.03 2.078z"/><path d="M1235.93 488.659c-8.3 0-15.13 8.877-15.13 13.307a6.51 6.51 0 001.09 3.07 6.488 6.488 0 002.45 2.143v1.005c0 3.254 5.52 5.333 11.59 5.333 6.08 0 11.58-2.079 11.59-5.333v-1.005a6.415 6.415 0 002.45-2.143c.62-.913 1-1.971 1.09-3.07 0-4.413-6.82-13.307-15.13-13.307zm0 23.069c-2.96 0-6.94-.596-8.95-2.215a31.904 31.904 0 0117.92 0c-2.06 1.653-6.09 2.215-8.97 2.215zm9.82-3.833a33.667 33.667 0 00-19.64 0v-1.091c0-.191.06-.377.18-.53a.865.865 0 01.45-.322 30.04 30.04 0 019.35-1.363c3.06-.006 6.11.454 9.03 1.363.19.055.35.168.46.322a.91.91 0 01.17.53v1.091zm1.31-2.573a2.598 2.598 0 00-1.44-1.056c-.82-.239-1.7-.46-2.44-.631a6.284 6.284 0 002.52-3.169.909.909 0 00-.04-.687.906.906 0 00-1.21-.41.92.92 0 00-.45.518c-.32.858-.9 1.596-1.65 2.115-.76.518-1.65.791-2.57.781h-7.39a4.458 4.458 0 01-2.59-.796 4.51 4.51 0 01-1.66-2.151.873.873 0 00-.47-.459.851.851 0 00-.65-.001.894.894 0 00-.5.453c-.1.209-.12.45-.05.671a6.126 6.126 0 002.45 3.118c-.88.188-1.7.409-2.67.682-.59.171-1.1.545-1.45 1.056a4.38 4.38 0 01-1.53-1.428 4.396 4.396 0 01-.7-1.979c0-3.408 6.06-11.535 13.36-11.535s13.36 8.059 13.36 11.535a4.353 4.353 0 01-.7 1.969c-.38.59-.91 1.078-1.53 1.421v-.017z"/><path d="M1239.57 497.206a.904.904 0 00-.68-.008.887.887 0 00-.48.468c-.14.345-.35.657-.62.912-.27.256-.59.451-.95.57v-3.407h.82a.885.885 0 00.6-.852.885.885 0 00-.6-.852h-.88v-.954c.03-.132.04-.271.02-.405a1.009 1.009 0 00-.17-.372.882.882 0 00-1.41 0 .853.853 0 00-.16.372.923.923 0 00.01.405v.886h-.81a.9.9 0 00-.44.33.894.894 0 00-.17.522c0 .187.06.369.17.522a.9.9 0 00.44.33h.88v3.407a2.552 2.552 0 01-.97-.528 2.548 2.548 0 01-.66-.886.903.903 0 00-.5-.5.909.909 0 00-.7-.002.893.893 0 00-.5.496.908.908 0 000 .705c.34.801.91 1.483 1.63 1.963.73.48 1.58.736 2.45.736.87 0 1.72-.256 2.45-.736a4.545 4.545 0 001.64-1.963c.09-.209.1-.446.02-.662a.868.868 0 00-.43-.497z"/></g><defs><clipPath id="clip0_609_4412"><path fill="#fff" transform="translate(0 167.179)" d="M0 0h68.074v68.149H0z"/></clipPath><clipPath id="clip1_609_4412"><path fill="#fff" transform="translate(240.387 167.179)" d="M0 0h68.074v68.149H0z"/></clipPath><clipPath id="clip2_609_4412"><path fill="#fff" transform="translate(478.645 167.179)" d="M0 0h68.074v68.149H0z"/></clipPath><clipPath id="clip3_609_4412"><path fill="#fff" transform="translate(717.965 167.179)" d="M0 0h68.074v68.149H0z"/></clipPath><clipPath id="clip4_609_4412"><path fill="#fff" transform="translate(957.285 167.179)" d="M0 0h68.074v68.149H0z"/></clipPath><clipPath id="clip5_609_4412"><path fill="#fff" transform="translate(239.32 320.515)" d="M0 0h68.074v68.149H0z"/></clipPath><clipPath id="clip6_609_4412"><path fill="#fff" transform="translate(478.645 320.515)" d="M0 0h68.074v68.149H0z"/></clipPath><clipPath id="clip7_609_4412"><path fill="#fff" transform="translate(717.965 320.515)" d="M0 0h68.074v68.149H0z"/></clipPath><clipPath id="clip8_609_4412"><path fill="#fff" transform="translate(961.543 320.515)" d="M0 0h68.074v68.149H0z"/></clipPath><clipPath id="clip9_609_4412"><path fill="#fff" transform="translate(1199.8 320.515)" d="M0 0h68.074v68.149H0z"/></clipPath><clipPath id="clip10_609_4412"><path fill="#fff" transform="translate(0 473.851)" d="M0 0h44.197v68.149H0z"/></clipPath><clipPath id="clip11_609_4412"><path fill="#fff" transform="translate(243.578 473.851)" d="M0 0h68.074v68.149H0z"/></clipPath><clipPath id="clip12_609_4412"><path fill="#fff" transform="translate(478.645 473.851)" d="M0 0h92.393v68.149H0z"/></clipPath><clipPath id="clip13_609_4412"><path fill="#fff" transform="translate(717.965 473.851)" d="M0 0h116.729v68.149H0z"/></clipPath><clipPath id="clip14_609_4412"><path fill="#fff" transform="translate(958.352 473.851)" d="M0 0h68.074v68.149H0z"/></clipPath><clipPath id="clip15_609_4412"><path fill="#fff" transform="translate(1201.93 473.851)" d="M0 0h68.074v68.149H0z"/></clipPath></defs></svg>