<svg width="1440" height="853" fill="none" xmlns="http://www.w3.org/2000/svg"><path d="M106.641 293.859l.164-.898c-.323-.01-.591-.099-.805-.266a1.806 1.806 0 01-.5-.64 2.938 2.938 0 01-.273-.867 5.841 5.841 0 01-.079-.961v-1.321c-.005-.62-.151-1.164-.437-1.633-.287-.474-.732-.83-1.336-1.07.604-.245 1.049-.601 1.336-1.07.292-.474.437-1.024.437-1.649v-1.328c0-.317.016-.638.047-.961.032-.323.104-.614.219-.875.109-.255.274-.466.492-.632.224-.167.524-.256.899-.266l-.164-.899c-.526.016-.974.131-1.344.344-.37.209-.669.479-.899.813a3.652 3.652 0 00-.539 1.187 5.322 5.322 0 00-.164 1.289v1.328c0 .756-.179 1.302-.539 1.641-.354.333-.898.5-1.633.5v1.133c.735.005 1.279.177 1.633.515.36.339.539.883.539 1.633v1.321c0 .416.06.835.18 1.257.12.427.297.813.531 1.157.245.359.552.648.922.867.37.219.807.336 1.313.351zm148.632-.898l.165.898c.51-.01.95-.127 1.32-.351.37-.224.677-.511.922-.86.239-.349.416-.737.531-1.164.115-.422.172-.841.172-1.257v-1.321c0-.364.041-.679.125-.945.083-.266.211-.487.383-.664.177-.182.403-.315.679-.399.282-.088.61-.135.985-.14v-1.133c-.427 0-.795-.055-1.102-.164a1.49 1.49 0 01-.711-.539 1.904 1.904 0 01-.273-.61 3.535 3.535 0 01-.086-.828v-1.328c0-.437-.06-.88-.18-1.328a3.462 3.462 0 00-.57-1.211 2.699 2.699 0 00-.899-.773c-.359-.198-.791-.305-1.296-.321l-.157.899c.375.01.672.099.891.266.219.166.385.377.5.632.109.261.18.552.211.875.036.323.055.644.055.961v1.328c0 .407.059.784.179 1.133.12.344.305.646.555.906.13.141.281.269.453.383.177.115.37.214.578.297-.203.083-.391.18-.562.289a2.87 2.87 0 00-.453.367 2.417 2.417 0 00-.571.907c-.12.349-.179.729-.179 1.14v1.321c0 .322-.029.643-.086.961a3.121 3.121 0 01-.266.867c-.13.26-.302.474-.516.64-.213.167-.479.256-.797.266z" fill="#fff"/><path d="M119.172 286.695v.172c0 .61.088 1.175.266 1.695.177.521.432.974.765 1.36a3.47 3.47 0 001.203.906 3.845 3.845 0 001.617.328c.594 0 1.128-.109 1.602-.328a3.548 3.548 0 001.211-.906c.328-.386.581-.839.758-1.36.177-.52.265-1.085.265-1.695v-.172c0-.609-.088-1.174-.265-1.695a4.099 4.099 0 00-.758-1.367 3.506 3.506 0 00-1.219-.906c-.474-.224-1.01-.336-1.609-.336-.594 0-1.128.112-1.602.336-.474.218-.875.52-1.203.906a4.027 4.027 0 00-.765 1.367 5.21 5.21 0 00-.266 1.695zm1.445.172v-.172c0-.411.05-.804.149-1.179.099-.381.25-.714.453-1 .198-.287.445-.513.742-.68a2.052 2.052 0 011.047-.258c.401 0 .75.086 1.047.258.302.167.554.393.757.68.198.286.347.619.446 1 .104.375.156.768.156 1.179v.172c0 .417-.049.815-.148 1.195a3.137 3.137 0 01-.446.993 2.24 2.24 0 01-.758.679 2.08 2.08 0 01-1.039.25c-.401 0-.752-.083-1.054-.25a2.179 2.179 0 01-.75-.679 3.041 3.041 0 01-.453-.993 4.72 4.72 0 01-.149-1.195zM134.758 291h1.312v-8.453h-1.453v6.062a2.323 2.323 0 01-.297.508c-.114.151-.25.281-.406.391a2.251 2.251 0 01-.664.32c-.255.073-.544.11-.867.11-.276 0-.521-.037-.735-.11a1.162 1.162 0 01-.531-.383c-.146-.177-.255-.416-.328-.718-.073-.303-.109-.683-.109-1.141v-5.039h-1.446v5.023c0 .631.068 1.172.204 1.625.14.448.338.818.593 1.11.255.291.563.507.922.648.359.136.761.203 1.203.203.552 0 1.039-.114 1.461-.344a3.035 3.035 0 001.055-.976l.086 1.164zm9.578-8.609c-.615 0-1.164.135-1.648.406-.48.265-.891.63-1.235 1.094l-.008-.211-.062-1.133h-1.375V291h1.453v-5.422c.094-.26.211-.495.351-.703.146-.214.316-.393.508-.539.214-.167.464-.292.75-.375.287-.089.607-.133.961-.133.276 0 .539.016.789.047.256.026.524.07.805.133l.195-1.414c-.146-.063-.364-.112-.656-.149a6.633 6.633 0 00-.828-.054zm13.672 11.859h1.445v-4.062c.104.114.216.221.336.32.12.094.247.18.383.258.224.125.474.221.75.289.281.067.583.101.906.101.531 0 1.003-.109 1.414-.328a3.019 3.019 0 001.047-.906c.281-.386.495-.839.641-1.36a6.315 6.315 0 00.218-1.695v-.164c0-.63-.072-1.208-.218-1.734a4.107 4.107 0 00-.641-1.367 2.956 2.956 0 00-1.047-.891c-.416-.214-.896-.32-1.437-.32-.308 0-.597.033-.867.101a2.72 2.72 0 00-.727.281 2.732 2.732 0 00-.813.696l-.07-.922h-1.32v11.703zm5.695-7.547v.164c0 .412-.047.805-.141 1.18a3.064 3.064 0 01-.414.992 2.156 2.156 0 01-.718.688c-.292.166-.638.25-1.039.25-.25 0-.48-.032-.688-.094a2.205 2.205 0 01-.555-.258 1.743 1.743 0 01-.39-.344 2.846 2.846 0 01-.305-.437v-4.071c.099-.177.214-.338.344-.484.13-.146.279-.268.445-.367a1.79 1.79 0 01.508-.227c.193-.052.401-.078.625-.078.406 0 .755.084 1.047.25.292.167.534.391.726.672.188.287.326.617.414.992.094.37.141.761.141 1.172zm9.461-4.312c-.615 0-1.164.135-1.648.406-.48.265-.891.63-1.235 1.094l-.008-.211-.062-1.133h-1.375V291h1.453v-5.422c.094-.26.211-.495.352-.703.145-.214.315-.393.507-.539.214-.167.464-.292.75-.375.287-.089.607-.133.961-.133.276 0 .539.016.789.047.256.026.524.07.805.133l.195-1.414c-.145-.063-.364-.112-.656-.149a6.633 6.633 0 00-.828-.054zm3.664 4.304v.172c0 .61.089 1.175.266 1.695.177.521.432.974.765 1.36.329.385.73.687 1.203.906.48.219 1.019.328 1.618.328.593 0 1.127-.109 1.601-.328a3.548 3.548 0 001.211-.906c.328-.386.581-.839.758-1.36.177-.52.266-1.085.266-1.695v-.172c0-.609-.089-1.174-.266-1.695a4.099 4.099 0 00-.758-1.367 3.497 3.497 0 00-1.219-.906c-.474-.224-1.01-.336-1.609-.336-.594 0-1.128.112-1.602.336-.473.218-.874.52-1.203.906a4.027 4.027 0 00-.765 1.367 5.237 5.237 0 00-.266 1.695zm1.445.172v-.172c0-.411.05-.804.149-1.179.099-.381.25-.714.453-1 .198-.287.445-.513.742-.68a2.052 2.052 0 011.047-.258c.401 0 .75.086 1.047.258.302.167.555.393.758.68.198.286.346.619.445 1 .104.375.156.768.156 1.179v.172c0 .417-.049.815-.148 1.195a3.158 3.158 0 01-.445.993 2.26 2.26 0 01-.758.679c-.297.167-.643.25-1.039.25-.401 0-.753-.083-1.055-.25a2.179 2.179 0 01-.75-.679 3.041 3.041 0 01-.453-.993 4.72 4.72 0 01-.149-1.195zm12.172 3.117c-.453 0-.833-.088-1.14-.265a2.17 2.17 0 01-.727-.711 2.996 2.996 0 01-.406-.969 5.254 5.254 0 01-.117-1.101v-.329c0-.364.039-.726.117-1.086.083-.359.219-.684.406-.976.188-.287.432-.518.734-.695.308-.183.685-.274 1.133-.274.292 0 .563.05.813.149.255.099.474.234.656.406.182.172.326.372.43.601.109.224.166.464.172.719h1.367c0-.427-.086-.828-.258-1.203a3.01 3.01 0 00-.711-.977 3.45 3.45 0 00-1.094-.64 3.761 3.761 0 00-1.375-.242c-.64 0-1.2.114-1.679.343a3.47 3.47 0 00-1.196.922 3.972 3.972 0 00-.726 1.352 5.257 5.257 0 00-.242 1.601v.329c0 .562.08 1.098.242 1.609.161.505.403.95.726 1.336.318.39.716.7 1.196.929.479.23 1.039.344 1.679.344a3.71 3.71 0 001.289-.226 3.913 3.913 0 001.094-.625c.318-.256.57-.552.758-.891.193-.344.292-.703.297-1.078h-1.367a1.336 1.336 0 01-.188.656c-.114.198-.268.37-.461.516a2.183 2.183 0 01-.664.351 2.317 2.317 0 01-.758.125zm9.743 1.172c.822 0 1.513-.164 2.07-.492.562-.333.984-.713 1.265-1.141l-.882-.687a2.98 2.98 0 01-1 .828c-.401.208-.86.313-1.375.313a2.57 2.57 0 01-1.071-.219 2.462 2.462 0 01-.828-.602 2.73 2.73 0 01-.531-.828 3.809 3.809 0 01-.242-1.086v-.054h6.039v-.649c0-.588-.076-1.135-.227-1.641a3.729 3.729 0 00-.672-1.32 3.102 3.102 0 00-1.14-.867c-.453-.214-.985-.32-1.594-.32-.484 0-.958.099-1.422.297a3.776 3.776 0 00-1.226.851 4.18 4.18 0 00-.875 1.375c-.219.537-.329 1.146-.329 1.828v.328c0 .589.099 1.133.297 1.633.198.5.474.932.828 1.297.355.365.779.648 1.274.852.5.203 1.047.304 1.641.304zm-.188-7.578c.37 0 .688.068.953.203.271.136.495.313.672.531.177.219.315.48.414.782.099.297.149.575.149.836v.07h-4.547c.057-.391.156-.734.297-1.031.145-.302.322-.558.531-.766.208-.203.442-.357.703-.461a2.12 2.12 0 01.828-.164zm9.664 6.406c-.453 0-.833-.088-1.141-.265a2.166 2.166 0 01-.726-.711 2.974 2.974 0 01-.406-.969 5.19 5.19 0 01-.118-1.101v-.329c0-.364.039-.726.118-1.086.083-.359.218-.684.406-.976.187-.287.432-.518.734-.695.308-.183.685-.274 1.133-.274.292 0 .563.05.813.149.255.099.474.234.656.406a1.9 1.9 0 01.429.601c.11.224.167.464.172.719h1.368c0-.427-.086-.828-.258-1.203a3.01 3.01 0 00-.711-.977 3.45 3.45 0 00-1.094-.64 3.765 3.765 0 00-1.375-.242c-.641 0-1.2.114-1.68.343-.479.23-.877.537-1.195.922a3.99 3.99 0 00-.727 1.352 5.288 5.288 0 00-.242 1.601v.329c0 .562.081 1.098.242 1.609.162.505.404.95.727 1.336.318.39.716.7 1.195.929.48.23 1.039.344 1.68.344a3.71 3.71 0 001.289-.226 3.913 3.913 0 001.094-.625c.318-.256.57-.552.758-.891.192-.344.291-.703.297-1.078h-1.368a1.325 1.325 0 01-.187.656c-.115.198-.268.37-.461.516a2.183 2.183 0 01-.664.351 2.322 2.322 0 01-.758.125zm9.609 0c-.453 0-.833-.088-1.14-.265a2.179 2.179 0 01-.727-.711 2.996 2.996 0 01-.406-.969 5.254 5.254 0 01-.117-1.101v-.329c0-.364.039-.726.117-1.086.083-.359.219-.684.406-.976.188-.287.433-.518.735-.695.307-.183.685-.274 1.132-.274.292 0 .563.05.813.149.255.099.474.234.656.406.182.172.326.372.43.601.109.224.167.464.172.719h1.367c0-.427-.086-.828-.258-1.203a3.01 3.01 0 00-.711-.977 3.45 3.45 0 00-1.094-.64 3.761 3.761 0 00-1.375-.242c-.64 0-1.2.114-1.679.343a3.48 3.48 0 00-1.196.922 3.989 3.989 0 00-.726 1.352 5.257 5.257 0 00-.242 1.601v.329c0 .562.08 1.098.242 1.609.161.505.404.95.726 1.336.318.39.717.7 1.196.929.479.23 1.039.344 1.679.344a3.71 3.71 0 001.289-.226 3.9 3.9 0 001.094-.625c.318-.256.571-.552.758-.891.193-.344.292-.703.297-1.078h-1.367a1.326 1.326 0 01-.188.656c-.114.198-.268.37-.461.516a2.171 2.171 0 01-.664.351 2.317 2.317 0 01-.758.125zm9.743 1.172c.823 0 1.513-.164 2.07-.492.562-.333.984-.713 1.266-1.141l-.883-.687a2.98 2.98 0 01-1 .828c-.401.208-.86.313-1.375.313a2.57 2.57 0 01-1.071-.219 2.472 2.472 0 01-.828-.602 2.73 2.73 0 01-.531-.828 3.809 3.809 0 01-.242-1.086v-.054h6.039v-.649c0-.588-.076-1.135-.227-1.641a3.696 3.696 0 00-.672-1.32 3.102 3.102 0 00-1.14-.867c-.453-.214-.984-.32-1.594-.32-.484 0-.958.099-1.422.297a3.776 3.776 0 00-1.226.851 4.18 4.18 0 00-.875 1.375c-.219.537-.328 1.146-.328 1.828v.328c0 .589.099 1.133.296 1.633.198.5.474.932.829 1.297.354.365.778.648 1.273.852.5.203 1.047.304 1.641.304zm-.188-7.578c.37 0 .688.068.953.203.271.136.495.313.672.531.177.219.315.48.414.782.099.297.149.575.149.836v.07h-4.547c.057-.391.156-.734.297-1.031.145-.302.323-.558.531-.766.208-.203.443-.357.703-.461a2.12 2.12 0 01.828-.164zm11.68 5.18a.954.954 0 01-.078.383 1.07 1.07 0 01-.227.328c-.161.161-.385.289-.672.383a3.441 3.441 0 01-1.008.132c-.244 0-.492-.026-.742-.078a2.096 2.096 0 01-.679-.265 1.676 1.676 0 01-.524-.493 1.525 1.525 0 01-.234-.75h-1.446c0 .36.081.706.243 1.04.166.333.406.624.718.874.308.256.685.461 1.133.618.448.151.959.226 1.531.226.5 0 .961-.06 1.383-.179a3.43 3.43 0 001.086-.508c.302-.219.537-.482.703-.789.172-.308.258-.649.258-1.024 0-.349-.075-.656-.226-.922-.146-.265-.36-.5-.641-.703a4.122 4.122 0 00-1.039-.508 11.035 11.035 0 00-1.399-.382 9.122 9.122 0 01-.984-.243 2.384 2.384 0 01-.609-.281.895.895 0 01-.328-.351 1.014 1.014 0 01-.094-.446c0-.161.039-.317.117-.468a1.15 1.15 0 01.352-.399c.151-.114.341-.206.57-.273a2.92 2.92 0 01.812-.102c.297 0 .563.042.797.125a2 2 0 01.61.328c.166.136.297.292.39.469.094.172.141.349.141.531h1.445c0-.37-.081-.713-.242-1.031a2.483 2.483 0 00-.672-.844 3.233 3.233 0 00-1.062-.562 4.526 4.526 0 00-1.407-.203 4.37 4.37 0 00-1.336.195c-.401.13-.747.307-1.039.531a2.445 2.445 0 00-.679.789 1.974 1.974 0 00-.242.961c0 .349.078.656.234.922.156.26.377.487.664.68.281.198.62.367 1.016.508.401.14.843.26 1.328.359.396.078.726.167.992.266.266.093.479.197.64.312.162.115.277.242.344.383.068.135.102.289.102.461z" fill="#C477D5"/><path d="M106.5 341.025c1.9-.45 3.95-.75 6.15-.9 2.2-.15 4.375-.225 6.525-.225 2.3 0 4.625.225 6.975.675 2.4.45 4.575 1.275 6.525 2.475 1.95 1.2 3.525 2.85 4.725 4.95 1.25 2.1 1.875 4.775 1.875 8.025 0 3.2-.575 5.9-1.725 8.1-1.15 2.2-2.675 4-4.575 5.4-1.9 1.35-4.075 2.325-6.525 2.925-2.45.6-4.975.9-7.575.9H115.8l-1.8-.15c-.6-.05-1.025-.1-1.275-.15V393H106.5v-51.975zm12.825 4.275c-1.3 0-2.55.025-3.75.075-1.2.05-2.15.175-2.85.375v21.75c.25.1.65.175 1.2.225.55 0 1.125.025 1.725.075h2.925c1.7 0 3.375-.15 5.025-.45 1.7-.35 3.225-.95 4.575-1.8 1.35-.85 2.425-2.05 3.225-3.6.85-1.55 1.275-3.525 1.275-5.925 0-2.05-.4-3.75-1.2-5.1-.75-1.4-1.775-2.5-3.075-3.3-1.25-.85-2.675-1.45-4.275-1.8-1.6-.35-3.2-.525-4.8-.525zm29.596 47.7v-5.025h10.125v-27.45h-10.125V355.5h14.025l1.2 4.875h.375c1.7-1.55 3.6-2.875 5.7-3.975s4.6-1.65 7.5-1.65c1.7 0 3.05.325 4.05.975 1.05.65 1.85 1.6 2.4 2.85.6 1.25 1 2.775 1.2 4.575.2 1.75.3 3.75.3 6l-5.25.075c0-3.2-.325-5.55-.975-7.05-.6-1.5-1.725-2.25-3.375-2.25-1.55 0-2.95.225-4.2.675-1.25.45-2.35 1-3.3 1.65-.9.65-1.675 1.3-2.325 1.95-.65.65-1.125 1.2-1.425 1.65v22.125h14.4V393h-30.3zm44.295-18.75c0-6.05 1.575-10.825 4.725-14.325 3.15-3.55 7.65-5.325 13.5-5.325 3.15 0 5.85.525 8.1 1.575 2.3 1 4.2 2.375 5.7 4.125s2.6 3.825 3.3 6.225c.75 2.4 1.125 4.975 1.125 7.725 0 3-.4 5.725-1.2 8.175-.8 2.4-1.975 4.45-3.525 6.15-1.55 1.7-3.475 3.025-5.775 3.975-2.25.9-4.825 1.35-7.725 1.35-3.1 0-5.8-.5-8.1-1.5-2.3-1.05-4.2-2.45-5.7-4.2s-2.625-3.825-3.375-6.225c-.7-2.4-1.05-4.975-1.05-7.725zm6.225 0c0 1.75.2 3.5.6 5.25.45 1.75 1.15 3.325 2.1 4.725.95 1.4 2.175 2.525 3.675 3.375 1.55.85 3.425 1.275 5.625 1.275 4 0 7-1.225 9-3.675 2.05-2.5 3.075-6.15 3.075-10.95 0-1.8-.225-3.55-.675-5.25-.4-1.75-1.1-3.325-2.1-4.725-.95-1.4-2.2-2.525-3.75-3.375-1.5-.85-3.35-1.275-5.55-1.275-4 0-7 1.225-9 3.675-2 2.45-3 6.1-3 10.95zm60.646-33.75h12.15v39.675c0 .45.025 1.025.075 1.725.05.65.1 1.35.15 2.1l.3 2.25c.1.7.2 1.325.3 1.875h5.025V393h-9.975l-.75-5.775h-.3c-1.1 1.9-2.75 3.5-4.95 4.8-2.15 1.25-4.65 1.875-7.5 1.875-5.65 0-9.825-1.575-12.525-4.725-2.65-3.2-3.975-8.15-3.975-14.85 0-3.15.45-5.925 1.35-8.325.9-2.45 2.175-4.475 3.825-6.075 1.7-1.65 3.725-2.9 6.075-3.75 2.35-.85 4.975-1.275 7.875-1.275 1.05 0 1.975.025 2.775.075.85.05 1.625.125 2.325.225.7.1 1.35.25 1.95.45.65.15 1.35.325 2.1.525v-10.65h-6.3V340.5zm-4.5 48.375c3.05 0 5.45-.775 7.2-2.325 1.75-1.6 2.95-3.975 3.6-7.125v-17.4c-1.1-.75-2.35-1.3-3.75-1.65-1.35-.35-3.15-.525-5.4-.525-4 0-7.15 1.175-9.45 3.525-2.3 2.3-3.45 5.95-3.45 10.95 0 2.05.175 3.975.525 5.775.4 1.75 1.025 3.275 1.875 4.575.9 1.3 2.075 2.325 3.525 3.075 1.45.75 3.225 1.125 5.325 1.125zm50.521-33.375h10.65v25.575c0 2.45.15 4.8.45 7.05h5.025V393h-9.975l-.225-6.375h-.3c-1.3 2.15-3.025 3.9-5.175 5.25s-4.75 2.025-7.8 2.025c-2.3 0-4.275-.275-5.925-.825a8.11 8.11 0 01-3.975-2.7c-1.05-1.3-1.825-3.025-2.325-5.175-.5-2.2-.75-4.925-.75-8.175v-16.5h-5.025V355.5h10.875v20.325c0 2.05.075 3.9.225 5.55.2 1.6.575 2.975 1.125 4.125.55 1.1 1.35 1.95 2.4 2.55 1.1.55 2.55.825 4.35.825 2.6 0 4.85-.85 6.75-2.55 1.95-1.7 3.425-3.825 4.425-6.375v-19.425h-4.8V355.5zm50.671 5.775c-1.15-.4-2.4-.725-3.75-.975-1.3-.3-2.6-.45-3.9-.45-4.9 0-8.55 1.15-10.95 3.45-2.4 2.3-3.6 5.95-3.6 10.95 0 2.2.35 4.175 1.05 5.925.7 1.7 1.7 3.15 3 4.35 1.3 1.2 2.85 2.125 4.65 2.775 1.85.65 3.875.975 6.075.975 2.35 0 4.625-.4 6.825-1.2 2.25-.8 4.125-1.85 5.625-3.15l2.625 4.35c-.7.6-1.575 1.225-2.625 1.875-1.05.65-2.275 1.275-3.675 1.875-1.35.55-2.875 1-4.575 1.35-1.65.35-3.45.525-5.4.525-3.25 0-6.125-.45-8.625-1.35-2.45-.95-4.5-2.275-6.15-3.975-1.65-1.75-2.9-3.825-3.75-6.225-.85-2.45-1.275-5.15-1.275-8.1 0-3.15.425-5.95 1.275-8.4.9-2.45 2.175-4.5 3.825-6.15 1.65-1.65 3.65-2.9 6-3.75 2.35-.9 4.975-1.35 7.875-1.35 3.7 0 6.7.325 9 .975 2.35.65 4.325 1.375 5.925 2.175l-.075.225V368.4h-5.4v-7.125zm14.37-5.775h8.925v-7.425l5.85-1.65v9.075h20.025v5.025h-20.025v17.7c0 3.65.875 6.35 2.625 8.1 1.8 1.75 4.35 2.625 7.65 2.625 2.25 0 4.2-.425 5.85-1.275 1.7-.85 3.225-1.775 4.575-2.775l1.95 4.425c-1.75 1.4-3.85 2.525-6.3 3.375a22.08 22.08 0 01-7.425 1.275c-2 0-3.9-.3-5.7-.9-1.75-.55-3.3-1.425-4.65-2.625-1.35-1.2-2.425-2.725-3.225-4.575-.8-1.9-1.2-4.15-1.2-6.75v-18.6h-8.925V355.5zm91.217 9.45h16.2v-16.575h5.4v16.575h16.2v5.4h-16.2v16.575h-5.4V370.35h-16.2v-5.4zm92.341-24.45c1.9-.25 3.875-.4 5.925-.45 2.1-.1 3.875-.15 5.325-.15 4.55 0 8.35.65 11.4 1.95 3.1 1.3 5.575 3.125 7.425 5.475 1.9 2.3 3.25 5.075 4.05 8.325.85 3.25 1.275 6.825 1.275 10.725 0 3.55-.375 6.975-1.125 10.275-.75 3.25-2.05 6.15-3.9 8.7-1.85 2.5-4.35 4.525-7.5 6.075-3.1 1.5-7 2.25-11.7 2.25-.65 0-1.5-.025-2.55-.075-1.05 0-2.125-.05-3.225-.15-1.1-.05-2.15-.1-3.15-.15-1-.05-1.75-.125-2.25-.225V340.5zm11.55 4.95c-.7 0-1.6.025-2.7.075-1.05.05-1.925.15-2.625.3v42c.25.05.6.1 1.05.15.5 0 1 .025 1.5.075.5 0 .975.025 1.425.075h1.2c3.65 0 6.6-.6 8.85-1.8 2.3-1.2 4.075-2.8 5.325-4.8 1.25-2.05 2.1-4.375 2.55-6.975.45-2.65.675-5.375.675-8.175 0-2.45-.2-4.9-.6-7.35-.4-2.5-1.225-4.75-2.475-6.75-1.2-2-2.95-3.625-5.25-4.875-2.25-1.3-5.225-1.95-8.925-1.95zm67.096 42.825c-.9.8-1.975 1.55-3.225 2.25-1.2.7-2.525 1.3-3.975 1.8-1.45.5-2.975.875-4.575 1.125-1.55.3-3.125.45-4.725.45-3 0-5.65-.45-7.95-1.35-2.3-.95-4.225-2.275-5.775-3.975-1.55-1.75-2.725-3.825-3.525-6.225-.8-2.4-1.2-5.1-1.2-8.1 0-3.15.425-5.95 1.275-8.4.9-2.45 2.175-4.5 3.825-6.15 1.65-1.65 3.65-2.9 6-3.75 2.35-.9 4.975-1.35 7.875-1.35 2.1 0 4.175.275 6.225.825 2.05.55 3.85 1.6 5.4 3.15 1.6 1.5 2.825 3.6 3.675 6.3.85 2.65 1.15 6.1.9 10.35h-29.025c0 4.5 1.2 7.875 3.6 10.125 2.45 2.2 5.7 3.3 9.75 3.3 1.35 0 2.675-.15 3.975-.45 1.35-.35 2.625-.75 3.825-1.2 1.2-.45 2.25-.95 3.15-1.5.95-.55 1.675-1.05 2.175-1.5l2.325 4.275zm-15.825-28.725c-1.65 0-3.225.175-4.725.525-1.45.35-2.75.95-3.9 1.8-1.1.8-2.025 1.875-2.775 3.225-.7 1.3-1.15 2.925-1.35 4.875h23.325c-.25-3.3-1.325-5.85-3.225-7.65-1.85-1.85-4.3-2.775-7.35-2.775zm53.97 23.325c0-1.6-.625-2.825-1.875-3.675-1.25-.9-2.8-1.6-4.65-2.1a72.047 72.047 0 00-6.075-1.5c-2.15-.45-4.15-1.05-6-1.8-1.85-.75-3.4-1.75-4.65-3-1.25-1.3-1.875-3.1-1.875-5.4 0-1.9.4-3.525 1.2-4.875a10.4 10.4 0 013.3-3.3c1.35-.9 2.925-1.55 4.725-1.95 1.8-.45 3.675-.675 5.625-.675 3.5 0 6.5.45 9 1.35 2.55.85 4.575 1.75 6.075 2.7l-2.4 4.725c-1.65-.9-3.45-1.75-5.4-2.55-1.9-.85-4.3-1.275-7.2-1.275-1.1 0-2.2.125-3.3.375-1.05.2-2.025.525-2.925.975-.85.45-1.55 1.05-2.1 1.8-.5.7-.75 1.575-.75 2.625 0 1.3.625 2.3 1.875 3 1.25.7 2.8 1.3 4.65 1.8 1.85.45 3.85.9 6 1.35 2.2.4 4.225 1 6.075 1.8 1.85.8 3.4 1.875 4.65 3.225 1.25 1.35 1.875 3.175 1.875 5.475 0 3.45-1.375 6.3-4.125 8.55-2.7 2.25-6.775 3.375-12.225 3.375-1.65 0-3.275-.15-4.875-.45-1.6-.3-3.1-.7-4.5-1.2a30.31 30.31 0 01-3.825-1.65c-1.15-.65-2.1-1.3-2.85-1.95l3-4.875c.6.6 1.4 1.225 2.4 1.875 1 .6 2.1 1.15 3.3 1.65 1.2.5 2.475.9 3.825 1.2 1.4.3 2.8.45 4.2.45 1.35 0 2.6-.1 3.75-.3 1.2-.25 2.25-.6 3.15-1.05.9-.5 1.6-1.125 2.1-1.875.55-.8.825-1.75.825-2.85zM691.494 393v-5.025h13.05v-27.45h-13.05V355.5h19.05v32.475h12.75V393h-31.8zm11.025-48.15c0-1.35.45-2.5 1.35-3.45.9-1 2.05-1.5 3.45-1.5 1.45 0 2.65.5 3.6 1.5 1 .95 1.5 2.1 1.5 3.45 0 1.3-.5 2.4-1.5 3.3-.95.9-2.15 1.35-3.6 1.35-1.4 0-2.55-.45-3.45-1.35-.9-.9-1.35-2-1.35-3.3zm65.371 50.025c0 2.35-.45 4.4-1.35 6.15a11.93 11.93 0 01-3.75 4.425c-1.55 1.15-3.375 2-5.475 2.55-2.1.6-4.375.9-6.825.9-2.95 0-5.525-.3-7.725-.9-2.2-.6-4.1-1.375-5.7-2.325l2.85-5.325c.45.4 1.025.775 1.725 1.125.75.4 1.6.75 2.55 1.05.95.35 1.95.625 3 .825 1.1.2 2.175.3 3.225.3 2.2 0 4.025-.2 5.475-.6 1.5-.4 2.7-1.025 3.6-1.875.9-.85 1.55-1.95 1.95-3.3.4-1.35.6-3 .6-4.95v-4.2h-.3a11.676 11.676 0 01-4.425 3.825c-1.8.9-4.125 1.35-6.975 1.35-5.7 0-9.9-1.575-12.6-4.725-2.65-3.2-3.975-8.15-3.975-14.85 0-6.4 1.7-11.225 5.1-14.475 3.4-3.3 8.45-4.95 15.15-4.95 3.1 0 5.725.225 7.875.675 2.2.4 4.2.925 6 1.575v37.725zm-16.725-6c3.05 0 5.45-.775 7.2-2.325 1.75-1.6 2.975-4.025 3.675-7.275V361.5c-2.2-1.05-5.275-1.575-9.225-1.575-4 0-7.15 1.175-9.45 3.525-2.3 2.35-3.45 5.95-3.45 10.8 0 2.15.2 4.125.6 5.925.4 1.75 1.025 3.275 1.875 4.575.9 1.3 2.05 2.325 3.45 3.075 1.45.7 3.225 1.05 5.325 1.05zm29.371-20.25c0-.45-.025-1.025-.075-1.725 0-.75-.025-1.5-.075-2.25-.05-.8-.125-1.575-.225-2.325-.05-.75-.125-1.4-.225-1.95h-5.025V355.5h10.05l.675 6.075h.375c.5-.85 1.15-1.675 1.95-2.475.85-.85 1.825-1.6 2.925-2.25 1.1-.7 2.325-1.25 3.675-1.65 1.35-.4 2.775-.6 4.275-.6 2.3 0 4.325.25 6.075.75 1.8.5 3.275 1.4 4.425 2.7 1.2 1.25 2.1 2.975 2.7 5.175.6 2.15.9 4.9.9 8.25V393h-5.85v-20.4c0-4.15-.675-7.275-2.025-9.375-1.35-2.1-3.8-3.15-7.35-3.15-1.3 0-2.575.275-3.825.825-1.2.5-2.3 1.175-3.3 2.025-1 .85-1.875 1.85-2.625 3-.75 1.1-1.3 2.275-1.65 3.525V393h-5.775v-24.375zm86.566-3.675h16.2v-16.575h5.4v16.575h16.2v5.4h-16.2v16.575h-5.4V370.35h-16.2v-5.4zm93.841-23.925c1.9-.35 4.075-.625 6.525-.825 2.5-.2 4.775-.3 6.825-.3 2.3 0 4.475.25 6.525.75 2.1.5 3.925 1.325 5.475 2.475 1.6 1.15 2.875 2.65 3.825 4.5.95 1.85 1.425 4.1 1.425 6.75 0 2.05-.35 3.875-1.05 5.475-.65 1.55-1.475 2.9-2.475 4.05-.95 1.1-1.95 2-3 2.7-1.05.7-1.95 1.2-2.7 1.5l13.875 24.9h-7.275l-12.375-23.1h-9.375V393h-6.225v-51.975zm13.5 4.275h-2.025c-.7 0-1.375.025-2.025.075-.65.05-1.275.1-1.875.15-.55.05-1 .125-1.35.225v19.35h5.85c3.45 0 6.3-.85 8.55-2.55 2.25-1.7 3.375-4.35 3.375-7.95 0-2.7-.925-4.925-2.775-6.675-1.85-1.75-4.425-2.625-7.725-2.625zm63.647 42.975c-.9.8-1.98 1.55-3.23 2.25-1.2.7-2.52 1.3-3.97 1.8-1.45.5-2.98.875-4.58 1.125-1.55.3-3.12.45-4.72.45-3 0-5.65-.45-7.95-1.35-2.3-.95-4.23-2.275-5.78-3.975-1.55-1.75-2.72-3.825-3.52-6.225-.8-2.4-1.2-5.1-1.2-8.1 0-3.15.42-5.95 1.27-8.4.9-2.45 2.18-4.5 3.83-6.15 1.65-1.65 3.65-2.9 6-3.75 2.35-.9 4.97-1.35 7.87-1.35 2.1 0 4.18.275 6.23.825 2.05.55 3.85 1.6 5.4 3.15 1.6 1.5 2.82 3.6 3.67 6.3.85 2.65 1.15 6.1.9 10.35h-29.02c0 4.5 1.2 7.875 3.6 10.125 2.45 2.2 5.7 3.3 9.75 3.3 1.35 0 2.67-.15 3.97-.45 1.35-.35 2.63-.75 3.83-1.2 1.2-.45 2.25-.95 3.15-1.5.95-.55 1.67-1.05 2.17-1.5l2.33 4.275zm-15.83-28.725c-1.65 0-3.22.175-4.72.525-1.45.35-2.75.95-3.9 1.8-1.1.8-2.03 1.875-2.78 3.225-.7 1.3-1.15 2.925-1.35 4.875h23.33c-.25-3.3-1.33-5.85-3.23-7.65-1.85-1.85-4.3-2.775-7.35-2.775zm53.97 23.325c0-1.6-.62-2.825-1.87-3.675-1.25-.9-2.8-1.6-4.65-2.1-1.85-.55-3.88-1.05-6.08-1.5-2.15-.45-4.15-1.05-6-1.8-1.85-.75-3.4-1.75-4.65-3-1.25-1.3-1.87-3.1-1.87-5.4 0-1.9.4-3.525 1.2-4.875a10.4 10.4 0 013.3-3.3c1.35-.9 2.92-1.55 4.72-1.95 1.8-.45 3.68-.675 5.63-.675 3.5 0 6.5.45 9 1.35 2.55.85 4.57 1.75 6.07 2.7l-2.4 4.725c-1.65-.9-3.45-1.75-5.4-2.55-1.9-.85-4.3-1.275-7.2-1.275-1.1 0-2.2.125-3.3.375-1.05.2-2.02.525-2.92.975-.85.45-1.55 1.05-2.1 1.8-.5.7-.75 1.575-.75 2.625 0 1.3.62 2.3 1.87 3 1.25.7 2.8 1.3 4.65 1.8 1.85.45 3.85.9 6 1.35 2.2.4 4.23 1 6.08 1.8 1.85.8 3.4 1.875 4.65 3.225 1.25 1.35 1.87 3.175 1.87 5.475 0 3.45-1.37 6.3-4.12 8.55-2.7 2.25-6.78 3.375-12.23 3.375-1.65 0-3.27-.15-4.87-.45-1.6-.3-3.1-.7-4.5-1.2s-2.68-1.05-3.83-1.65c-1.15-.65-2.1-1.3-2.85-1.95l3-4.875c.6.6 1.4 1.225 2.4 1.875 1 .6 2.1 1.15 3.3 1.65 1.2.5 2.48.9 3.83 1.2 1.4.3 2.8.45 4.2.45 1.35 0 2.6-.1 3.75-.3 1.2-.25 2.25-.6 3.15-1.05.9-.5 1.6-1.125 2.1-1.875.55-.8.82-1.75.82-2.85zm51.8 5.4c-.9.8-1.97 1.55-3.22 2.25-1.2.7-2.53 1.3-3.98 1.8-1.45.5-2.97.875-4.57 1.125-1.55.3-3.13.45-4.73.45-3 0-5.65-.45-7.95-1.35-2.3-.95-4.22-2.275-5.77-3.975-1.55-1.75-2.73-3.825-3.53-6.225-.8-2.4-1.2-5.1-1.2-8.1 0-3.15.43-5.95 1.28-8.4.9-2.45 2.17-4.5 3.82-6.15 1.65-1.65 3.65-2.9 6-3.75 2.35-.9 4.98-1.35 7.88-1.35 2.1 0 4.17.275 6.22.825 2.05.55 3.85 1.6 5.4 3.15 1.6 1.5 2.83 3.6 3.68 6.3.85 2.65 1.15 6.1.9 10.35h-29.03c0 4.5 1.2 7.875 3.6 10.125 2.45 2.2 5.7 3.3 9.75 3.3 1.35 0 2.68-.15 3.98-.45 1.35-.35 2.62-.75 3.82-1.2 1.2-.45 2.25-.95 3.15-1.5.95-.55 1.68-1.05 2.18-1.5l2.32 4.275zm-15.82-28.725c-1.65 0-3.23.175-4.73.525-1.45.35-2.75.95-3.9 1.8-1.1.8-2.02 1.875-2.77 3.225-.7 1.3-1.15 2.925-1.35 4.875h23.32c-.25-3.3-1.32-5.85-3.22-7.65-1.85-1.85-4.3-2.775-7.35-2.775zm29.22-1.125c2.15-1.25 4.57-2.15 7.27-2.7 2.7-.55 5.35-.825 7.95-.825 2.55 0 4.63.4 6.23 1.2 1.65.8 2.92 1.85 3.82 3.15.95 1.25 1.58 2.7 1.88 4.35.35 1.6.52 3.225.52 4.875 0 1.9-.05 3.925-.15 6.075-.1 2.15-.17 4.3-.22 6.45 0 2.5.15 4.875.45 7.125h5.02V393h-9.97l-.68-5.625h-.37c-.3.45-.75 1.025-1.35 1.725-.6.7-1.4 1.4-2.4 2.1-.95.65-2.13 1.225-3.53 1.725s-3.05.75-4.95.75c-3.7 0-6.62-.95-8.77-2.85-2.15-1.9-3.23-4.5-3.23-7.8 0-2.55.55-4.675 1.65-6.375 1.15-1.7 2.78-3 4.88-3.9 2.1-.9 4.62-1.425 7.57-1.575 3-.15 6.35.05 10.05.6.25-2.3.28-4.2.08-5.7-.15-1.55-.55-2.775-1.2-3.675-.6-.9-1.48-1.525-2.63-1.875-1.1-.4-2.47-.6-4.12-.6-2.25 0-4.4.325-6.45.975-2.05.6-3.88 1.225-5.48 1.875l-1.87-4.35zm11.02 30.225c1.4 0 2.7-.225 3.9-.675 1.2-.45 2.25-1.025 3.15-1.725.9-.7 1.65-1.45 2.25-2.25.6-.85 1.05-1.65 1.35-2.4v-5.25c-2.6-.45-5-.675-7.2-.675s-4.1.25-5.7.75c-1.6.45-2.85 1.175-3.75 2.175-.9 1-1.35 2.3-1.35 3.9 0 1.65.55 3.1 1.65 4.35 1.15 1.2 3.05 1.8 5.7 1.8zm30.8 4.35v-5.025h10.12v-27.45h-10.12V355.5h14.02l1.2 4.875h.38c1.7-1.55 3.6-2.875 5.7-3.975s4.6-1.65 7.5-1.65c1.7 0 3.05.325 4.05.975 1.05.65 1.85 1.6 2.4 2.85.6 1.25 1 2.775 1.2 4.575.2 1.75.3 3.75.3 6l-5.25.075c0-3.2-.33-5.55-.98-7.05-.6-1.5-1.72-2.25-3.37-2.25-1.55 0-2.95.225-4.2.675-1.25.45-2.35 1-3.3 1.65-.9.65-1.68 1.3-2.33 1.95-.65.65-1.12 1.2-1.42 1.65v22.125h14.4V393h-30.3zm72.94-31.725c-1.15-.4-2.4-.725-3.75-.975-1.3-.3-2.6-.45-3.9-.45-4.9 0-8.55 1.15-10.95 3.45-2.4 2.3-3.6 5.95-3.6 10.95 0 2.2.35 4.175 1.05 5.925.7 1.7 1.7 3.15 3 4.35 1.3 1.2 2.85 2.125 4.65 2.775 1.85.65 3.88.975 6.08.975 2.35 0 4.62-.4 6.82-1.2 2.25-.8 4.13-1.85 5.63-3.15l2.62 4.35c-.7.6-1.57 1.225-2.62 1.875-1.05.65-2.28 1.275-3.68 1.875-1.35.55-2.87 1-4.57 1.35-1.65.35-3.45.525-5.4.525-3.25 0-6.13-.45-8.63-1.35-2.45-.95-4.5-2.275-6.15-3.975-1.65-1.75-2.9-3.825-3.75-6.225-.85-2.45-1.27-5.15-1.27-8.1 0-3.15.42-5.95 1.27-8.4.9-2.45 2.18-4.5 3.83-6.15 1.65-1.65 3.65-2.9 6-3.75 2.35-.9 4.97-1.35 7.87-1.35 3.7 0 6.7.325 9 .975 2.35.65 4.33 1.375 5.93 2.175l-.08.225V368.4h-5.4v-7.125zm12.35-20.775h11.7v19.65h.37c1.55-1.75 3.35-3.1 5.4-4.05 2.05-1 4.6-1.5 7.65-1.5 2.4 0 4.48.25 6.23.75 1.8.5 3.25 1.375 4.35 2.625 1.15 1.25 2 2.975 2.55 5.175.55 2.15.82 4.9.82 8.25V393h-5.85v-20.475c0-2.15-.12-4.025-.37-5.625-.25-1.6-.75-2.925-1.5-3.975-.7-1.1-1.68-1.925-2.93-2.475-1.25-.55-2.85-.825-4.8-.825-1.35 0-2.67.25-3.97.75-1.3.45-2.5 1.1-3.6 1.95-1.05.8-1.98 1.8-2.78 3a11.241 11.241 0 00-1.57 3.825V393h-5.78v-47.475h-5.92V340.5zM102.6 448.95h16.2v-16.575h5.4v16.575h16.2v5.4h-16.2v16.575h-5.4V454.35h-16.2v-5.4zm125.491-12.45c0 1.25-.2 2.525-.6 3.825-.4 1.3-1 2.525-1.8 3.675-.8 1.1-1.825 2.075-3.075 2.925-1.25.85-2.725 1.5-4.425 1.95v.3c1.5.25 2.925.675 4.275 1.275 1.4.6 2.625 1.425 3.675 2.475 1.05 1.05 1.9 2.325 2.55 3.825.65 1.5.975 3.275.975 5.325 0 2.7-.575 5.05-1.725 7.05a14.04 14.04 0 01-4.425 4.8c-1.8 1.25-3.875 2.175-6.225 2.775-2.35.6-4.75.9-7.2.9h-3c-1.15 0-2.35-.05-3.6-.15-1.25-.05-2.5-.15-3.75-.3-1.25-.1-2.35-.275-3.3-.525V424.95c1.85-.3 4-.55 6.45-.75 2.45-.2 5.125-.3 8.025-.3 1.95 0 3.925.175 5.925.525 2.05.3 3.9.925 5.55 1.875 1.65.9 3 2.175 4.05 3.825 1.1 1.65 1.65 3.775 1.65 6.375zm-17.4 35.7c1.6 0 3.15-.2 4.65-.6 1.5-.4 2.825-1 3.975-1.8s2.05-1.8 2.7-3c.7-1.2 1.05-2.625 1.05-4.275 0-2.05-.425-3.7-1.275-4.95a8.279 8.279 0 00-3.225-2.925c-1.3-.7-2.775-1.175-4.425-1.425s-3.3-.375-4.95-.375h-6.525v18.825c.35.1.85.175 1.5.225.65.05 1.35.1 2.1.15.75.05 1.525.1 2.325.15h2.1zm-4.125-24.6c.85 0 1.875-.025 3.075-.075 1.2-.05 2.2-.125 3-.225 1.2-.4 2.325-.875 3.375-1.425 1.05-.6 1.975-1.3 2.775-2.1.85-.8 1.5-1.7 1.95-2.7.5-1 .75-2.1.75-3.3 0-1.65-.325-3.025-.975-4.125a6.94 6.94 0 00-2.475-2.625c-1.05-.65-2.25-1.1-3.6-1.35a22.606 22.606 0 00-4.125-.375c-1.65 0-3.175.05-4.575.15-1.35.05-2.375.15-3.075.3v17.85h3.9zm35.446-5.175c2.15-1.25 4.575-2.15 7.275-2.7 2.7-.55 5.35-.825 7.95-.825 2.55 0 4.625.4 6.225 1.2 1.65.8 2.925 1.85 3.825 3.15.95 1.25 1.575 2.7 1.875 4.35.35 1.6.525 3.225.525 4.875 0 1.9-.05 3.925-.15 6.075-.1 2.15-.175 4.3-.225 6.45 0 2.5.15 4.875.45 7.125h5.025V477h-9.975l-.675-5.625h-.375c-.3.45-.75 1.025-1.35 1.725-.6.7-1.4 1.4-2.4 2.1-.95.65-2.125 1.225-3.525 1.725s-3.05.75-4.95.75c-3.7 0-6.625-.95-8.775-2.85-2.15-1.9-3.225-4.5-3.225-7.8 0-2.55.55-4.675 1.65-6.375 1.15-1.7 2.775-3 4.875-3.9 2.1-.9 4.625-1.425 7.575-1.575 3-.15 6.35.05 10.05.6.25-2.3.275-4.2.075-5.7-.15-1.55-.55-2.775-1.2-3.675-.6-.9-1.475-1.525-2.625-1.875-1.1-.4-2.475-.6-4.125-.6-2.25 0-4.4.325-6.45.975-2.05.6-3.875 1.225-5.475 1.875l-1.875-4.35zm11.025 30.225c1.4 0 2.7-.225 3.9-.675 1.2-.45 2.25-1.025 3.15-1.725.9-.7 1.65-1.45 2.25-2.25.6-.85 1.05-1.65 1.35-2.4v-5.25c-2.6-.45-5-.675-7.2-.675s-4.1.25-5.7.75c-1.6.45-2.85 1.175-3.75 2.175-.9 1-1.35 2.3-1.35 3.9 0 1.65.55 3.1 1.65 4.35 1.15 1.2 3.05 1.8 5.7 1.8zm58.771-27.375c-1.15-.4-2.4-.725-3.75-.975-1.3-.3-2.6-.45-3.9-.45-4.9 0-8.55 1.15-10.95 3.45-2.4 2.3-3.6 5.95-3.6 10.95 0 2.2.35 4.175 1.05 5.925.7 1.7 1.7 3.15 3 4.35 1.3 1.2 2.85 2.125 4.65 2.775 1.85.65 3.875.975 6.075.975 2.35 0 4.625-.4 6.825-1.2 2.25-.8 4.125-1.85 5.625-3.15l2.625 4.35c-.7.6-1.575 1.225-2.625 1.875-1.05.65-2.275 1.275-3.675 1.875-1.35.55-2.875 1-4.575 1.35-1.65.35-3.45.525-5.4.525-3.25 0-6.125-.45-8.625-1.35-2.45-.95-4.5-2.275-6.15-3.975-1.65-1.75-2.9-3.825-3.75-6.225-.85-2.45-1.275-5.15-1.275-8.1 0-3.15.425-5.95 1.275-8.4.9-2.45 2.175-4.5 3.825-6.15 1.65-1.65 3.65-2.9 6-3.75 2.35-.9 4.975-1.35 7.875-1.35 3.7 0 6.7.325 9 .975 2.35.65 4.325 1.375 5.925 2.175l-.075.225V452.4h-5.4v-7.125zm13.846-20.775h12.15v31.05h4.125l14.775-16.05h7.05l-16.575 17.775 13.65 14.7h4.875V477h-7.725l-16.05-16.95h-4.125V477h-5.775v-47.475h-6.375V424.5zm82.845 47.775c-.9.8-1.975 1.55-3.225 2.25-1.2.7-2.525 1.3-3.975 1.8-1.45.5-2.975.875-4.575 1.125-1.55.3-3.125.45-4.725.45-3 0-5.65-.45-7.95-1.35-2.3-.95-4.225-2.275-5.775-3.975-1.55-1.75-2.725-3.825-3.525-6.225-.8-2.4-1.2-5.1-1.2-8.1 0-3.15.425-5.95 1.275-8.4.9-2.45 2.175-4.5 3.825-6.15 1.65-1.65 3.65-2.9 6-3.75 2.35-.9 4.975-1.35 7.875-1.35 2.1 0 4.175.275 6.225.825 2.05.55 3.85 1.6 5.4 3.15 1.6 1.5 2.825 3.6 3.675 6.3.85 2.65 1.15 6.1.9 10.35h-29.025c0 4.5 1.2 7.875 3.6 10.125 2.45 2.2 5.7 3.3 9.75 3.3 1.35 0 2.675-.15 3.975-.45 1.35-.35 2.625-.75 3.825-1.2 1.2-.45 2.25-.95 3.15-1.5.95-.55 1.675-1.05 2.175-1.5l2.325 4.275zm-15.825-28.725c-1.65 0-3.225.175-4.725.525-1.45.35-2.75.95-3.9 1.8-1.1.8-2.025 1.875-2.775 3.225-.7 1.3-1.15 2.925-1.35 4.875h23.325c-.25-3.3-1.325-5.85-3.225-7.65-1.85-1.85-4.3-2.775-7.35-2.775zm28.096 9.075c0-.45-.025-1.025-.075-1.725 0-.75-.025-1.5-.075-2.25-.05-.8-.125-1.575-.225-2.325-.05-.75-.125-1.4-.225-1.95h-5.025V439.5h10.05l.675 6.075h.375c.5-.85 1.15-1.675 1.95-2.475.85-.85 1.825-1.6 2.925-2.25 1.1-.7 2.325-1.25 3.675-1.65 1.35-.4 2.775-.6 4.275-.6 2.3 0 4.325.25 6.075.75 1.8.5 3.275 1.4 4.425 2.7 1.2 1.25 2.1 2.975 2.7 5.175.6 2.15.9 4.9.9 8.25V477h-5.85v-20.4c0-4.15-.675-7.275-2.025-9.375-1.35-2.1-3.8-3.15-7.35-3.15-1.3 0-2.575.275-3.825.825-1.2.5-2.3 1.175-3.3 2.025-1 .85-1.875 1.85-2.625 3-.75 1.1-1.3 2.275-1.65 3.525V477h-5.775v-24.375zm64.171-28.125h12.15v39.675c0 .45.025 1.025.075 1.725.05.65.1 1.35.15 2.1l.3 2.25c.1.7.2 1.325.3 1.875h5.025V477h-9.975l-.75-5.775h-.3c-1.1 1.9-2.75 3.5-4.95 4.8-2.15 1.25-4.65 1.875-7.5 1.875-5.65 0-9.825-1.575-12.525-4.725-2.65-3.2-3.975-8.15-3.975-14.85 0-3.15.45-5.925 1.35-8.325.9-2.45 2.175-4.475 3.825-6.075 1.7-1.65 3.725-2.9 6.075-3.75 2.35-.85 4.975-1.275 7.875-1.275 1.05 0 1.975.025 2.775.075.85.05 1.625.125 2.325.225.7.1 1.35.25 1.95.45.65.15 1.35.325 2.1.525v-10.65h-6.3V424.5zm-4.5 48.375c3.05 0 5.45-.775 7.2-2.325 1.75-1.6 2.95-3.975 3.6-7.125v-17.4c-1.1-.75-2.35-1.3-3.75-1.65-1.35-.35-3.15-.525-5.4-.525-4 0-7.15 1.175-9.45 3.525-2.3 2.3-3.45 5.95-3.45 10.95 0 2.05.175 3.975.525 5.775.4 1.75 1.025 3.275 1.875 4.575.9 1.3 2.075 2.325 3.525 3.075 1.45.75 3.225 1.125 5.325 1.125zm71.866-23.925h16.2v-16.575h5.4v16.575h16.2v5.4h-16.2v16.575h-5.4V454.35h-16.2v-5.4zm95.116-24.45h30.075v5.55h-23.85v17.925h22.35v5.55h-22.35V477h-6.225v-52.5zm41.146 52.5v-5.025h10.125v-27.45h-10.125V439.5h14.025l1.2 4.875h.375c1.7-1.55 3.6-2.875 5.7-3.975s4.6-1.65 7.5-1.65c1.7 0 3.05.325 4.05.975 1.05.65 1.85 1.6 2.4 2.85.6 1.25 1 2.775 1.2 4.575.2 1.75.3 3.75.3 6l-5.25.075c0-3.2-.325-5.55-.975-7.05-.6-1.5-1.725-2.25-3.375-2.25-1.55 0-2.95.225-4.2.675-1.25.45-2.35 1-3.3 1.65-.9.65-1.675 1.3-2.325 1.95-.65.65-1.125 1.2-1.425 1.65v22.125h14.4V477h-30.3zm44.296-18.75c0-6.05 1.575-10.825 4.725-14.325 3.15-3.55 7.65-5.325 13.5-5.325 3.15 0 5.85.525 8.1 1.575 2.3 1 4.2 2.375 5.7 4.125s2.6 3.825 3.3 6.225c.75 2.4 1.125 4.975 1.125 7.725 0 3-.4 5.725-1.2 8.175-.8 2.4-1.975 4.45-3.525 6.15-1.55 1.7-3.475 3.025-5.775 3.975-2.25.9-4.825 1.35-7.725 1.35-3.1 0-5.8-.5-8.1-1.5-2.3-1.05-4.2-2.45-5.7-4.2s-2.625-3.825-3.375-6.225c-.7-2.4-1.05-4.975-1.05-7.725zm6.225 0c0 1.75.2 3.5.6 5.25.45 1.75 1.15 3.325 2.1 4.725.95 1.4 2.175 2.525 3.675 3.375 1.55.85 3.425 1.275 5.625 1.275 4 0 7-1.225 9-3.675 2.05-2.5 3.075-6.15 3.075-10.95 0-1.8-.225-3.55-.675-5.25-.4-1.75-1.1-3.325-2.1-4.725-.95-1.4-2.2-2.525-3.75-3.375-1.5-.85-3.35-1.275-5.55-1.275-4 0-7 1.225-9 3.675-2 2.45-3 6.1-3 10.95zm41.446-5.625c0-.45-.025-1.025-.075-1.725 0-.75-.025-1.5-.075-2.25-.05-.8-.125-1.575-.225-2.325-.05-.75-.125-1.4-.225-1.95h-5.025V439.5h10.05l.675 6.075h.375c.5-.85 1.15-1.675 1.95-2.475.85-.85 1.825-1.6 2.925-2.25 1.1-.7 2.325-1.25 3.675-1.65 1.35-.4 2.775-.6 4.275-.6 2.3 0 4.325.25 6.075.75 1.8.5 3.275 1.4 4.425 2.7 1.2 1.25 2.1 2.975 2.7 5.175.6 2.15.9 4.9.9 8.25V477h-5.85v-20.4c0-4.15-.675-7.275-2.025-9.375-1.35-2.1-3.8-3.15-7.35-3.15-1.3 0-2.575.275-3.825.825-1.2.5-2.3 1.175-3.3 2.025-1 .85-1.875 1.85-2.625 3-.75 1.1-1.3 2.275-1.65 3.525V477h-5.775v-24.375zm40.32-13.125h8.925v-7.425l5.85-1.65v9.075h20.025v5.025h-20.025v17.7c0 3.65.875 6.35 2.625 8.1 1.8 1.75 4.35 2.625 7.65 2.625 2.25 0 4.2-.425 5.85-1.275 1.7-.85 3.225-1.775 4.575-2.775l1.95 4.425c-1.75 1.4-3.85 2.525-6.3 3.375a22.08 22.08 0 01-7.425 1.275c-2 0-3.9-.3-5.7-.9-1.75-.55-3.3-1.425-4.65-2.625-1.35-1.2-2.425-2.725-3.225-4.575-.8-1.9-1.2-4.15-1.2-6.75v-18.6h-8.925V439.5zm82.321 32.775c-.9.8-1.975 1.55-3.225 2.25-1.2.7-2.525 1.3-3.975 1.8-1.45.5-2.975.875-4.575 1.125-1.55.3-3.125.45-4.725.45-3 0-5.65-.45-7.95-1.35-2.3-.95-4.225-2.275-5.775-3.975-1.55-1.75-2.725-3.825-3.525-6.225-.8-2.4-1.2-5.1-1.2-8.1 0-3.15.425-5.95 1.275-8.4.9-2.45 2.175-4.5 3.825-6.15 1.65-1.65 3.65-2.9 6-3.75 2.35-.9 4.975-1.35 7.875-1.35 2.1 0 4.175.275 6.225.825 2.05.55 3.85 1.6 5.4 3.15 1.6 1.5 2.825 3.6 3.675 6.3.85 2.65 1.15 6.1.9 10.35h-29.025c0 4.5 1.2 7.875 3.6 10.125 2.45 2.2 5.7 3.3 9.75 3.3 1.35 0 2.675-.15 3.975-.45 1.35-.35 2.625-.75 3.825-1.2 1.2-.45 2.25-.95 3.15-1.5.95-.55 1.675-1.05 2.175-1.5l2.325 4.275zm-15.825-28.725c-1.65 0-3.225.175-4.725.525-1.45.35-2.75.95-3.9 1.8-1.1.8-2.025 1.875-2.775 3.225-.7 1.3-1.15 2.925-1.35 4.875h23.325c-.25-3.3-1.325-5.85-3.225-7.65-1.85-1.85-4.3-2.775-7.35-2.775zm28.096 9.075c0-.45-.025-1.025-.075-1.725 0-.75-.025-1.5-.075-2.25-.05-.8-.125-1.575-.225-2.325-.05-.75-.125-1.4-.225-1.95h-5.025V439.5h10.05l.675 6.075h.375c.5-.85 1.15-1.675 1.95-2.475.85-.85 1.825-1.6 2.925-2.25 1.1-.7 2.325-1.25 3.675-1.65 1.35-.4 2.775-.6 4.275-.6 2.3 0 4.325.25 6.075.75 1.8.5 3.275 1.4 4.425 2.7 1.2 1.25 2.1 2.975 2.7 5.175.6 2.15.9 4.9.9 8.25V477h-5.85v-20.4c0-4.15-.675-7.275-2.025-9.375-1.35-2.1-3.8-3.15-7.35-3.15-1.3 0-2.575.275-3.825.825-1.2.5-2.3 1.175-3.3 2.025-1 .85-1.875 1.85-2.625 3-.75 1.1-1.3 2.275-1.65 3.525V477h-5.775v-24.375zm64.17-28.125h12.15v39.675c0 .45.025 1.025.075 1.725.05.65.1 1.35.15 2.1l.3 2.25c.1.7.2 1.325.3 1.875h5.025V477h-9.975l-.75-5.775h-.3c-1.1 1.9-2.75 3.5-4.95 4.8-2.15 1.25-4.65 1.875-7.5 1.875-5.65 0-9.825-1.575-12.525-4.725-2.65-3.2-3.975-8.15-3.975-14.85 0-3.15.45-5.925 1.35-8.325.9-2.45 2.175-4.475 3.825-6.075 1.7-1.65 3.725-2.9 6.075-3.75 2.35-.85 4.975-1.275 7.875-1.275 1.05 0 1.975.025 2.775.075.85.05 1.625.125 2.325.225.7.1 1.35.25 1.95.45.65.15 1.35.325 2.1.525v-10.65h-6.3V424.5zm-4.5 48.375c3.05 0 5.45-.775 7.2-2.325 1.75-1.6 2.95-3.975 3.6-7.125v-17.4c-1.1-.75-2.35-1.3-3.75-1.65-1.35-.35-3.15-.525-5.4-.525-4 0-7.15 1.175-9.45 3.525-2.3 2.3-3.45 5.95-3.45 10.95 0 2.05.175 3.975.525 5.775.4 1.75 1.025 3.275 1.875 4.575.9 1.3 2.075 2.325 3.525 3.075 1.45.75 3.225 1.125 5.325 1.125zm71.862-23.925h16.2v-16.575h5.4v16.575h16.2v5.4h-16.2v16.575h-5.4V454.35h-16.2v-5.4zm89.95 1.8c0-8.7 1.52-15.4 4.57-20.1 3.1-4.7 7.85-7.05 14.25-7.05 3.5 0 6.45.65 8.85 1.95 2.45 1.3 4.43 3.15 5.93 5.55 1.5 2.35 2.57 5.2 3.22 8.55.65 3.3.98 7 .98 11.1 0 8.05-1.28 14.375-3.83 18.975-2.55 4.55-6.55 7.2-12 7.95.45 1.75 1.28 3.05 2.48 3.9 1.25.9 2.82 1.35 4.72 1.35 2.15 0 4.08-.55 5.78-1.65l1.65 4.575c-.7.8-1.8 1.425-3.3 1.875-1.45.5-2.98.75-4.58.75-1.35 0-2.75-.2-4.2-.6-1.4-.35-2.72-.95-3.97-1.8-1.25-.85-2.35-1.975-3.3-3.375-.9-1.35-1.5-3.05-1.8-5.1-2.85-.4-5.25-1.3-7.2-2.7-1.95-1.45-3.55-3.325-4.8-5.625-1.2-2.35-2.08-5.075-2.63-8.175-.55-3.15-.82-6.6-.82-10.35zm6.6 0c0 2.9.17 5.65.52 8.25.4 2.6 1.08 4.9 2.03 6.9.95 1.95 2.2 3.525 3.75 4.725 1.55 1.15 3.52 1.725 5.92 1.725 4.3 0 7.43-1.75 9.38-5.25 2-3.5 3-8.95 3-16.35 0-2.85-.2-5.575-.6-8.175-.35-2.65-1-4.95-1.95-6.9-.95-2-2.23-3.575-3.83-4.725-1.6-1.2-3.6-1.8-6-1.8-4.25 0-7.35 1.775-9.3 5.325-1.95 3.5-2.92 8.925-2.92 16.275zm67.09 11.7h-20.17l-4.8 14.55h-6.15l17.55-52.5h7.35l17.7 52.5h-6.53l-4.95-14.55zm-18.22-5.4h16.5l-7.73-24.675h-.9l-7.87 24.675zM104.1 526.725h34.8v5.4h-34.8v-5.4zm0 12.375h34.8v5.4h-34.8v-5.4zm92.341-30.075c1.9-.45 3.95-.75 6.15-.9 2.2-.15 4.375-.225 6.525-.225 2.3 0 4.625.225 6.975.675 2.4.45 4.575 1.275 6.525 2.475 1.95 1.2 3.525 2.85 4.725 4.95 1.25 2.1 1.875 4.775 1.875 8.025 0 3.2-.575 5.9-1.725 8.1-1.15 2.2-2.675 4-4.575 5.4-1.9 1.35-4.075 2.325-6.525 2.925-2.45.6-4.975.9-7.575.9h-3.075l-1.8-.15c-.6-.05-1.025-.1-1.275-.15V561h-6.225v-51.975zm12.825 4.275c-1.3 0-2.55.025-3.75.075-1.2.05-2.15.175-2.85.375v21.75c.25.1.65.175 1.2.225.55 0 1.125.025 1.725.075h2.925c1.7 0 3.375-.15 5.025-.45 1.7-.35 3.225-.95 4.575-1.8 1.35-.85 2.425-2.05 3.225-3.6.85-1.55 1.275-3.525 1.275-5.925 0-2.05-.4-3.75-1.2-5.1-.75-1.4-1.775-2.5-3.075-3.3-1.25-.85-2.675-1.45-4.275-1.8-1.6-.35-3.2-.525-4.8-.525zm64.321 42.975c-.9.8-1.975 1.55-3.225 2.25-1.2.7-2.525 1.3-3.975 1.8-1.45.5-2.975.875-4.575 1.125-1.55.3-3.125.45-4.725.45-3 0-5.65-.45-7.95-1.35-2.3-.95-4.225-2.275-5.775-3.975-1.55-1.75-2.725-3.825-3.525-6.225-.8-2.4-1.2-5.1-1.2-8.1 0-3.15.425-5.95 1.275-8.4.9-2.45 2.175-4.5 3.825-6.15 1.65-1.65 3.65-2.9 6-3.75 2.35-.9 4.975-1.35 7.875-1.35 2.1 0 4.175.275 6.225.825 2.05.55 3.85 1.6 5.4 3.15 1.6 1.5 2.825 3.6 3.675 6.3.85 2.65 1.15 6.1.9 10.35h-29.025c0 4.5 1.2 7.875 3.6 10.125 2.45 2.2 5.7 3.3 9.75 3.3 1.35 0 2.675-.15 3.975-.45 1.35-.35 2.625-.75 3.825-1.2 1.2-.45 2.25-.95 3.15-1.5.95-.55 1.675-1.05 2.175-1.5l2.325 4.275zm-15.825-28.725c-1.65 0-3.225.175-4.725.525-1.45.35-2.75.95-3.9 1.8-1.1.8-2.025 1.875-2.775 3.225-.7 1.3-1.15 2.925-1.35 4.875h23.325c-.25-3.3-1.325-5.85-3.225-7.65-1.85-1.85-4.3-2.775-7.35-2.775zm29.146-.525l-.075-.225c.85-.5 1.75-.975 2.7-1.425 1-.5 2.1-.925 3.3-1.275 1.25-.4 2.65-.725 4.2-.975 1.55-.25 3.325-.375 5.325-.375 2.05 0 3.95.225 5.7.675 1.75.4 3.275 1 4.575 1.8 1.3.8 2.3 1.8 3 3 .75 1.15 1.125 2.475 1.125 3.975 0 .8-.175 1.65-.525 2.55-.3.85-.775 1.675-1.425 2.475s-1.425 1.525-2.325 2.175c-.9.65-1.925 1.15-3.075 1.5v.3c3.3.55 5.6 1.6 6.9 3.15 1.35 1.55 2.025 3.6 2.025 6.15 0 1.6-.375 3.075-1.125 4.425-.75 1.35-1.875 2.525-3.375 3.525-1.45 1-3.275 1.8-5.475 2.4-2.15.55-4.675.825-7.575.825-2.15 0-4.1-.2-5.85-.6-1.75-.4-3.3-.9-4.65-1.5-1.3-.6-2.425-1.25-3.375-1.95-.9-.7-1.6-1.35-2.1-1.95l3-4.725c.55.6 1.225 1.25 2.025 1.95.8.65 1.775 1.25 2.925 1.8 1.2.55 2.55 1.025 4.05 1.425 1.55.35 3.325.525 5.325.525 1.4 0 2.7-.125 3.9-.375 1.25-.3 2.325-.7 3.225-1.2.95-.55 1.7-1.225 2.25-2.025.55-.85.825-1.825.825-2.925 0-1.9-.875-3.35-2.625-4.35-1.7-1-4.525-1.5-8.475-1.5h-4.275V539.4h5.325c1 0 2-.15 3-.45 1-.35 1.9-.775 2.7-1.275.8-.55 1.45-1.175 1.95-1.875.5-.75.75-1.525.75-2.325 0-1-.25-1.85-.75-2.55-.5-.75-1.2-1.35-2.1-1.8-.85-.45-1.875-.775-3.075-.975a17.273 17.273 0 00-3.675-.375c-2 0-3.75.2-5.25.6-1.5.35-2.775.8-3.825 1.35v6.225h-5.1v-8.925zm60.271 28.2h2.85l9.3-31.725h6.075l-10.425 33.675a162.73 162.73 0 00-1.725 5.925c-.55 2.25-1.35 4.35-2.4 6.3a15.036 15.036 0 01-4.275 4.95c-1.8 1.35-4.15 2.025-7.05 2.025-.65 0-1.35-.075-2.1-.225-.7-.15-1.4-.35-2.1-.6-.7-.2-1.35-.45-1.95-.75-.6-.3-1.05-.6-1.35-.9l2.1-5.4c.3.25.7.5 1.2.75.55.25 1.125.45 1.725.6.65.2 1.275.35 1.875.45.6.15 1.1.225 1.5.225 3.75 0 6.3-3.175 7.65-9.525h-5.025l-15.75-37.5h6.75l13.125 31.725zm53.595-26.625h-12.975c-.2 4.55-.45 8.825-.75 12.825-.3 3.95-.875 7.4-1.725 10.35-.8 2.95-1.975 5.275-3.525 6.975-1.5 1.7-3.55 2.55-6.15 2.55-1 0-1.725-.05-2.175-.15-.45-.1-1-.275-1.65-.525l.975-5.55c.95.25 1.825.375 2.625.375.85 0 1.6-.3 2.25-.9.65-.6 1.225-1.55 1.725-2.85.55-1.35 1-3.225 1.35-5.625.4-2.45.725-5.5.975-9.15.25-3.7.45-8.175.6-13.425h24.3V561h-5.85v-32.4zm27.196 27.225c.55.1 1.2.175 1.95.225.8.05 1.6.125 2.4.225.8.05 1.575.1 2.325.15h1.8c3.75 0 6.5-.65 8.25-1.95 1.75-1.35 2.625-3.1 2.625-5.25 0-1.9-.85-3.525-2.55-4.875-1.7-1.35-4.375-2.025-8.025-2.025-1.65 0-3.275.025-4.875.075-1.55.05-2.85.2-3.9.45v12.975zm0-17.85c1.35-.2 2.775-.325 4.275-.375 1.55-.1 3.325-.15 5.325-.15 2.9 0 5.35.3 7.35.9 2.05.55 3.7 1.325 4.95 2.325 1.3 1 2.225 2.175 2.775 3.525.6 1.3.9 2.725.9 4.275 0 4.55-1.55 7.85-4.65 9.9-3.05 2.05-7.725 3.075-14.025 3.075-.8 0-1.75-.025-2.85-.075-1.05-.05-2.15-.125-3.3-.225-1.1-.05-2.225-.1-3.375-.15-1.15-.1-2.2-.2-3.15-.3v-37.2h5.775v14.475zm34.696-14.475h37.2v14.025h-5.1V528.6h-10.575v27.375h9.075V561h-24.3v-5.025h9.375V528.6h-10.575v8.925h-5.1V523.5zm49.17 2.925c2.15-1.25 4.575-2.15 7.275-2.7 2.7-.55 5.35-.825 7.95-.825 2.55 0 4.625.4 6.225 1.2 1.65.8 2.925 1.85 3.825 3.15.95 1.25 1.575 2.7 1.875 4.35.35 1.6.525 3.225.525 4.875 0 1.9-.05 3.925-.15 6.075-.1 2.15-.175 4.3-.225 6.45 0 2.5.15 4.875.45 7.125h5.025V561h-9.975l-.675-5.625h-.375c-.3.45-.75 1.025-1.35 1.725-.6.7-1.4 1.4-2.4 2.1-.95.65-2.125 1.225-3.525 1.725s-3.05.75-4.95.75c-3.7 0-6.625-.95-8.775-2.85-2.15-1.9-3.225-4.5-3.225-7.8 0-2.55.55-4.675 1.65-6.375 1.15-1.7 2.775-3 4.875-3.9 2.1-.9 4.625-1.425 7.575-1.575 3-.15 6.35.05 10.05.6.25-2.3.275-4.2.075-5.7-.15-1.55-.55-2.775-1.2-3.675-.6-.9-1.475-1.525-2.625-1.875-1.1-.4-2.475-.6-4.125-.6-2.25 0-4.4.325-6.45.975-2.05.6-3.875 1.225-5.475 1.875l-1.875-4.35zm11.025 30.225c1.4 0 2.7-.225 3.9-.675 1.2-.45 2.25-1.025 3.15-1.725.9-.7 1.65-1.45 2.25-2.25.6-.85 1.05-1.65 1.35-2.4v-5.25c-2.6-.45-5-.675-7.2-.675s-4.1.25-5.7.75c-1.6.45-2.85 1.175-3.75 2.175-.9 1-1.35 2.3-1.35 3.9 0 1.65.55 3.1 1.65 4.35 1.15 1.2 3.05 1.8 5.7 1.8zm29.746-33.15h37.2v14.025h-5.1V528.6h-10.575v27.375h9.075V561h-24.3v-5.025h9.375V528.6h-10.575v8.925h-5.1V523.5z" fill="url(#paint0_linear_276_2457)"/><defs><linearGradient id="paint0_linear_276_2457" x1="706.5" y1="327" x2="706.5" y2="579" gradientUnits="userSpaceOnUse"><stop stop-color="#00C2FF"/><stop offset="1" stop-color="#FF29C3"/></linearGradient></defs></svg>