<svg width="100" height="800" fill="none" xmlns="http://www.w3.org/2000/svg"><path d="M51.047 17V5.625h-.117l-4.305 1.656v1.32l2.977-1.132V17h1.445zm2.289 31v-1.18h-5.711l3.055-3.312c.286-.313.557-.625.812-.938.26-.317.49-.638.688-.96.192-.324.346-.65.46-.977a3.222 3.222 0 00-.07-2.266 2.818 2.818 0 00-.68-1 3.096 3.096 0 00-1.093-.656 4.065 4.065 0 00-1.445-.242c-.584 0-1.105.093-1.563.281-.453.188-.836.44-1.148.758-.318.317-.56.69-.727 1.117-.167.422-.25.872-.25 1.352h1.453c0-.355.044-.675.133-.961a1.97 1.97 0 01.422-.735c.182-.198.411-.351.687-.46a2.73 2.73 0 01.993-.165c.312 0 .59.055.836.164a1.9 1.9 0 01.64.43c.172.182.302.398.39.648.094.245.141.508.141.79a2.6 2.6 0 01-.086.671c-.057.214-.153.44-.289.68a6.13 6.13 0 01-.539.797c-.224.286-.502.614-.836.984l-3.726 4.14V48h7.453zm-5.289 24.617v1.172h1.031c.36 0 .688.042.984.125.303.083.56.211.774.383.208.172.37.388.484.648.12.256.18.56.18.914 0 .36-.052.672-.156.938-.1.26-.242.479-.43.656-.187.177-.414.31-.68.399a2.969 2.969 0 01-.89.125 2.73 2.73 0 01-.899-.141 1.953 1.953 0 01-.68-.398 1.783 1.783 0 01-.437-.626A2.15 2.15 0 0147.18 76h-1.446c0 .5.094.945.282 1.336.192.39.45.721.773.992s.703.477 1.14.617c.443.14.915.211 1.415.211.51 0 .984-.073 1.422-.219.442-.15.825-.37 1.148-.656a2.92 2.92 0 00.758-1.039c.182-.411.273-.883.273-1.414 0-.26-.03-.523-.093-.789a2.439 2.439 0 00-.305-.758 2.517 2.517 0 00-.602-.648 2.945 2.945 0 00-.922-.469 2.884 2.884 0 001.336-1.117 2.577 2.577 0 00.414-1.36c0-.525-.083-.99-.25-1.39a2.745 2.745 0 00-.703-1.008 2.956 2.956 0 00-1.086-.61 4.403 4.403 0 00-1.398-.21c-.526 0-1.005.083-1.438.25a3.383 3.383 0 00-1.101.664 3.003 3.003 0 00-.969 2.227h1.453c0-.297.05-.566.149-.805a1.766 1.766 0 011.062-1.008c.255-.094.537-.14.844-.14.318 0 .599.04.844.124.25.078.458.198.625.36.172.166.302.377.39.632.089.25.133.545.133.883 0 .287-.05.55-.148.79-.1.239-.242.445-.43.617-.193.171-.43.307-.71.406a2.845 2.845 0 01-.962.148h-1.031zm4.172 33.563v-7.555h-1.54l-5.093 7.883v.851h5.187V110h1.446v-2.641h1.586v-1.179h-1.586zm-5.032 0l3.352-5.196.234-.437v5.633h-3.586zm-.312 29.117l1.156.297a5.77 5.77 0 01.375-.305 2.07 2.07 0 01.867-.367c.178-.037.386-.055.625-.055.365 0 .688.065.97.195.28.131.517.308.71.532.193.229.339.497.438.804.104.308.156.638.156.993 0 .39-.047.744-.14 1.062a2.279 2.279 0 01-.4.813 1.859 1.859 0 01-.671.531c-.266.12-.57.18-.914.18-.61 0-1.11-.167-1.5-.5-.386-.334-.622-.823-.711-1.469H46.46c.052.526.18.987.383 1.383.208.395.474.724.797.984.317.26.682.456 1.093.586.412.13.85.195 1.313.195.604 0 1.13-.094 1.578-.281.448-.193.82-.458 1.117-.797.292-.333.51-.732.656-1.195a5 5 0 00.22-1.508c0-.573-.079-1.094-.235-1.563a3.478 3.478 0 00-.672-1.203 3.018 3.018 0 00-1.063-.765 3.482 3.482 0 00-1.414-.274 3.6 3.6 0 00-1.086.149c-.312.099-.58.213-.804.343l.32-3.031h4.617v-1.406h-5.836l-.57 5.672zm4.813 25.32h-.126c-.812 0-1.539.115-2.18.344a4.26 4.26 0 00-1.632 1.008 4.908 4.908 0 00-1.313 2.351 11.742 11.742 0 00-.335 2.797v.68c0 .552.083 1.104.25 1.656.166.547.419 1.026.757 1.438.302.375.675.679 1.118.914.442.234.955.351 1.539.351.578 0 1.086-.101 1.523-.304a3.136 3.136 0 001.11-.836 3.45 3.45 0 00.663-1.227c.152-.469.227-.969.227-1.5 0-.463-.062-.919-.187-1.367a3.593 3.593 0 00-.586-1.203 2.951 2.951 0 00-1.016-.852c-.411-.219-.901-.328-1.469-.328-.26 0-.51.031-.75.094a3.242 3.242 0 00-.656.234 3.326 3.326 0 00-.578.367 2.942 2.942 0 00-.469.446 5.4 5.4 0 01.297-1.461c.172-.474.422-.883.75-1.227a3.329 3.329 0 011.188-.781c.479-.198 1.062-.297 1.75-.297h.124v-1.297zm-1.891 5.125c.349 0 .654.073.914.219.26.146.477.341.648.586.172.245.3.526.383.844.084.312.125.635.125.968 0 .375-.047.724-.14 1.047a2.371 2.371 0 01-.399.821 1.97 1.97 0 01-.664.539c-.26.13-.56.195-.898.195-.292 0-.57-.068-.836-.203a2.157 2.157 0 01-.703-.61 3.107 3.107 0 01-.485-.976 4.559 4.559 0 01-.18-1.336v-.484c.089-.24.209-.459.36-.657a2.37 2.37 0 01.523-.507 2.52 2.52 0 01.64-.329 2.2 2.2 0 01.712-.117zm3.766 26.696v-.813h-7.688v1.266h6.156L47.336 203h1.516l4.71-10.562zm-.203 33.156a3.23 3.23 0 00-.258-1.321 2.79 2.79 0 00-.711-.984 3.119 3.119 0 00-1.07-.609 4.095 4.095 0 00-1.337-.211c-.484 0-.932.07-1.343.211-.407.14-.756.343-1.047.609a2.753 2.753 0 00-.696.984c-.166.386-.25.826-.25 1.321a2.73 2.73 0 00.446 1.508c.14.218.312.416.515.593a3.4 3.4 0 00.68.446 3.413 3.413 0 00-.789.468 3.162 3.162 0 00-.602.633c-.166.24-.294.503-.382.789a2.978 2.978 0 00-.133.899c0 .521.094.981.281 1.382.188.402.445.737.773 1.008.323.276.704.485 1.141.625.443.141.92.211 1.43.211.5 0 .969-.07 1.406-.211.438-.146.82-.356 1.148-.633a2.88 2.88 0 00.766-1.007c.193-.401.29-.86.29-1.375 0-.318-.048-.618-.141-.899a2.88 2.88 0 00-.383-.781 2.948 2.948 0 00-.617-.633 3.416 3.416 0 00-.79-.469c.167-.083.323-.177.47-.281.145-.104.278-.216.398-.336a2.743 2.743 0 00.804-1.937zm-1.188 5.304c0 .329-.055.623-.164.883-.104.255-.25.472-.438.649a1.977 1.977 0 01-.687.406 2.607 2.607 0 01-.875.141 2.75 2.75 0 01-.906-.141 1.896 1.896 0 01-.68-.406 1.832 1.832 0 01-.438-.649 2.466 2.466 0 01-.148-.883c0-.317.05-.609.148-.875.105-.265.25-.494.438-.687.187-.188.414-.333.68-.438a2.42 2.42 0 01.89-.156c.318 0 .61.052.875.156.271.105.503.25.696.438.192.193.34.422.445.687.11.266.164.558.164.875zm-.266-5.281c0 .292-.047.557-.14.797a1.739 1.739 0 01-1 1.008c-.235.088-.49.133-.766.133-.281 0-.54-.045-.773-.133a1.731 1.731 0 01-.594-.399 1.706 1.706 0 01-.399-.601 2.31 2.31 0 01-.132-.805c0-.297.044-.565.132-.805.094-.244.224-.453.391-.624.167-.172.365-.303.594-.391a2 2 0 01.765-.141c.282 0 .54.05.774.149.234.093.437.226.61.398.166.177.296.386.39.625.099.24.148.503.148.789zm-3.992 38.102h-.148v1.289h.148c.938 0 1.732-.128 2.383-.383.656-.26 1.17-.599 1.539-1.016a5.057 5.057 0 001.203-2.359c.188-.891.281-1.776.281-2.656v-.524c0-.619-.086-1.239-.258-1.859-.171-.625-.43-1.146-.773-1.563a3.246 3.246 0 00-1.086-.851c-.427-.219-.932-.328-1.516-.328-.583 0-1.096.107-1.539.32-.437.208-.802.49-1.093.844a3.683 3.683 0 00-.672 1.258 5.126 5.126 0 00-.219 1.515c0 .459.063.914.188 1.367.125.454.32.86.586 1.219.265.36.601.651 1.007.875.412.219.899.328 1.461.328a3.1 3.1 0 001.484-.336 2.89 2.89 0 00.547-.359c.162-.141.305-.289.43-.445v.015a6.472 6.472 0 01-.226 1.391c-.125.448-.368.867-.727 1.258-.297.317-.69.565-1.18.742-.484.172-1.09.258-1.82.258zM49.641 260a1.79 1.79 0 01-.914-.227 2.015 2.015 0 01-.633-.609c-.172-.25-.3-.534-.383-.852a3.919 3.919 0 01-.125-.984c0-.375.047-.724.14-1.047a2.53 2.53 0 01.415-.851 1.91 1.91 0 01.656-.555c.26-.135.56-.203.898-.203.297 0 .576.073.836.219.266.145.5.354.703.625.198.276.355.612.47 1.007a4.7 4.7 0 01.179 1.352v.469a2.506 2.506 0 01-.367.672 2.684 2.684 0 01-.516.515 2.394 2.394 0 01-.648.352c-.23.078-.467.117-.711.117zm-3.594 36v-11.375h-.117l-4.305 1.656v1.321l2.977-1.133V296h1.445zm12.062-4.352v-2.664c0-.724-.083-1.364-.25-1.922-.166-.562-.406-1.036-.718-1.421a3.055 3.055 0 00-1.164-.875c-.454-.204-.972-.305-1.555-.305-.578 0-1.096.101-1.555.305a3.003 3.003 0 00-1.148.875c-.318.385-.56.859-.727 1.421-.166.558-.25 1.198-.25 1.922v2.664c0 .724.084 1.368.25 1.93.167.557.409 1.026.727 1.406.317.391.706.685 1.164.883.458.193.976.289 1.554.289.584 0 1.102-.099 1.555-.297a3.004 3.004 0 001.149-.875c.312-.38.552-.849.718-1.406.167-.562.25-1.206.25-1.93zm-5.914-.289v-2.695c0-.531.052-.997.157-1.398.109-.407.273-.737.492-.993.182-.203.403-.356.664-.461.265-.109.57-.164.914-.164.338 0 .635.05.89.149.26.099.48.247.657.445.182.193.325.435.43.727.109.286.184.617.226.992l-4.43 3.398zm4.461.594c0 .557-.057 1.042-.172 1.453-.109.412-.284.745-.523 1a1.74 1.74 0 01-.648.43 2.407 2.407 0 01-.876.148 2.53 2.53 0 01-.843-.132 1.78 1.78 0 01-.64-.407 2.104 2.104 0 01-.47-.711 3.896 3.896 0 01-.25-1.007l4.422-3.383v2.609zM46.047 327v-11.375h-.117l-4.305 1.656v1.321l2.977-1.133V327h1.445zm9.61 0v-11.375h-.118l-4.305 1.656v1.321l2.977-1.133V327h1.445zm-9.61 31v-11.375h-.117l-4.305 1.656v1.321l2.977-1.133V358h1.445zm11.898 0v-1.18h-5.71l3.054-3.312c.286-.313.557-.625.813-.938.26-.317.49-.638.687-.961.193-.323.346-.648.461-.976a3.227 3.227 0 00-.07-2.266 2.822 2.822 0 00-.68-1 3.097 3.097 0 00-1.094-.656 4.051 4.051 0 00-1.445-.242c-.583 0-1.104.093-1.563.281-.453.188-.836.44-1.148.758-.318.318-.56.69-.727 1.117-.166.422-.25.872-.25 1.352h1.454c0-.355.044-.675.132-.961.094-.287.235-.532.422-.735.183-.198.412-.351.688-.461.281-.109.612-.164.992-.164.312 0 .591.055.836.164.25.104.463.248.64.43.172.182.303.398.391.648.094.245.14.508.14.79 0 .229-.028.453-.085.671-.058.214-.154.44-.29.68-.135.245-.314.51-.538.797a18.84 18.84 0 01-.836.984l-3.727 4.141V358h7.453zm-11.898 31v-11.375h-.117l-4.305 1.656v1.321l2.977-1.133V389h1.445zm6.61-6.383v1.172h1.03c.36 0 .688.042.985.125a2.1 2.1 0 01.773.383c.209.172.37.388.485.648.12.256.18.56.18.914 0 .36-.053.672-.157.938-.099.26-.242.479-.43.656-.187.177-.414.31-.68.399a2.98 2.98 0 01-.89.125 2.72 2.72 0 01-.898-.141 1.971 1.971 0 01-.68-.398 1.786 1.786 0 01-.438-.626 2.142 2.142 0 01-.148-.812h-1.445c0 .5.093.945.281 1.336.193.391.45.721.773.992s.704.477 1.141.617c.443.141.914.211 1.414.211.51 0 .984-.073 1.422-.218a3.33 3.33 0 001.148-.657 2.92 2.92 0 00.758-1.039c.183-.411.274-.883.274-1.414 0-.26-.032-.523-.094-.789a2.438 2.438 0 00-.305-.758 2.526 2.526 0 00-.601-.648 2.943 2.943 0 00-.922-.469 2.897 2.897 0 001.336-1.117 2.573 2.573 0 00.414-1.359c0-.527-.084-.99-.25-1.391a2.75 2.75 0 00-.703-1.008 2.948 2.948 0 00-1.086-.609 4.392 4.392 0 00-1.399-.211 3.96 3.96 0 00-1.437.25 3.379 3.379 0 00-1.102.664 2.998 2.998 0 00-.969 2.226h1.454c0-.297.05-.565.148-.804.099-.24.24-.446.422-.617.177-.172.39-.303.64-.391a2.43 2.43 0 01.844-.141c.318 0 .6.042.844.125.25.078.458.198.625.36.172.166.302.377.39.632.09.25.133.545.133.883 0 .287-.049.55-.148.789-.099.24-.242.446-.43.617-.192.172-.43.308-.71.407a2.842 2.842 0 01-.962.148h-1.03zM46.047 420v-11.375h-.117l-4.305 1.656v1.321l2.977-1.133V420h1.445zm10.781-3.82v-7.555H55.29l-5.094 7.883v.851h5.188V420h1.445v-2.641h1.586v-1.179h-1.586zm-5.031 0l3.351-5.196.235-.437v5.633h-3.586zM46.047 451v-11.375h-.117l-4.305 1.656v1.321l2.977-1.133V451h1.445zm5.437-5.703l1.157.297c.13-.115.255-.216.375-.305a2.068 2.068 0 01.867-.367c.177-.037.385-.055.625-.055.364 0 .687.065.969.195.28.131.518.308.71.532.193.229.339.497.438.804.104.308.156.638.156.993 0 .39-.047.744-.14 1.062a2.279 2.279 0 01-.399.813 1.86 1.86 0 01-.672.531c-.265.12-.57.18-.914.18-.61 0-1.11-.167-1.5-.5-.385-.334-.622-.823-.71-1.469H51.07c.052.526.18.987.383 1.383.208.395.474.724.797.984.318.26.682.456 1.094.586.411.13.849.195 1.312.195.604 0 1.13-.094 1.578-.281.448-.193.82-.458 1.118-.797a3.3 3.3 0 00.656-1.195c.146-.464.219-.966.219-1.508 0-.573-.079-1.094-.235-1.563a3.48 3.48 0 00-.672-1.203 3.019 3.019 0 00-1.062-.765 3.482 3.482 0 00-1.414-.274 3.6 3.6 0 00-1.086.149c-.313.099-.58.213-.805.343l.32-3.031h4.618v-1.406h-5.836l-.57 5.672zM46.047 482v-11.375h-.117l-4.305 1.656v1.321l2.977-1.133V482h1.445zm10.25-11.383h-.125c-.813 0-1.54.115-2.18.344a4.26 4.26 0 00-1.633 1.008 4.906 4.906 0 00-1.312 2.351 11.742 11.742 0 00-.336 2.797v.68c0 .552.083 1.104.25 1.656a4.15 4.15 0 00.758 1.438 3.55 3.55 0 001.117.914c.443.234.956.351 1.539.351.578 0 1.086-.101 1.523-.304a3.138 3.138 0 001.11-.836 3.45 3.45 0 00.664-1.227c.15-.469.226-.969.226-1.5 0-.463-.062-.919-.187-1.367a3.593 3.593 0 00-.586-1.203 2.952 2.952 0 00-1.016-.852c-.411-.219-.9-.328-1.468-.328-.26 0-.51.031-.75.094a3.24 3.24 0 00-.657.234 3.323 3.323 0 00-.578.367 2.945 2.945 0 00-.468.446 5.4 5.4 0 01.296-1.461c.172-.474.422-.883.75-1.227a3.329 3.329 0 011.188-.781c.479-.198 1.062-.297 1.75-.297h.125v-1.297zm-1.89 5.125c.348 0 .653.073.913.219.26.146.477.341.649.586.172.245.3.526.383.844.083.312.125.635.125.968 0 .375-.047.724-.141 1.047a2.37 2.37 0 01-.398.821 1.969 1.969 0 01-.665.539c-.26.13-.56.195-.898.195-.292 0-.57-.068-.836-.203a2.158 2.158 0 01-.703-.61 3.11 3.11 0 01-.484-.976 4.559 4.559 0 01-.18-1.336v-.484a2.466 2.466 0 011.523-1.493c.23-.078.466-.117.711-.117zM46.047 513v-11.375h-.117l-4.305 1.656v1.321l2.977-1.133V513h1.445zm12.125-10.562v-.813h-7.688v1.266h6.157L51.945 513h1.516l4.71-10.562zM46.047 544v-11.375h-.117l-4.305 1.656v1.321l2.977-1.133V544h1.445zm11.922-8.406c0-.495-.086-.935-.258-1.321a2.789 2.789 0 00-.711-.984 3.12 3.12 0 00-1.07-.609 4.095 4.095 0 00-1.336-.211c-.485 0-.933.07-1.344.211-.406.14-.755.343-1.047.609a2.753 2.753 0 00-.695.984c-.167.386-.25.826-.25 1.321a2.73 2.73 0 00.445 1.508c.14.218.313.416.516.593.203.172.43.321.68.446a3.415 3.415 0 00-.79.468 3.162 3.162 0 00-.601.633c-.167.24-.294.503-.383.789a2.978 2.978 0 00-.133.899c0 .521.094.981.281 1.382.188.402.446.737.774 1.008.323.276.703.485 1.14.625.443.141.92.211 1.43.211.5 0 .969-.07 1.406-.211.438-.146.82-.356 1.149-.633.323-.27.578-.606.766-1.007.192-.401.289-.86.289-1.375 0-.318-.047-.618-.141-.899a2.873 2.873 0 00-.383-.781 2.945 2.945 0 00-.617-.633 3.416 3.416 0 00-.79-.469c.168-.083.324-.177.47-.281.145-.104.278-.216.398-.336a2.743 2.743 0 00.805-1.937zm-1.188 5.304c0 .329-.054.623-.164.883-.104.255-.25.472-.437.649a1.977 1.977 0 01-.688.406 2.607 2.607 0 01-.875.141c-.333 0-.635-.047-.906-.141a1.898 1.898 0 01-.68-.406 1.833 1.833 0 01-.437-.649 2.466 2.466 0 01-.149-.883c0-.317.05-.609.149-.875a2.05 2.05 0 01.437-.687c.188-.188.414-.333.68-.438.266-.104.562-.156.89-.156.318 0 .61.052.876.156.27.105.502.25.695.438.193.193.341.422.445.687.11.266.164.558.164.875zm-.265-5.281c0 .292-.047.557-.141.797a1.742 1.742 0 01-1 1.008c-.234.088-.49.133-.766.133-.28 0-.539-.045-.773-.133a1.732 1.732 0 01-.594-.399 1.706 1.706 0 01-.398-.601 2.31 2.31 0 01-.133-.805 2.3 2.3 0 01.133-.805c.093-.244.224-.453.39-.624.167-.172.365-.303.594-.391a2 2 0 01.766-.141c.281 0 .539.05.773.149.235.093.438.226.61.398.166.177.296.386.39.625.1.24.149.503.149.789zM46.047 575v-11.375h-.117l-4.305 1.656v1.321l2.977-1.133V575h1.445zm6.476-1.281h-.148v1.289h.148c.938 0 1.732-.128 2.383-.383.657-.26 1.17-.599 1.54-1.016a5.057 5.057 0 001.202-2.359c.188-.891.282-1.776.282-2.656v-.524c0-.619-.086-1.239-.258-1.859-.172-.625-.43-1.146-.774-1.563a3.245 3.245 0 00-1.086-.851c-.427-.219-.932-.328-1.515-.328-.583 0-1.096.107-1.54.32-.437.208-.801.49-1.093.844a3.7 3.7 0 00-.672 1.258 5.126 5.126 0 00-.219 1.515c0 .459.063.914.188 1.367.125.454.32.86.586 1.219.266.36.601.651 1.008.875.411.219.898.328 1.46.328a3.1 3.1 0 001.484-.336 2.93 2.93 0 00.548-.359 3.49 3.49 0 00.43-.445v.015a6.472 6.472 0 01-.227 1.391c-.125.448-.367.867-.727 1.258-.296.317-.69.565-1.18.742-.484.172-1.09.258-1.82.258zM54.25 570a1.79 1.79 0 01-.914-.227 2.016 2.016 0 01-.633-.609c-.172-.25-.3-.534-.383-.852a3.919 3.919 0 01-.125-.984c0-.375.047-.724.14-1.047.095-.328.233-.612.415-.851.177-.235.396-.42.656-.555.26-.135.56-.203.899-.203.297 0 .575.073.836.219.265.145.5.354.703.625.198.276.354.612.468 1.007.12.396.18.847.18 1.352v.469a2.49 2.49 0 01-.367.672 2.684 2.684 0 01-.516.515 2.393 2.393 0 01-.648.352 2.19 2.19 0 01-.711.117zm-5.914 36v-1.18h-5.711l3.055-3.312c.286-.313.557-.625.812-.938.26-.317.49-.638.688-.961a5.35 5.35 0 00.46-.976 3.225 3.225 0 00-.07-2.266 2.82 2.82 0 00-.68-1 3.095 3.095 0 00-1.093-.656 4.052 4.052 0 00-1.445-.242c-.584 0-1.105.093-1.563.281-.453.188-.836.44-1.148.758-.318.318-.56.69-.727 1.117-.167.422-.25.872-.25 1.352h1.453c0-.355.044-.675.133-.961.094-.287.234-.532.422-.735.182-.198.411-.351.687-.461a2.74 2.74 0 01.993-.164c.312 0 .59.055.836.164.25.104.463.248.64.43.172.182.302.398.39.648.094.245.141.508.141.79a2.6 2.6 0 01-.086.671c-.057.214-.153.44-.289.68a6.13 6.13 0 01-.539.797c-.224.286-.502.615-.836.984l-3.726 4.141V606h7.453zm9.773-4.352v-2.664c0-.724-.083-1.364-.25-1.922-.166-.562-.406-1.036-.718-1.421a3.055 3.055 0 00-1.164-.875c-.454-.204-.972-.305-1.555-.305-.578 0-1.096.101-1.555.305a3.003 3.003 0 00-1.148.875c-.318.385-.56.859-.727 1.421-.166.558-.25 1.198-.25 1.922v2.664c0 .724.084 1.368.25 1.93.167.557.409 1.026.727 1.406.317.391.706.685 1.164.883.458.193.976.289 1.554.289.584 0 1.102-.099 1.555-.297a3.004 3.004 0 001.149-.875c.312-.38.552-.849.718-1.406.167-.562.25-1.206.25-1.93zm-5.914-.289v-2.695c0-.531.052-.997.157-1.398.109-.407.273-.737.492-.993.182-.203.403-.356.664-.461.265-.109.57-.164.914-.164.338 0 .635.05.89.149.26.099.48.247.657.445.182.193.325.435.43.727.109.286.184.617.226.992l-4.43 3.398zm4.461.594c0 .557-.057 1.042-.172 1.453-.109.412-.284.745-.523 1a1.74 1.74 0 01-.648.43 2.407 2.407 0 01-.876.148 2.53 2.53 0 01-.843-.132 1.78 1.78 0 01-.64-.407 2.104 2.104 0 01-.47-.711 3.896 3.896 0 01-.25-1.007l4.422-3.383v2.609zM48.336 637v-1.18h-5.711l3.055-3.312c.286-.313.557-.625.812-.938.26-.317.49-.638.688-.961a5.35 5.35 0 00.46-.976 3.225 3.225 0 00-.07-2.266 2.82 2.82 0 00-.68-1 3.095 3.095 0 00-1.093-.656 4.052 4.052 0 00-1.445-.242c-.584 0-1.105.093-1.563.281-.453.188-.836.44-1.148.758-.318.318-.56.69-.727 1.117-.167.422-.25.872-.25 1.352h1.453c0-.355.044-.675.133-.961.094-.287.234-.532.422-.735.182-.198.411-.351.687-.461a2.74 2.74 0 01.993-.164c.312 0 .59.055.836.164.25.104.463.248.64.43.172.182.302.398.39.648.094.245.141.508.141.79a2.6 2.6 0 01-.086.671c-.057.214-.153.44-.289.68a6.13 6.13 0 01-.539.797c-.224.286-.502.615-.836.984l-3.726 4.141V637h7.453zm7.32 0v-11.375h-.117l-4.305 1.656v1.321l2.977-1.133V637h1.445z" fill="#fff" fill-opacity=".25"/><path opacity=".6" d="M48.336 668v-1.18h-5.711l3.055-3.312c.286-.313.557-.625.812-.938.26-.317.49-.638.688-.961a5.35 5.35 0 00.46-.976 3.225 3.225 0 00-.07-2.266 2.82 2.82 0 00-.68-1 3.095 3.095 0 00-1.093-.656 4.052 4.052 0 00-1.445-.242c-.584 0-1.105.093-1.563.281-.453.188-.836.44-1.148.758-.318.318-.56.69-.727 1.117-.167.422-.25.872-.25 1.352h1.453c0-.355.044-.675.133-.961.094-.287.234-.532.422-.735.182-.198.411-.351.687-.461a2.74 2.74 0 01.993-.164c.312 0 .59.055.836.164.25.104.463.248.64.43.172.182.302.398.39.648.094.245.141.508.141.79a2.6 2.6 0 01-.086.671c-.057.214-.153.44-.289.68a6.13 6.13 0 01-.539.797c-.224.286-.502.615-.836.984l-3.726 4.141V668h7.453zm9.61 0v-1.18h-5.712l3.055-3.312c.286-.313.557-.625.813-.938.26-.317.49-.638.687-.961.193-.323.346-.648.461-.976a3.227 3.227 0 00-.07-2.266 2.822 2.822 0 00-.68-1 3.097 3.097 0 00-1.094-.656 4.051 4.051 0 00-1.445-.242c-.583 0-1.104.093-1.563.281-.453.188-.836.44-1.148.758-.318.318-.56.69-.727 1.117-.166.422-.25.872-.25 1.352h1.454c0-.355.044-.675.132-.961.094-.287.235-.532.422-.735.183-.198.412-.351.688-.461.281-.109.612-.164.992-.164.312 0 .591.055.836.164.25.104.463.248.64.43.172.182.303.398.391.648.094.245.14.508.14.79 0 .229-.028.453-.085.671-.058.214-.154.44-.29.68-.135.245-.314.51-.538.797a18.84 18.84 0 01-.836.984l-3.727 4.141V668h7.453z" fill="#fff" fill-opacity=".25"/><path opacity=".5" d="M48.336 699v-1.18h-5.711l3.055-3.312c.286-.313.557-.625.812-.938.26-.317.49-.638.688-.961a5.35 5.35 0 00.46-.976 3.225 3.225 0 00-.07-2.266 2.82 2.82 0 00-.68-1 3.095 3.095 0 00-1.093-.656 4.052 4.052 0 00-1.445-.242c-.584 0-1.105.093-1.563.281-.453.188-.836.44-1.148.758-.318.318-.56.69-.727 1.117-.167.422-.25.872-.25 1.352h1.453c0-.355.044-.675.133-.961.094-.287.234-.532.422-.735.182-.198.411-.351.687-.461a2.74 2.74 0 01.993-.164c.312 0 .59.055.836.164.25.104.463.248.64.43.172.182.302.398.39.648.094.245.141.508.141.79a2.6 2.6 0 01-.086.671c-.057.214-.153.44-.289.68a6.13 6.13 0 01-.539.797c-.224.286-.502.615-.836.984l-3.726 4.141V699h7.453zm4.32-6.383v1.172h1.032c.359 0 .687.042.984.125a2.1 2.1 0 01.773.383c.209.172.37.388.485.648.12.256.18.56.18.914 0 .36-.053.672-.157.938-.099.26-.242.479-.43.656-.187.177-.414.31-.68.399a2.98 2.98 0 01-.89.125 2.72 2.72 0 01-.898-.141 1.971 1.971 0 01-.68-.398 1.786 1.786 0 01-.438-.626 2.142 2.142 0 01-.148-.812h-1.445c0 .5.093.945.281 1.336.193.391.45.721.773.992s.704.477 1.141.617c.443.141.914.211 1.414.211.51 0 .984-.073 1.422-.218a3.33 3.33 0 001.148-.657 2.92 2.92 0 00.758-1.039c.183-.411.274-.883.274-1.414 0-.26-.032-.523-.094-.789a2.438 2.438 0 00-.305-.758 2.526 2.526 0 00-.601-.648 2.943 2.943 0 00-.922-.469 2.897 2.897 0 001.336-1.117 2.573 2.573 0 00.414-1.359c0-.527-.084-.99-.25-1.391a2.75 2.75 0 00-.703-1.008 2.948 2.948 0 00-1.086-.609 4.392 4.392 0 00-1.399-.211 3.96 3.96 0 00-1.437.25 3.379 3.379 0 00-1.102.664 2.998 2.998 0 00-.969 2.226h1.454c0-.297.05-.565.148-.804.099-.24.24-.446.422-.617.177-.172.39-.303.64-.391a2.43 2.43 0 01.844-.141c.318 0 .6.042.844.125.25.078.458.198.625.36.172.166.302.377.39.632.09.25.133.545.133.883 0 .287-.049.55-.148.789-.099.24-.242.446-.43.617-.192.172-.43.308-.71.407a2.842 2.842 0 01-.962.148h-1.03z" fill="#fff" fill-opacity=".25"/><path opacity=".4" d="M48.336 730v-1.18h-5.711l3.055-3.312c.286-.313.557-.625.812-.938.26-.317.49-.638.688-.961a5.35 5.35 0 00.46-.976 3.225 3.225 0 00-.07-2.266 2.82 2.82 0 00-.68-1 3.095 3.095 0 00-1.093-.656 4.052 4.052 0 00-1.445-.242c-.584 0-1.105.093-1.563.281-.453.188-.836.44-1.148.758-.318.318-.56.69-.727 1.117-.167.422-.25.872-.25 1.352h1.453c0-.355.044-.675.133-.961.094-.287.234-.532.422-.735.182-.198.411-.351.687-.461a2.74 2.74 0 01.993-.164c.312 0 .59.055.836.164.25.104.463.248.64.43.172.182.302.398.39.648.094.245.141.508.141.79a2.6 2.6 0 01-.086.671c-.057.214-.153.44-.289.68a6.13 6.13 0 01-.539.797c-.224.286-.502.615-.836.984l-3.726 4.141V730h7.453zm8.492-3.82v-7.555H55.29l-5.094 7.883v.851h5.188V730h1.445v-2.641h1.586v-1.179h-1.586zm-5.031 0l3.351-5.196.235-.437v5.633h-3.586z" fill="#fff" fill-opacity=".25"/><path opacity=".3" d="M48.336 761v-1.18h-5.711l3.055-3.312c.286-.313.557-.625.812-.938.26-.317.49-.638.688-.961a5.35 5.35 0 00.46-.976 3.225 3.225 0 00-.07-2.266 2.82 2.82 0 00-.68-1 3.095 3.095 0 00-1.093-.656 4.052 4.052 0 00-1.445-.242c-.584 0-1.105.093-1.563.281-.453.188-.836.44-1.148.758-.318.318-.56.69-.727 1.117-.167.422-.25.872-.25 1.352h1.453c0-.355.044-.675.133-.961.094-.287.234-.532.422-.735.182-.198.411-.351.687-.461a2.74 2.74 0 01.993-.164c.312 0 .59.055.836.164.25.104.463.248.64.43.172.182.302.398.39.648.094.245.141.508.141.79a2.6 2.6 0 01-.086.671c-.057.214-.153.44-.289.68a6.13 6.13 0 01-.539.797c-.224.286-.502.615-.836.984l-3.726 4.141V761h7.453zm3.148-5.703l1.157.297c.13-.115.255-.216.375-.305a2.068 2.068 0 01.867-.367c.177-.037.385-.055.625-.055.364 0 .687.065.969.195.28.131.518.308.71.532.193.229.339.497.438.804.104.308.156.638.156.993 0 .39-.047.744-.14 1.062a2.279 2.279 0 01-.399.813 1.86 1.86 0 01-.672.531c-.265.12-.57.18-.914.18-.61 0-1.11-.167-1.5-.5-.385-.334-.622-.823-.71-1.469H51.07c.052.526.18.987.383 1.383.208.395.474.724.797.984.318.26.682.456 1.094.586.411.13.849.195 1.312.195.604 0 1.13-.094 1.578-.281.448-.193.82-.458 1.118-.797a3.3 3.3 0 00.656-1.195c.146-.464.219-.966.219-1.508 0-.573-.079-1.094-.235-1.563a3.48 3.48 0 00-.672-1.203 3.019 3.019 0 00-1.062-.765 3.482 3.482 0 00-1.414-.274 3.6 3.6 0 00-1.086.149c-.313.099-.58.213-.805.343l.32-3.031h4.618v-1.406h-5.836l-.57 5.672z" fill="#fff" fill-opacity=".25"/><path opacity=".2" d="M48.336 792v-1.18h-5.711l3.055-3.312c.286-.313.557-.625.812-.938.26-.317.49-.638.688-.961a5.35 5.35 0 00.46-.976 3.225 3.225 0 00-.07-2.266 2.82 2.82 0 00-.68-1 3.095 3.095 0 00-1.093-.656 4.052 4.052 0 00-1.445-.242c-.584 0-1.105.093-1.563.281-.453.188-.836.44-1.148.758-.318.318-.56.69-.727 1.117-.167.422-.25.872-.25 1.352h1.453c0-.355.044-.675.133-.961.094-.287.234-.532.422-.735.182-.198.411-.351.687-.461a2.74 2.74 0 01.993-.164c.312 0 .59.055.836.164.25.104.463.248.64.43.172.182.302.398.39.648.094.245.141.508.141.79a2.6 2.6 0 01-.086.671c-.057.214-.153.44-.289.68a6.13 6.13 0 01-.539.797c-.224.286-.502.615-.836.984l-3.726 4.141V792h7.453zm7.96-11.383h-.124c-.813 0-1.54.115-2.18.344a4.26 4.26 0 00-1.633 1.008 4.906 4.906 0 00-1.312 2.351 11.742 11.742 0 00-.336 2.797v.68c0 .552.083 1.104.25 1.656a4.15 4.15 0 00.758 1.438 3.55 3.55 0 001.117.914c.443.234.956.351 1.539.351.578 0 1.086-.101 1.523-.304a3.138 3.138 0 001.11-.836 3.45 3.45 0 00.664-1.227c.15-.469.226-.969.226-1.5 0-.463-.062-.919-.187-1.367a3.593 3.593 0 00-.586-1.203 2.952 2.952 0 00-1.016-.852c-.411-.219-.9-.328-1.468-.328-.26 0-.51.031-.75.094a3.24 3.24 0 00-.657.234 3.323 3.323 0 00-.578.367 2.945 2.945 0 00-.468.446 5.4 5.4 0 01.296-1.461c.172-.474.422-.883.75-1.227a3.329 3.329 0 011.188-.781c.479-.198 1.062-.297 1.75-.297h.125v-1.297zm-1.89 5.125c.35 0 .654.073.914.219.26.146.477.341.649.586.172.245.3.526.383.844.083.312.125.635.125.968 0 .375-.047.724-.141 1.047a2.37 2.37 0 01-.398.821 1.969 1.969 0 01-.665.539c-.26.13-.56.195-.898.195-.292 0-.57-.068-.836-.203a2.158 2.158 0 01-.703-.61 3.11 3.11 0 01-.484-.976 4.559 4.559 0 01-.18-1.336v-.484a2.466 2.466 0 011.523-1.493c.23-.078.466-.117.711-.117z" fill="#fff" fill-opacity=".25"/></svg>