<svg width="1297" height="836" fill="none" xmlns="http://www.w3.org/2000/svg"><mask id="a" fill="#fff"><path d="M1388.78 832.549c4.51-3.301 4.53-4.026.3-16.745-2.43-7.312-6.48-15.846-9.01-18.963-4-4.936-4.14-6.529-1.14-12.325 1.9-3.66 4.64-6.801 6.08-6.978 1.44-.178 4.81-.469 7.49-.646 5.88-.391 8.79-9.631 5.16-16.41-1.87-3.486-1.72-6.02.52-8.714 3.2-3.857 3.11-4.23-5.43-22.269-2.53-5.358-2.6-7.874-.31-10.639 2.33-2.801 2.12-4.355-.9-6.864-2.15-1.784-3.91-6.008-3.91-9.387 0-3.379-.88-6.143-1.96-6.143-2.26 0-9.69 10.839-9.05 13.195.23.862-2.46 3.11-5.99 4.996-3.52 1.886-7.08 6.122-7.91 9.414-.82 3.293-2.45 5.986-3.62 5.986s-3.79 1.675-5.84 3.723c-5.43 5.427-13.51 2.216-18.71-7.436-3.23-5.997-6.48-8.511-11.27-8.718-3.7-.16-11.15-.72-16.54-1.246-5.4-.526-10.37-.06-11.04 1.034-1.81 2.929-11.17.559-18.61-4.712-9.21-6.527-11.56-7.872-17.41-9.946-4.91-1.741-4.86-1.914.88-3.435l6.05-1.601-6.7-7.22c-3.68-3.971-6.69-8.323-6.69-9.671 0-1.348-1.21-2.451-2.7-2.451-1.48 0-5.84-2.964-9.69-6.587-6.55-6.164-8.24-6.5-26.38-5.242-27.8 1.928-31.01 2.483-31.05 5.369-.02 1.421-4.09 5.211-9.05 8.422-10.25 6.637-11.3 10.873-3.84 15.526 5.78 3.609 7.03 15.795 2.12 20.702-1.68 1.682-3.17 10.89-3.31 20.543-.22 15.405-1.11 18.41-7.46 25.163l-7.21 7.67-11.42-4.106c-9.37-3.368-12.23-3.513-15.93-.807-3.69 2.694-5.8 2.634-11.53-.328-6.31-3.261-7.95-3.079-16.22 1.801-5.06 2.985-9.88 8.104-10.7 11.376-1.05 4.195-3.99 6.415-9.97 7.536-4.66.874-10.53 3.865-13.05 6.646-2.51 2.781-5.77 4.319-7.23 3.417-1.46-.903-9.35-1.399-17.53-1.104-12.37.446-15.75-.412-20.12-5.097-3.42-3.666-7.12-5.145-10.59-4.236-3.6.939-6.21-.218-7.99-3.538-3.303-6.175-21.594-6.779-32.534-1.075-4.072 2.123-9.554 3.867-12.182 3.876-5.416.018-19.777-14.194-19.777-19.571 0-3.842-12.785-11.421-19.266-11.421-6.401 0-23.147-9.912-25.107-14.861-1.454-3.673-1.823-3.379-1.971 1.568-.1 3.348-3.089 9.542-6.643 13.764-6.723 7.987-8.483 19.731-3.678 24.535 1.99 1.989.87 4.697-3.921 9.487-5.442 5.44-8.281 6.405-15.062 5.121-4.596-.87-9.76-2.681-11.475-4.025-1.714-1.343-4.176-1.788-5.47-.989-2.667 1.648-9.18-5.13-11.679-12.155-1.241-3.487-3.824-4.48-10.086-3.876-4.63.446-9.582-.585-11.003-2.29-1.981-2.377-5.906-1.839-16.801 2.303-7.819 2.973-17.525 5.279-21.569 5.124-5.269-.201-6.963.733-5.979 3.297 1.536 4-2.511 6.057-16.171 8.217-5.098.807-10.071 1.958-11.052 2.559-.98.601-4.469-1.764-7.754-5.254-3.593-3.819-9.544-6.672-14.937-7.162-7.621-.693-9.324-2.075-11.359-9.213-1.317-4.619-3.971-8.398-5.898-8.398-2.173 0-3.503-2.958-3.503-7.794 0-6.367-1.66-8.585-9.073-12.119-6.466-3.082-9.87-3.527-11.849-1.549-4.378 4.377-12.53.824-16.727-7.29-4.05-7.83-11.462-10.124-11.462-3.548a3.887 3.887 0 01-3.877 3.876c-3.037 0-3.877-3.536-3.877-16.326 0-8.98-1.824-22.467-4.053-29.971-2.229-7.504-3.515-14.182-2.856-14.84.658-.658-1.589-4.202-4.994-7.875-7.665-8.268-7.717-9.998-.375-12.353 5.056-1.621 4.482-2.124-4.386-3.853-7.349-1.432-11.184-1.006-13.717 1.526-3.533 3.532-13.364 3.396-22.178-.306-3.701-1.555-3.987-2.457-1.305-4.114 2.697-1.667 2.327-2.96-1.721-6.018-2.837-2.143-6.575-3.933-8.307-3.978-1.733-.046-2.481-1.827-1.662-3.958 1.088-2.835-.323-3.876-5.251-3.876-6.438 0-9.008-4.622-4.87-8.759 1.028-1.027 2.125-5.872 2.438-10.767.466-7.284-.341-8.898-4.453-8.898-2.763 0-7.286-2.263-10.052-5.028-4.024-4.023-6.589-4.581-12.831-2.791-8.515 2.442-31.675-1.677-58.391-10.384-8.53-2.779-17.162-5.054-19.182-5.053-2.021 0-5.728-1.858-8.238-4.129-2.51-2.271-5.661-3.451-7.003-2.622-3.977 2.457-5.422 15.486-2.181 19.671 2.59 3.344 2.401 3.406-1.379.448-6.886-5.388-16.423-2.905-15.682 4.082.696 6.561-6.28 8.059-11.995 2.576-2.75-2.639-3.106-1.339-1.944 7.106 3.111 22.602 3.083 23.074-1.412 23.986-2.419.491-6.914-2.002-9.99-5.538-3.076-3.537-7.017-5.884-8.759-5.216-4.116 1.579-8.436-3.803-9.563-11.914-.548-3.948-2.88-6.812-6.036-7.414-2.828-.54-6.729-3.246-8.669-6.014-1.98-2.827-5.198-4.392-7.34-3.57-2.098.805-6.63.757-10.071-.106-4.777-1.199-6.257-3.301-6.257-8.889 0-8.949-3.911-11.941-7.503-5.741-2.017 3.483-2.446 1.622-1.793-7.79.697-10.043-.064-12.859-4.052-14.992-2.7-1.445-4.735-4.02-4.521-5.722.954-7.603-.534-9.837-6.04-9.072-4.344.604-6.021-.637-6.629-4.906-.723-5.082-1.938-5.557-10.985-4.292-5.972.835-10.172.362-10.172-1.146 0-1.413-4.944-2.32-10.986-2.015-8.977.452-11.131 1.548-11.782 5.996-.439 2.994-2.518 6.103-4.622 6.91-4.223 1.62-7.518-4.237-5.436-9.662 2.51-6.539-1.894-9.161-12.903-7.685-8.363 1.122-11.057 2.728-12.199 7.277-1.505 5.996-11.861 10.919-11.861 5.639 0-1.604-1.846-.283-4.102 2.937-3.127 4.463-3.4 6.699-1.149 9.41 2.287 2.755 1.9 4.148-1.714 6.181-4.385 2.466-4.302 2.966 1.37 8.267 4.121 3.851 5.568 7.391 4.559 11.15-.813 3.029-1.494 6.961-1.514 8.737-.019 1.777-1.78 3.23-3.912 3.23-4.671 0-5.188 9.222-.673 12.011 7.203 4.45-10.022 5.02-20.357.674-9.355-3.935-11.556-4.047-17.627-.899-3.815 1.979-7.728 3.487-8.695 3.352-8.263-1.156-10.853.818-10.317 7.86.314 4.122-.905 9.274-2.71 11.448-2.723 3.279-2.43 4.409 1.714 6.627 2.748 1.47 5.731 1.938 6.629 1.041.898-.897 1.632-.275 1.632 1.383 0 1.784-4.135 3.015-10.133 3.015-10.984 0-10.318-1.088-14.621 23.901-1.261 7.323-2.903 9.69-6.72 9.69-10.766 0-15.052-4.764-15.052-16.734 0-6.262-1.238-12.15-2.752-13.085-1.514-.936-2.554-4.783-2.311-8.551 1.154-17.887-.103-22.333-7.503-26.54-6.072-3.453-7.612-6.385-8.776-16.711-.777-6.889-2.714-12.958-4.306-13.488-3.884-1.295-10.538-14.487-10.538-20.895 0-2.832-2.202-6.691-4.892-8.574-4.182-2.929-5.118-8.027-6.45-35.151L72 468.835l6.242 6.733c5.501 5.935 6.879 6.335 11.62 3.375 4.32-2.698 6.394-2.723 10.547-.13 4.641 2.897 5.17 2.58 5.17-3.102 0-3.481 1.163-7.048 2.585-7.926 1.421-.879 2.593-.657 2.605.493.02 2.093 12.107 8.55 16.003 8.55 3.904 0 2.071-7.494-2.454-10.033-3.997-2.244-4.049-2.722-.445-4.11 5.084-1.959 17.893 2.695 17.893 6.502 0 3.771 10.996.3 13.698-4.325 1.137-1.945 3.754-3.537 5.816-3.537s3.749-1.028 3.749-2.283 2.326-2.891 5.169-3.634c6.383-1.669 7.045-14.975 1.293-26-2.114-4.053-3.172-10.044-2.352-13.313 1.252-4.985.257-6.215-6.167-7.626-6.603-1.45-7.576-2.746-7.052-9.403.334-4.246 3.102-10.044 6.15-12.883 6.618-6.164 6.733-7.281 1.515-14.729-3.804-5.43-3.665-5.887 2.513-8.235 3.877-1.474 7.255-5.331 8.294-9.472 1.475-5.872.212-8.397-7.921-15.849l-9.676-8.865 7.185-7.497c8.5-8.869 10.334-9.221 12.137-2.33.991 3.79 3.525 5.168 9.5 5.168 5.298 0 7.531-1 6.382-2.859-2.479-4.01 3.934-23.126 10.078-30.042 2.819-3.173 7.268-6.449 9.887-7.28 4.959-1.573 6.707-12.574 2.418-15.224-1.288-.796-1.768-3.64-1.067-6.321.701-2.68.01-5.655-1.535-6.61-4.196-2.592-3.391-9.183 1.122-9.183 2.163 0 5.258-2.907 6.877-6.46 1.62-3.553 4.503-6.46 6.407-6.46s3.462-1.121 3.462-2.493c0-1.371 2.503-3.832 5.562-5.468 4.737-2.535 5.323-2.357 3.958 1.201-2.138 5.569 2.245 5.336 6.488-.345 1.858-2.488 8.958-7.15 15.778-10.362 13.475-6.346 19.876-5.172 25.111 4.607 4.637 8.661 7.906 5.873 6.13-5.227-1.148-7.181-.717-10.336 1.415-10.336 1.687 0 2.272-1.288 1.299-2.861-1.154-1.867-.084-2.331 3.078-1.336 10.276 3.234 33.182 6.781 43.787 6.781 11.088 0 20.761-5.749 17.782-10.567-2.756-4.46 1.644-12.356 7.374-13.233 3.131-.479 5.403-2.296 5.047-4.039-.355-1.743 1.68-3.169 4.524-3.169 3.192 0 5.177-1.729 5.189-4.522.02-4.356 10.419-10.982 17.237-10.982 1.816 0 5.348-3.197 7.85-7.106 6.27-9.798 11.259-13.38 18.834-13.523 9.053-.17 12.011-2.7 14.028-12 1.477-6.812 3.214-8.319 11.051-9.59 6.834-1.109 11.156-.186 16.311 3.483 3.857 2.746 7.588 4.417 8.291 3.714.703-.703 2.823.583 4.711 2.857 2.247 2.707 2.52 4.737.788 5.877-3.473 2.286-6.236 13.369-3.333 13.369 1.238 0 3.648 2.607 5.353 5.793 3.813 7.122 3.138 61.083-.823 65.854-1.49 1.795-7.059 4.567-12.376 6.159-7.962 2.385-10.777 2.168-15.966-1.231-9.45-6.19-17.835-32.358-17.752-55.4.027-7.375-4.384-5.103-8.287 4.269-3.703 8.891-3.875 9.579-4.257 17.017-.212 4.111-2.335 6.896-6.139 8.049-10.007 3.033-17.447 11.769-17.447 20.482 0 4.442-1.396 9.472-3.102 11.178-2.042 2.04-2.145 3.1-.302 3.1 1.54 0 3.409 2.326 4.152 5.168 1.51 5.771 8.162 6.904 11.377 1.938 1.15-1.776 2.091-6.111 2.091-9.633 0-3.997 1.673-6.734 4.451-7.282 3.554-.701 4.385.883 4.123 7.856-.66 17.556 11.496 26.262 16.527 11.836 2.706-7.761 2.81-7.798 17.144-6.007 8.717 1.088 15.668 3.489 17.571 6.069 1.763 2.388 2.084 4.649.729 5.134-4.057 1.453.165 5.593 5.704 5.593 6.222 0 11.673-4.959 12.98-11.81.533-2.791 3.478-5.346 6.69-5.805 3.155-.45 7.97-3.656 10.699-7.124 3.137-3.987 6.482-5.722 9.098-4.718 4.846 1.859 5.039 3.492 1.509 12.774-1.989 5.23-3.435 6.239-5.95 4.152-5.826-4.833-14.064-.621-15.304 7.826-1.484 10.106 4.261 16.072 13.305 13.817 16.152-4.028 37.125-2.207 43.555 3.782 3.221 2.999 6.18 4.076 7.102 2.584.87-1.407 4.019-2.558 6.999-2.558 5.237 0 5.263.171.783 5.119-3.883 4.29-4.084 5.783-1.238 9.211 2.071 2.495 5.597 3.538 9.04 2.674 3.57-.896 7.186.286 9.838 3.215 2.609 2.883 7.221 4.422 12.213 4.076 7.215-.499 7.869.052 6.504 5.487-1.286 5.124-.615 5.946 4.414 5.41 8.54-.91 12.173-3.771 12.173-9.586 0-9.262 7.177-8.434 16.718 1.93 9.046 9.826 13.416 18.136 10.874 20.678-.722.721.953 3.577 3.722 6.345 2.769 2.769 5.725 8.486 6.569 12.705.845 4.219 2.992 7.671 4.773 7.671 5.322 0 9.59-7.117 7.747-12.92-.95-2.994-.326-7.093 1.396-9.168 2.198-2.647 2.26-3.752.213-3.752-4.562 0-3.398-7.597 2.269-14.798 2.843-3.614 5.169-9.32 5.169-12.682 0-4.336 1.464-6.111 5.039-6.111 2.771 0 10.58-5.233 17.352-11.628 6.772-6.395 12.571-11.628 12.886-11.628.316 0 3.557 1.134 7.204 2.52 8.954 3.403 8.621 12.105-.896 23.417-5.462 6.492-7.169 10.78-6.224 15.63.808 4.142-.262 8.247-2.813 10.797-2.263 2.263-4.115 5.142-4.115 6.398 0 1.255-2.35 7.145-5.223 13.089-3.296 6.821-4.625 13.185-3.603 17.257 1.17 4.661.426 6.909-2.68 8.1-2.365.908-3.674 3.281-2.908 5.275.857 2.235-1.068 4.56-5.021 6.063-3.527 1.34-6.413 3.543-6.413 4.896 0 1.352-3.762 4.334-8.359 6.627-7.778 3.879-8.587 3.858-11.632-.305-1.8-2.46-3.272-3.527-3.272-2.371 0 1.156-1.745.655-3.877-1.114-2.348-1.948-3.877-2.156-3.877-.528 0 6.583 3.845 11.321 11.929 14.697 7.861 3.284 9.862 3.136 20.36-1.507 15.191-6.717 25.738-16.681 26.39-24.929.686-8.689 3.473-11.15 10.536-9.304 6.609 1.728 10.497 12.685 6.071 17.109-3.606 3.604-3.854 14.798-.328 14.798 1.422 0 5.026 2.44 8.01 5.423l5.424 5.423-1.923-6.059c-1.058-3.333-3.775-7.413-6.037-9.066-3.739-2.734-3.705-3.457.376-7.965 2.469-2.728 4.489-7.475 4.489-10.55 0-6.765-9.704-18.535-15.328-18.589-2.232-.022-5.557-.991-7.389-2.153-4.167-2.643-.204-14.426 7.682-22.843 3.804-4.06 5.009-8.136 4.272-14.452-1.024-8.761 2.442-14.776 8.512-14.776 1.725 0 5.555-2.035 8.51-4.522 5.234-4.405 5.269-4.389 1.356.646-2.209 2.842-4.33 8.932-4.714 13.534-.57 6.826.526 8.924 5.955 11.396 3.659 1.667 6.653 4.007 6.653 5.2 0 1.193 1.708 2.169 3.796 2.169 4.872 0 2.202-7.763-4.272-12.42-5.678-4.085-6.187-10.835-.816-10.835 2.132 0 3.877 1.162 3.877 2.584 0 1.421 1.88 2.584 4.178 2.584 2.855 0 3.766-1.579 2.875-4.986-.954-3.646-.041-4.89 3.397-4.631 2.585.194 4.131 1.275 3.434 2.401-.696 1.126.526 2.048 2.715 2.048s4.713 2.917 5.608 6.482c.986 3.929 4.061 7.093 7.804 8.032 7.526 1.888 7.991 5.08 1.006 6.906-3.531.923-5.17 3.525-5.17 8.206 0 4.326 1.049 6.206 2.843 5.098 1.687-1.042 1.464.734-.549 4.369-1.865 3.37-3.022 7.289-2.571 8.71.981 3.088 2.389 9.574 2.665 12.274.29 2.844 7.952 2.369 7.952-.494 0-1.337-1.119-3.122-2.486-3.967-1.592-.983-1.592-3.888 0-8.073 1.367-3.595 2.486-10.025 2.486-14.29 0-4.264 1.271-10.127 2.824-13.029 2.042-3.815 2.042-6.057 0-8.099-1.553-1.553-2.824-4.497-2.824-6.543 0-2.046-1.732-5.012-3.848-6.589-2.761-2.06-3.405-5.543-2.281-12.346l1.566-9.477 17.789.433c12.542.305 17.789 1.412 17.79 3.754.001 2.443 1.279 2.637 4.833.735 3.66-1.958 4.691-5.083 4.252-12.877-.391-6.923.619-10.753 3.085-11.7 2.017-.773 3.022-2.45 2.234-3.725-2.049-3.314 14.609-10.638 24.194-10.638 4.808 0 8.695-1.572 9.579-3.876 1.654-4.308 8.689-5.354 8.689-1.292 0 1.422 2.094 2.584 4.654 2.584 5.776 0 18.562-5.776 18.589-8.397.011-1.066 2.727-1.938 6.034-1.938 5.153 0 5.859-1.064 4.925-7.421-1.383-9.423 11.076-22.672 16.831-17.897 2.844 2.36 2.87 3.299.139 5.064-2.685 1.734-2.58 2.673.524 4.71 2.132 1.4 5.331 2.562 7.108 2.584 1.777.022 3.231 2.365 3.231 5.208 0 6.041 4.657 6.924 6.819 1.292 2.304-6.002 13.729-4.589 23.57 2.915 6.842 5.217 8.097 7.325 5.414 9.093-2.841 1.872-2.648 2.949 1.03 5.767 6.497 4.978 5.675 8.486-4.501 19.219-4.963 5.234-9.034 10.723-9.047 12.196-.012 1.474-5.256 8.219-11.654 14.989-6.397 6.77-11.594 13.704-11.549 15.408.046 1.738 1.59 1.113 3.516-1.422 1.888-2.487 5.844-4.522 8.79-4.522 3.149 0 6.058-2.207 7.057-5.355 1.002-3.157 3.165-4.793 5.269-3.986 1.963.753 5.264-.326 7.336-2.397 4.895-4.894 13.513-4.832 15.41.11.819 2.132 2.757 3.876 4.307 3.876 1.55 0 2.178-1.036 1.395-2.302-2.087-3.377 10.196-10.618 18.016-10.618 3.7 0 8.48 1.744 10.61 3.876 5 4.994 17.19 4.953 26.94-.089 6.54-3.381 7.27-4.721 4.93-9.097-3.8-7.098-1.05-10.288 7.43-8.594 4.75.95 8.28.066 10.52-2.638 3.05-3.668 4.13-3.534 11.01 1.362 4.4 3.136 7.05 6.943 6.25 9.013-.79 2.052.25 3.583 2.42 3.583 4.35 0 5.08 4.071 1.17 6.486-3.78 2.335-.13 7.051 4.18 5.399 2.35-.902 3.62.413 3.62 3.764 0 3.191 2.7 6.259 7.11 8.062 10.07 4.125 17.64 3.833 16.51-.638-.51-2.031-1.32-7.498-1.81-12.148-.74-7.099-.22-8.085 3.24-6.151 5.94 3.322 13.72.565 13.72-4.86 0-5.939 4.85-7.605 12.35-4.243 7.43 3.333 14.7-2.011 8.31-6.115-3.21-2.058-2.91-2.737 1.78-4.024 5.05-1.385 5.33-2.272 2.64-8.398-1.65-3.767-4.07-7.604-5.37-8.527-1.3-.922-1.43-3.829-.29-6.46 1.14-2.63 1.96-5.466 1.81-6.301-.15-.836 4.61-4.007 10.57-7.049 9.03-4.601 10.99-4.888 11.68-1.711 1.02 4.641 5.53 5.092 5.89.589.14-1.777 1.06-.323 2.05 3.23 2.79 10.015 6.65 7.635 7.54-4.645.65-9.104 1.97-11.548 7.27-13.566 9.51-3.613 11.85-3.045 10.1 2.453-1.44 4.542-.73 4.729 9.31 2.474 5.97-1.342 12.59-1.777 14.71-.965 4.24 1.626 15.96-8.021 15.96-13.135 0-1.775 3.02-6.805 6.7-11.178 5.56-6.61 8.56-7.95 17.81-7.95 7.51 0 11.61 1.262 12.62 3.876 3.2 8.345 23.29 1.96 22.17-7.048-.87-7.065 3.74-15.425 9.79-17.723 3.49-1.326 7.68-5.95 9.31-10.277 2.11-5.594 4.29-7.523 7.52-6.677 2.5.654 5.26.034 6.13-1.378.88-1.412 3.74-2.004 6.37-1.316s6.13-.374 7.78-2.359c4.28-5.153-1.51-11.361-10.6-11.361-10.18 0-11.26-6.179-2.67-15.372 4.06-4.336 6.84-7.884 6.19-7.884-.65 0 .92-3.73 3.48-8.29 7.09-12.578 17.09-20.53 40.86-32.492 4.26-2.146 9.72-5.59 12.11-7.653 2.4-2.063 5.48-3.062 6.84-2.22 1.36.842 3.19-.328 4.06-2.6.97-2.508 3.21-3.505 5.73-2.539 3.07 1.178 3.72.484 2.51-2.68-1.45-3.768.19-4.104 13.92-2.858 12.32 1.116 15.57.653 15.57-2.22 0-2.15-2.63-3.631-6.46-3.631-7.5 0-8-1.418-2.44-6.978 2.22-2.213 3.44-5.559 2.72-7.435-.75-1.96 1.11-4.16 4.38-5.173 3.12-.97 8.88-4.016 12.79-6.769 7.47-5.262 7.19-5.478 8.14 6.33.14 1.776 1.42 4.101 2.84 5.167 1.63 1.218 1.17 2.846-1.21 4.382-2.1 1.344-3.19 3.061-2.43 3.817 1.37 1.373 10.98 3.52 17.37 3.883 1.9.108 2.56 1.511 1.51 3.215-1.26 2.033-.46 2.483 2.43 1.373 2.81-1.077 4.3-.333 4.3 2.145 0 2.087-1.16 3.795-2.58 3.795-1.42 0-2.35.872-2.05 1.938.29 1.066-2.92 5.544-7.14 9.951-6.2 6.478-8.52 7.48-12.1 5.225-3.47-2.19-5.25-1.693-8.28 2.323-2.13 2.81-3.91 7.727-3.95 10.925-.06 4.419-1.6 5.814-6.39 5.814-3.47 0-7.03-1.163-7.91-2.585-2.38-3.846-5.7-3.13-7.52 1.62-2 5.206 5.81 11.604 11.92 9.768 3.18-.954 5.9 1.606 9.77 9.186 5.87 11.501 4.39 18.263-5.09 23.334-3.18 1.704-4.42 4.215-3.4 6.882 1.49 3.867 1.86 3.864 4.71-.04 1.71-2.331 5.59-4.238 8.63-4.238 3.05 0 5.54-1.241 5.54-2.758 0-3.216 10.77-.466 13.24 3.382 1.02 1.58 2.26 1.481 3.34-.266 2.19-3.553 20.31-3.036 22.71.648 2.14 3.276-7.62 14.498-12.6 14.498-4.27 0-4.53 4.371-.35 5.762 1.91.638 3.33 8.148 3.76 19.875.39 10.367 1.94 22.623 3.47 27.235 1.52 4.612 3.22 10.737 3.77 13.61.55 2.874 2.17 9.439 3.59 14.591 2.46 8.877 2.27 9.366-3.6 9.366-7.7 0-13.93 11.045-14.51 25.705-.35 8.919-.96 9.946-4.28 7.206-3.37-2.778-3.68-1.76-2.41 7.786 1.07 7.994.56 10.982-1.86 10.982-5.56 0-6.74 10.96-1.91 17.652 2.44 3.377 7.34 11.532 10.9 18.122 6.44 11.938 15.51 17.573 15.51 9.635 0-2.236 1.88-4.066 4.18-4.066 2.84 0 3.76 1.58 2.88 4.963-.97 3.695.44 5.452 5.51 6.883 3.75 1.057 7.81 1.691 9.02 1.409 1.21-.282 4.41.187 7.11 1.042 5.8 1.841 6.61 8.959 1.02 8.959-2.13 0-3.87 2.169-3.87 4.82 0 6.938 9.83 18.436 15.77 18.436 6.06 0 9.36 6.919 5.25 11.026-1.61 1.61-2.93 7.183-2.93 12.384 0 6.965 1.63 10.684 6.2 14.112 5.89 4.426 6.03 5.143 2.7 14.574-2.79 7.894-2.83 9.919-.22 9.919 4.29 0 14.58 23.719 14.58 33.616 0 10.161-6.66 10.27-16.11.264-3.87-4.104-11.99-10.041-18.04-13.193-21.55-11.23-61.49-48.087-61.49-56.75 0-6.887-5.39-18.2-8.68-18.2-1.63 0-1.47-1.221.41-3.101 4.59-4.586 4-31.699-.77-35.659-2.13-1.769-3.88-5.331-3.88-7.916 0-2.584-1.22-5.452-2.71-6.373-1.89-1.167-1.88-2.668.01-4.954 1.94-2.339 1.44-6.736-1.75-15.338-3.72-10.036-3.91-12.949-1.15-17.365 3.76-6.023 2.19-9.052-10.77-20.759-4.67-4.218-7.54-9.385-7.54-13.565 0-7.793-3.73-8.751-8.68-2.231-4.79 6.311-4.41 10.321 1.57 16.745 2.93 3.141 5.17 9.119 5.17 13.781 0 4.529.71 11.784 1.58 16.122 1.27 6.352.76 7.767-2.65 7.268-2.32-.341-6-3.164-8.18-6.273-4.58-6.533-8.84-7.39-8.84-1.777 0 2.132-1.85 3.876-4.12 3.876-2.26 0-4.73 2.325-5.47 5.168-.74 2.842-2.29 5.168-3.43 5.168-3.66 0-5.71 15.498-2.55 19.307 1.64 1.975 3.65 10.358 4.46 18.628.82 8.27 3.15 18.338 5.19 22.374 3.56 7.05 3.9 7.161 8.69 2.829 2.92-2.641 4.98-3.265 4.98-1.507 0 1.651-2.9 5.53-6.46 8.619-3.55 3.089-6.46 7.229-6.46 9.201 0 2.355-1.7 3.045-4.95 2.013-2.73-.865-5.63-.471-6.47.875-.83 1.345-3.83 1.839-6.68 1.096-3.59-.94-5.16-.078-5.16 2.826 0 2.298-.88 4.04-1.94 3.872-7.69-1.213-11.26 1.049-12.66 7.999-1.58 7.916-5.12 11.971-14.76 16.904-3.04 1.56-5.37 4.844-5.16 7.298.26 3.086-.55 3.701-2.6 1.996-2.02-1.674-6.05.352-12.56 6.32-14.5 13.285-18.37 20.402-16.49 30.375.88 4.727.73 9.47-.34 10.541-1.07 1.07-2.15 7.735-2.41 14.809-.26 7.075-1.71 14.361-3.23 16.192-1.52 1.831-2.65 10.915-2.51 20.187.14 9.272-1.03 19.264-2.61 22.204-1.57 2.941-2.86 8.262-2.86 11.824 0 3.563-1.16 7.196-2.59 8.074-1.42.879-2.58 3.854-2.58 6.613 0 3.827 1.8 5.015 7.6 5.015 4.18 0 8.32-1.154 9.19-2.565.87-1.416 4.38.608 7.82 4.522 5.01 5.682 6.26 6.19 6.33 2.565.09-5.494 5.25-6.128 5.25-.646a3.883 3.883 0 003.87 3.876c2.14 0 3.88-1.744 3.88-3.876 0-2.132 1.75-3.876 3.88-3.876 4.41 0 5.26-6.593 1.16-9.121-5.02-3.103 3.18-9.515 10.32-8.072 15.67 3.163 23.66 5.692 23.58 7.46-.04 1.042 4.07 6.046 9.15 11.12 5.8 5.803 8.65 10.711 7.68 13.233-2.04 5.318 3.34 22.798 8.82 28.685 2.41 2.579 7.49 10.881 11.29 18.449 6.89 13.719 6.91 13.907 5.75 60.629-1.22 49.514-1.92 58.066-5.15 63.294-1.1 1.786-1.33 5.961-.49 9.279 1.95 7.793-7.26 28.701-16.18 36.718-5.68 5.11-8.65 5.886-17.75 4.65l-10.93-1.483-1.68 10.486c-1.33 8.329-2.77 10.486-7.01 10.486-5.08 0-5.11-.163-.61-3.451zm124.44-128.533c-3.9-4.374-6.46-9.606-5.68-11.627.78-2.022.37-3.675-.9-3.675-2.64 0-10.45-14.627-10.45-19.566 0-1.798-3.93-5.699-8.74-8.67-4.81-2.971-10.27-9.17-12.13-13.777-1.86-4.606-7.33-13.607-12.16-20.002-4.83-6.396-10.36-15.407-12.3-20.026-2.34-5.601-5.28-8.398-8.82-8.398-5.3 0-15.64-8.33-15.64-12.604 0-1.247-1.74-3.715-3.88-5.484-2.13-1.769-3.87-5.018-3.87-7.219 0-2.201-1.99-6.199-4.42-8.885-3.44-3.797-3.7-5.334-1.15-6.908 4.61-2.848.88-16.104-4.96-17.631-2.68-.701-4.04-2.733-3.23-4.831 2.15-5.616 5.87-4.292 8.68 3.089 1.41 3.69 4.87 7.314 7.69 8.053 2.83.739 5.14 2.988 5.14 4.999 0 2.011 2.04 4.381 4.52 5.268 7.92 2.823 11.22 6.46 8.66 9.55-3.07 3.707 3.78 12.139 13.31 16.399 3.91 1.745 7.11 4.361 7.11 5.813 0 1.451 1.28 2.639 2.84 2.639 1.56 0 9.99 6.277 18.74 13.949 8.74 7.671 19.97 15.716 24.95 17.877l9.05 3.928-12.36.211c-15.05.256-16.62 3.15-10.9 19.996 5.75 16.929 13.72 29.293 18.94 29.392 2.37.045 6.58 1.795 9.35 3.888 2.77 2.093 6.94 3.203 9.26 2.465 5.6-1.778 12.24 11.416 7.29 14.478-1.79 1.101-4.3 1.352-5.58.557-1.29-.794-.76-2.444 1.17-3.666 2.58-1.634 2.65-2.232.27-2.261-5.57-.068-13.19 9.322-10.72 13.222 6.39 10.084.05 9.705-9.08-.543zm-11.66-8.627c-.11-2.724.5-4.25 1.36-3.391.86.858.95 3.087.2 4.952-.82 2.061-1.43 1.449-1.56-1.561zm72.17-11.05c0-7.348 1.28-11.064 4.17-12.176 3.56-1.365 3.91-.171 2.39 8.121-2.62 14.238-6.56 16.674-6.56 4.055zm9.55-17.947c-3.64-3.637-1.94-26.163 2.08-27.708 2.14-.818 3.88-3.268 3.88-5.444 0-2.177 1.16-3.957 2.59-3.957 3.52 0 3.25 2.933-1.27 13.751-2.12 5.069-3.18 10.954-2.37 13.079 1.74 4.517-2.27 12.912-4.91 10.279zm13.9-51.815c-.1-4.535.98-8.964 2.4-9.842 3.1-1.916 3.1 5.708 0 12.92-1.87 4.356-2.25 3.873-2.4-3.078zm7.98-39.558c0-3.553.59-5.006 1.3-3.23.72 1.777.72 4.684 0 6.46-.71 1.777-1.3.323-1.3-3.23zm-257.6-12.92c-.87-1.421-.36-2.584 1.14-2.584 1.51 0 2.74 1.163 2.74 2.584 0 1.422-.51 2.584-1.14 2.584-.62 0-1.86-1.162-2.74-2.584zm248.06-33.721c-2.37-3.84-.48-5.199 3.67-2.637 2.22 1.373 2.48 2.705.75 3.778-1.48.911-3.47.398-4.42-1.141zm-3.79-17.958a2.59 2.59 0 012.58-2.584c1.42 0 2.59 1.163 2.59 2.584a2.598 2.598 0 01-2.59 2.584 2.59 2.59 0 01-2.58-2.584zm-2.8-14.212c-.22-1.421-.25-3.503-.06-4.626.19-1.124-.78-4.143-2.16-6.71-1.69-3.162-1.53-5.629.48-7.648 3.72-3.717 8.01-3.927 5.76-.282-.92 1.483-.5 4.103.93 5.821 1.76 2.129 1.45 5.18-.98 9.577-1.97 3.549-3.75 5.289-3.97 3.868zm-167.8-103.206c0-.627 1.16-1.858 2.59-2.736 1.42-.879 2.58-.366 2.58 1.139s-1.16 2.736-2.58 2.736c-1.43 0-2.59-.512-2.59-1.139zM614.057 247.073c-5.594-6.656-6.531-9.334-4.234-12.101 3.852-4.641.81-16.54-4.23-16.54-3.056 0-3.337-1.087-1.277-4.935 1.66-3.101 4.443-4.464 7.488-3.668 2.946.77 7.667-1.348 12.043-5.401 8.272-7.664 11.251-8.138 18.225-2.9 4.823 3.622 4.579 4.163-6.276 13.903-10.222 9.172-11.449 11.562-12.924 25.163l-1.63 15.028-7.185-8.549zm34.325-46.729c-1.876-3.504-1.905-5.168-.091-5.168 1.472 0 2.385-1.453 2.03-3.23-.361-1.805 1.35-2.895 3.877-2.471 2.488.418 4.523-.313 4.523-1.624 0-1.311 3.49-3.829 7.755-5.595 4.265-1.766 7.754-3.979 7.754-4.918 0-.938 3.002-1.955 6.671-2.259 3.668-.303 8.551-1.603 10.849-2.889 2.494-1.395 6.666-1.393 10.347.007 3.393 1.289 7.285 1.654 8.65.811 1.365-.843 4.197-.109 6.293 1.63 2.528 2.097 8.639 2.665 18.128 1.686 11.218-1.157 14.631-.651 15.779 2.339.806 2.099.723 4.558-.184 5.465-2.493 2.491-26.959 5.179-30.007 3.296-1.466-.906-8.754-.628-16.195.618-7.442 1.246-16.837 2.595-20.878 2.998-4.042.403-8.113 1.789-9.047 3.08-.934 1.292-4.606 2.661-8.16 3.043-3.554.383-7.754 2.417-9.332 4.522-3.811 5.082-5.458 4.83-8.762-1.341z"/></mask><path d="M1388.78 832.549c4.51-3.301 4.53-4.026.3-16.745-2.43-7.312-6.48-15.846-9.01-18.963-4-4.936-4.14-6.529-1.14-12.325 1.9-3.66 4.64-6.801 6.08-6.978 1.44-.178 4.81-.469 7.49-.646 5.88-.391 8.79-9.631 5.16-16.41-1.87-3.486-1.72-6.02.52-8.714 3.2-3.857 3.11-4.23-5.43-22.269-2.53-5.358-2.6-7.874-.31-10.639 2.33-2.801 2.12-4.355-.9-6.864-2.15-1.784-3.91-6.008-3.91-9.387 0-3.379-.88-6.143-1.96-6.143-2.26 0-9.69 10.839-9.05 13.195.23.862-2.46 3.11-5.99 4.996-3.52 1.886-7.08 6.122-7.91 9.414-.82 3.293-2.45 5.986-3.62 5.986s-3.79 1.675-5.84 3.723c-5.43 5.427-13.51 2.216-18.71-7.436-3.23-5.997-6.48-8.511-11.27-8.718-3.7-.16-11.15-.72-16.54-1.246-5.4-.526-10.37-.06-11.04 1.034-1.81 2.929-11.17.559-18.61-4.712-9.21-6.527-11.56-7.872-17.41-9.946-4.91-1.741-4.86-1.914.88-3.435l6.05-1.601-6.7-7.22c-3.68-3.971-6.69-8.323-6.69-9.671 0-1.348-1.21-2.451-2.7-2.451-1.48 0-5.84-2.964-9.69-6.587-6.55-6.164-8.24-6.5-26.38-5.242-27.8 1.928-31.01 2.483-31.05 5.369-.02 1.421-4.09 5.211-9.05 8.422-10.25 6.637-11.3 10.873-3.84 15.526 5.78 3.609 7.03 15.795 2.12 20.702-1.68 1.682-3.17 10.89-3.31 20.543-.22 15.405-1.11 18.41-7.46 25.163l-7.21 7.67-11.42-4.106c-9.37-3.368-12.23-3.513-15.93-.807-3.69 2.694-5.8 2.634-11.53-.328-6.31-3.261-7.95-3.079-16.22 1.801-5.06 2.985-9.88 8.104-10.7 11.376-1.05 4.195-3.99 6.415-9.97 7.536-4.66.874-10.53 3.865-13.05 6.646-2.51 2.781-5.77 4.319-7.23 3.417-1.46-.903-9.35-1.399-17.53-1.104-12.37.446-15.75-.412-20.12-5.097-3.42-3.666-7.12-5.145-10.59-4.236-3.6.939-6.21-.218-7.99-3.538-3.303-6.175-21.594-6.779-32.534-1.075-4.072 2.123-9.554 3.867-12.182 3.876-5.416.018-19.777-14.194-19.777-19.571 0-3.842-12.785-11.421-19.266-11.421-6.401 0-23.147-9.912-25.107-14.861-1.454-3.673-1.823-3.379-1.971 1.568-.1 3.348-3.089 9.542-6.643 13.764-6.723 7.987-8.483 19.731-3.678 24.535 1.99 1.989.87 4.697-3.921 9.487-5.442 5.44-8.281 6.405-15.062 5.121-4.596-.87-9.76-2.681-11.475-4.025-1.714-1.343-4.176-1.788-5.47-.989-2.667 1.648-9.18-5.13-11.679-12.155-1.241-3.487-3.824-4.48-10.086-3.876-4.63.446-9.582-.585-11.003-2.29-1.981-2.377-5.906-1.839-16.801 2.303-7.819 2.973-17.525 5.279-21.569 5.124-5.269-.201-6.963.733-5.979 3.297 1.536 4-2.511 6.057-16.171 8.217-5.098.807-10.071 1.958-11.052 2.559-.98.601-4.469-1.764-7.754-5.254-3.593-3.819-9.544-6.672-14.937-7.162-7.621-.693-9.324-2.075-11.359-9.213-1.317-4.619-3.971-8.398-5.898-8.398-2.173 0-3.503-2.958-3.503-7.794 0-6.367-1.66-8.585-9.073-12.119-6.466-3.082-9.87-3.527-11.849-1.549-4.378 4.377-12.53.824-16.727-7.29-4.05-7.83-11.462-10.124-11.462-3.548a3.887 3.887 0 01-3.877 3.876c-3.037 0-3.877-3.536-3.877-16.326 0-8.98-1.824-22.467-4.053-29.971-2.229-7.504-3.515-14.182-2.856-14.84.658-.658-1.589-4.202-4.994-7.875-7.665-8.268-7.717-9.998-.375-12.353 5.056-1.621 4.482-2.124-4.386-3.853-7.349-1.432-11.184-1.006-13.717 1.526-3.533 3.532-13.364 3.396-22.178-.306-3.701-1.555-3.987-2.457-1.305-4.114 2.697-1.667 2.327-2.96-1.721-6.018-2.837-2.143-6.575-3.933-8.307-3.978-1.733-.046-2.481-1.827-1.662-3.958 1.088-2.835-.323-3.876-5.251-3.876-6.438 0-9.008-4.622-4.87-8.759 1.028-1.027 2.125-5.872 2.438-10.767.466-7.284-.341-8.898-4.453-8.898-2.763 0-7.286-2.263-10.052-5.028-4.024-4.023-6.589-4.581-12.831-2.791-8.515 2.442-31.675-1.677-58.391-10.384-8.53-2.779-17.162-5.054-19.182-5.053-2.021 0-5.728-1.858-8.238-4.129-2.51-2.271-5.661-3.451-7.003-2.622-3.977 2.457-5.422 15.486-2.181 19.671 2.59 3.344 2.401 3.406-1.379.448-6.886-5.388-16.423-2.905-15.682 4.082.696 6.561-6.28 8.059-11.995 2.576-2.75-2.639-3.106-1.339-1.944 7.106 3.111 22.602 3.083 23.074-1.412 23.986-2.419.491-6.914-2.002-9.99-5.538-3.076-3.537-7.017-5.884-8.759-5.216-4.116 1.579-8.436-3.803-9.563-11.914-.548-3.948-2.88-6.812-6.036-7.414-2.828-.54-6.729-3.246-8.669-6.014-1.98-2.827-5.198-4.392-7.34-3.57-2.098.805-6.63.757-10.071-.106-4.777-1.199-6.257-3.301-6.257-8.889 0-8.949-3.911-11.941-7.503-5.741-2.017 3.483-2.446 1.622-1.793-7.79.697-10.043-.064-12.859-4.052-14.992-2.7-1.445-4.735-4.02-4.521-5.722.954-7.603-.534-9.837-6.04-9.072-4.344.604-6.021-.637-6.629-4.906-.723-5.082-1.938-5.557-10.985-4.292-5.972.835-10.172.362-10.172-1.146 0-1.413-4.944-2.32-10.986-2.015-8.977.452-11.131 1.548-11.782 5.996-.439 2.994-2.518 6.103-4.622 6.91-4.223 1.62-7.518-4.237-5.436-9.662 2.51-6.539-1.894-9.161-12.903-7.685-8.363 1.122-11.057 2.728-12.199 7.277-1.505 5.996-11.861 10.919-11.861 5.639 0-1.604-1.846-.283-4.102 2.937-3.127 4.463-3.4 6.699-1.149 9.41 2.287 2.755 1.9 4.148-1.714 6.181-4.385 2.466-4.302 2.966 1.37 8.267 4.121 3.851 5.568 7.391 4.559 11.15-.813 3.029-1.494 6.961-1.514 8.737-.019 1.777-1.78 3.23-3.912 3.23-4.671 0-5.188 9.222-.673 12.011 7.203 4.45-10.022 5.02-20.357.674-9.355-3.935-11.556-4.047-17.627-.899-3.815 1.979-7.728 3.487-8.695 3.352-8.263-1.156-10.853.818-10.317 7.86.314 4.122-.905 9.274-2.71 11.448-2.723 3.279-2.43 4.409 1.714 6.627 2.748 1.47 5.731 1.938 6.629 1.041.898-.897 1.632-.275 1.632 1.383 0 1.784-4.135 3.015-10.133 3.015-10.984 0-10.318-1.088-14.621 23.901-1.261 7.323-2.903 9.69-6.72 9.69-10.766 0-15.052-4.764-15.052-16.734 0-6.262-1.238-12.15-2.752-13.085-1.514-.936-2.554-4.783-2.311-8.551 1.154-17.887-.103-22.333-7.503-26.54-6.072-3.453-7.612-6.385-8.776-16.711-.777-6.889-2.714-12.958-4.306-13.488-3.884-1.295-10.538-14.487-10.538-20.895 0-2.832-2.202-6.691-4.892-8.574-4.182-2.929-5.118-8.027-6.45-35.151L72 468.835l6.242 6.733c5.501 5.935 6.879 6.335 11.62 3.375 4.32-2.698 6.394-2.723 10.547-.13 4.641 2.897 5.17 2.58 5.17-3.102 0-3.481 1.163-7.048 2.585-7.926 1.421-.879 2.593-.657 2.605.493.02 2.093 12.107 8.55 16.003 8.55 3.904 0 2.071-7.494-2.454-10.033-3.997-2.244-4.049-2.722-.445-4.11 5.084-1.959 17.893 2.695 17.893 6.502 0 3.771 10.996.3 13.698-4.325 1.137-1.945 3.754-3.537 5.816-3.537s3.749-1.028 3.749-2.283 2.326-2.891 5.169-3.634c6.383-1.669 7.045-14.975 1.293-26-2.114-4.053-3.172-10.044-2.352-13.313 1.252-4.985.257-6.215-6.167-7.626-6.603-1.45-7.576-2.746-7.052-9.403.334-4.246 3.102-10.044 6.15-12.883 6.618-6.164 6.733-7.281 1.515-14.729-3.804-5.43-3.665-5.887 2.513-8.235 3.877-1.474 7.255-5.331 8.294-9.472 1.475-5.872.212-8.397-7.921-15.849l-9.676-8.865 7.185-7.497c8.5-8.869 10.334-9.221 12.137-2.33.991 3.79 3.525 5.168 9.5 5.168 5.298 0 7.531-1 6.382-2.859-2.479-4.01 3.934-23.126 10.078-30.042 2.819-3.173 7.268-6.449 9.887-7.28 4.959-1.573 6.707-12.574 2.418-15.224-1.288-.796-1.768-3.64-1.067-6.321.701-2.68.01-5.655-1.535-6.61-4.196-2.592-3.391-9.183 1.122-9.183 2.163 0 5.258-2.907 6.877-6.46 1.62-3.553 4.503-6.46 6.407-6.46s3.462-1.121 3.462-2.493c0-1.371 2.503-3.832 5.562-5.468 4.737-2.535 5.323-2.357 3.958 1.201-2.138 5.569 2.245 5.336 6.488-.345 1.858-2.488 8.958-7.15 15.778-10.362 13.475-6.346 19.876-5.172 25.111 4.607 4.637 8.661 7.906 5.873 6.13-5.227-1.148-7.181-.717-10.336 1.415-10.336 1.687 0 2.272-1.288 1.299-2.861-1.154-1.867-.084-2.331 3.078-1.336 10.276 3.234 33.182 6.781 43.787 6.781 11.088 0 20.761-5.749 17.782-10.567-2.756-4.46 1.644-12.356 7.374-13.233 3.131-.479 5.403-2.296 5.047-4.039-.355-1.743 1.68-3.169 4.524-3.169 3.192 0 5.177-1.729 5.189-4.522.02-4.356 10.419-10.982 17.237-10.982 1.816 0 5.348-3.197 7.85-7.106 6.27-9.798 11.259-13.38 18.834-13.523 9.053-.17 12.011-2.7 14.028-12 1.477-6.812 3.214-8.319 11.051-9.59 6.834-1.109 11.156-.186 16.311 3.483 3.857 2.746 7.588 4.417 8.291 3.714.703-.703 2.823.583 4.711 2.857 2.247 2.707 2.52 4.737.788 5.877-3.473 2.286-6.236 13.369-3.333 13.369 1.238 0 3.648 2.607 5.353 5.793 3.813 7.122 3.138 61.083-.823 65.854-1.49 1.795-7.059 4.567-12.376 6.159-7.962 2.385-10.777 2.168-15.966-1.231-9.45-6.19-17.835-32.358-17.752-55.4.027-7.375-4.384-5.103-8.287 4.269-3.703 8.891-3.875 9.579-4.257 17.017-.212 4.111-2.335 6.896-6.139 8.049-10.007 3.033-17.447 11.769-17.447 20.482 0 4.442-1.396 9.472-3.102 11.178-2.042 2.04-2.145 3.1-.302 3.1 1.54 0 3.409 2.326 4.152 5.168 1.51 5.771 8.162 6.904 11.377 1.938 1.15-1.776 2.091-6.111 2.091-9.633 0-3.997 1.673-6.734 4.451-7.282 3.554-.701 4.385.883 4.123 7.856-.66 17.556 11.496 26.262 16.527 11.836 2.706-7.761 2.81-7.798 17.144-6.007 8.717 1.088 15.668 3.489 17.571 6.069 1.763 2.388 2.084 4.649.729 5.134-4.057 1.453.165 5.593 5.704 5.593 6.222 0 11.673-4.959 12.98-11.81.533-2.791 3.478-5.346 6.69-5.805 3.155-.45 7.97-3.656 10.699-7.124 3.137-3.987 6.482-5.722 9.098-4.718 4.846 1.859 5.039 3.492 1.509 12.774-1.989 5.23-3.435 6.239-5.95 4.152-5.826-4.833-14.064-.621-15.304 7.826-1.484 10.106 4.261 16.072 13.305 13.817 16.152-4.028 37.125-2.207 43.555 3.782 3.221 2.999 6.18 4.076 7.102 2.584.87-1.407 4.019-2.558 6.999-2.558 5.237 0 5.263.171.783 5.119-3.883 4.29-4.084 5.783-1.238 9.211 2.071 2.495 5.597 3.538 9.04 2.674 3.57-.896 7.186.286 9.838 3.215 2.609 2.883 7.221 4.422 12.213 4.076 7.215-.499 7.869.052 6.504 5.487-1.286 5.124-.615 5.946 4.414 5.41 8.54-.91 12.173-3.771 12.173-9.586 0-9.262 7.177-8.434 16.718 1.93 9.046 9.826 13.416 18.136 10.874 20.678-.722.721.953 3.577 3.722 6.345 2.769 2.769 5.725 8.486 6.569 12.705.845 4.219 2.992 7.671 4.773 7.671 5.322 0 9.59-7.117 7.747-12.92-.95-2.994-.326-7.093 1.396-9.168 2.198-2.647 2.26-3.752.213-3.752-4.562 0-3.398-7.597 2.269-14.798 2.843-3.614 5.169-9.32 5.169-12.682 0-4.336 1.464-6.111 5.039-6.111 2.771 0 10.58-5.233 17.352-11.628 6.772-6.395 12.571-11.628 12.886-11.628.316 0 3.557 1.134 7.204 2.52 8.954 3.403 8.621 12.105-.896 23.417-5.462 6.492-7.169 10.78-6.224 15.63.808 4.142-.262 8.247-2.813 10.797-2.263 2.263-4.115 5.142-4.115 6.398 0 1.255-2.35 7.145-5.223 13.089-3.296 6.821-4.625 13.185-3.603 17.257 1.17 4.661.426 6.909-2.68 8.1-2.365.908-3.674 3.281-2.908 5.275.857 2.235-1.068 4.56-5.021 6.063-3.527 1.34-6.413 3.543-6.413 4.896 0 1.352-3.762 4.334-8.359 6.627-7.778 3.879-8.587 3.858-11.632-.305-1.8-2.46-3.272-3.527-3.272-2.371 0 1.156-1.745.655-3.877-1.114-2.348-1.948-3.877-2.156-3.877-.528 0 6.583 3.845 11.321 11.929 14.697 7.861 3.284 9.862 3.136 20.36-1.507 15.191-6.717 25.738-16.681 26.39-24.929.686-8.689 3.473-11.15 10.536-9.304 6.609 1.728 10.497 12.685 6.071 17.109-3.606 3.604-3.854 14.798-.328 14.798 1.422 0 5.026 2.44 8.01 5.423l5.424 5.423-1.923-6.059c-1.058-3.333-3.775-7.413-6.037-9.066-3.739-2.734-3.705-3.457.376-7.965 2.469-2.728 4.489-7.475 4.489-10.55 0-6.765-9.704-18.535-15.328-18.589-2.232-.022-5.557-.991-7.389-2.153-4.167-2.643-.204-14.426 7.682-22.843 3.804-4.06 5.009-8.136 4.272-14.452-1.024-8.761 2.442-14.776 8.512-14.776 1.725 0 5.555-2.035 8.51-4.522 5.234-4.405 5.269-4.389 1.356.646-2.209 2.842-4.33 8.932-4.714 13.534-.57 6.826.526 8.924 5.955 11.396 3.659 1.667 6.653 4.007 6.653 5.2 0 1.193 1.708 2.169 3.796 2.169 4.872 0 2.202-7.763-4.272-12.42-5.678-4.085-6.187-10.835-.816-10.835 2.132 0 3.877 1.162 3.877 2.584 0 1.421 1.88 2.584 4.178 2.584 2.855 0 3.766-1.579 2.875-4.986-.954-3.646-.041-4.89 3.397-4.631 2.585.194 4.131 1.275 3.434 2.401-.696 1.126.526 2.048 2.715 2.048s4.713 2.917 5.608 6.482c.986 3.929 4.061 7.093 7.804 8.032 7.526 1.888 7.991 5.08 1.006 6.906-3.531.923-5.17 3.525-5.17 8.206 0 4.326 1.049 6.206 2.843 5.098 1.687-1.042 1.464.734-.549 4.369-1.865 3.37-3.022 7.289-2.571 8.71.981 3.088 2.389 9.574 2.665 12.274.29 2.844 7.952 2.369 7.952-.494 0-1.337-1.119-3.122-2.486-3.967-1.592-.983-1.592-3.888 0-8.073 1.367-3.595 2.486-10.025 2.486-14.29 0-4.264 1.271-10.127 2.824-13.029 2.042-3.815 2.042-6.057 0-8.099-1.553-1.553-2.824-4.497-2.824-6.543 0-2.046-1.732-5.012-3.848-6.589-2.761-2.06-3.405-5.543-2.281-12.346l1.566-9.477 17.789.433c12.542.305 17.789 1.412 17.79 3.754.001 2.443 1.279 2.637 4.833.735 3.66-1.958 4.691-5.083 4.252-12.877-.391-6.923.619-10.753 3.085-11.7 2.017-.773 3.022-2.45 2.234-3.725-2.049-3.314 14.609-10.638 24.194-10.638 4.808 0 8.695-1.572 9.579-3.876 1.654-4.308 8.689-5.354 8.689-1.292 0 1.422 2.094 2.584 4.654 2.584 5.776 0 18.562-5.776 18.589-8.397.011-1.066 2.727-1.938 6.034-1.938 5.153 0 5.859-1.064 4.925-7.421-1.383-9.423 11.076-22.672 16.831-17.897 2.844 2.36 2.87 3.299.139 5.064-2.685 1.734-2.58 2.673.524 4.71 2.132 1.4 5.331 2.562 7.108 2.584 1.777.022 3.231 2.365 3.231 5.208 0 6.041 4.657 6.924 6.819 1.292 2.304-6.002 13.729-4.589 23.57 2.915 6.842 5.217 8.097 7.325 5.414 9.093-2.841 1.872-2.648 2.949 1.03 5.767 6.497 4.978 5.675 8.486-4.501 19.219-4.963 5.234-9.034 10.723-9.047 12.196-.012 1.474-5.256 8.219-11.654 14.989-6.397 6.77-11.594 13.704-11.549 15.408.046 1.738 1.59 1.113 3.516-1.422 1.888-2.487 5.844-4.522 8.79-4.522 3.149 0 6.058-2.207 7.057-5.355 1.002-3.157 3.165-4.793 5.269-3.986 1.963.753 5.264-.326 7.336-2.397 4.895-4.894 13.513-4.832 15.41.11.819 2.132 2.757 3.876 4.307 3.876 1.55 0 2.178-1.036 1.395-2.302-2.087-3.377 10.196-10.618 18.016-10.618 3.7 0 8.48 1.744 10.61 3.876 5 4.994 17.19 4.953 26.94-.089 6.54-3.381 7.27-4.721 4.93-9.097-3.8-7.098-1.05-10.288 7.43-8.594 4.75.95 8.28.066 10.52-2.638 3.05-3.668 4.13-3.534 11.01 1.362 4.4 3.136 7.05 6.943 6.25 9.013-.79 2.052.25 3.583 2.42 3.583 4.35 0 5.08 4.071 1.17 6.486-3.78 2.335-.13 7.051 4.18 5.399 2.35-.902 3.62.413 3.62 3.764 0 3.191 2.7 6.259 7.11 8.062 10.07 4.125 17.64 3.833 16.51-.638-.51-2.031-1.32-7.498-1.81-12.148-.74-7.099-.22-8.085 3.24-6.151 5.94 3.322 13.72.565 13.72-4.86 0-5.939 4.85-7.605 12.35-4.243 7.43 3.333 14.7-2.011 8.31-6.115-3.21-2.058-2.91-2.737 1.78-4.024 5.05-1.385 5.33-2.272 2.64-8.398-1.65-3.767-4.07-7.604-5.37-8.527-1.3-.922-1.43-3.829-.29-6.46 1.14-2.63 1.96-5.466 1.81-6.301-.15-.836 4.61-4.007 10.57-7.049 9.03-4.601 10.99-4.888 11.68-1.711 1.02 4.641 5.53 5.092 5.89.589.14-1.777 1.06-.323 2.05 3.23 2.79 10.015 6.65 7.635 7.54-4.645.65-9.104 1.97-11.548 7.27-13.566 9.51-3.613 11.85-3.045 10.1 2.453-1.44 4.542-.73 4.729 9.31 2.474 5.97-1.342 12.59-1.777 14.71-.965 4.24 1.626 15.96-8.021 15.96-13.135 0-1.775 3.02-6.805 6.7-11.178 5.56-6.61 8.56-7.95 17.81-7.95 7.51 0 11.61 1.262 12.62 3.876 3.2 8.345 23.29 1.96 22.17-7.048-.87-7.065 3.74-15.425 9.79-17.723 3.49-1.326 7.68-5.95 9.31-10.277 2.11-5.594 4.29-7.523 7.52-6.677 2.5.654 5.26.034 6.13-1.378.88-1.412 3.74-2.004 6.37-1.316s6.13-.374 7.78-2.359c4.28-5.153-1.51-11.361-10.6-11.361-10.18 0-11.26-6.179-2.67-15.372 4.06-4.336 6.84-7.884 6.19-7.884-.65 0 .92-3.73 3.48-8.29 7.09-12.578 17.09-20.53 40.86-32.492 4.26-2.146 9.72-5.59 12.11-7.653 2.4-2.063 5.48-3.062 6.84-2.22 1.36.842 3.19-.328 4.06-2.6.97-2.508 3.21-3.505 5.73-2.539 3.07 1.178 3.72.484 2.51-2.68-1.45-3.768.19-4.104 13.92-2.858 12.32 1.116 15.57.653 15.57-2.22 0-2.15-2.63-3.631-6.46-3.631-7.5 0-8-1.418-2.44-6.978 2.22-2.213 3.44-5.559 2.72-7.435-.75-1.96 1.11-4.16 4.38-5.173 3.12-.97 8.88-4.016 12.79-6.769 7.47-5.262 7.19-5.478 8.14 6.33.14 1.776 1.42 4.101 2.84 5.167 1.63 1.218 1.17 2.846-1.21 4.382-2.1 1.344-3.19 3.061-2.43 3.817 1.37 1.373 10.98 3.52 17.37 3.883 1.9.108 2.56 1.511 1.51 3.215-1.26 2.033-.46 2.483 2.43 1.373 2.81-1.077 4.3-.333 4.3 2.145 0 2.087-1.16 3.795-2.58 3.795-1.42 0-2.35.872-2.05 1.938.29 1.066-2.92 5.544-7.14 9.951-6.2 6.478-8.52 7.48-12.1 5.225-3.47-2.19-5.25-1.693-8.28 2.323-2.13 2.81-3.91 7.727-3.95 10.925-.06 4.419-1.6 5.814-6.39 5.814-3.47 0-7.03-1.163-7.91-2.585-2.38-3.846-5.7-3.13-7.52 1.62-2 5.206 5.81 11.604 11.92 9.768 3.18-.954 5.9 1.606 9.77 9.186 5.87 11.501 4.39 18.263-5.09 23.334-3.18 1.704-4.42 4.215-3.4 6.882 1.49 3.867 1.86 3.864 4.71-.04 1.71-2.331 5.59-4.238 8.63-4.238 3.05 0 5.54-1.241 5.54-2.758 0-3.216 10.77-.466 13.24 3.382 1.02 1.58 2.26 1.481 3.34-.266 2.19-3.553 20.31-3.036 22.71.648 2.14 3.276-7.62 14.498-12.6 14.498-4.27 0-4.53 4.371-.35 5.762 1.91.638 3.33 8.148 3.76 19.875.39 10.367 1.94 22.623 3.47 27.235 1.52 4.612 3.22 10.737 3.77 13.61.55 2.874 2.17 9.439 3.59 14.591 2.46 8.877 2.27 9.366-3.6 9.366-7.7 0-13.93 11.045-14.51 25.705-.35 8.919-.96 9.946-4.28 7.206-3.37-2.778-3.68-1.76-2.41 7.786 1.07 7.994.56 10.982-1.86 10.982-5.56 0-6.74 10.96-1.91 17.652 2.44 3.377 7.34 11.532 10.9 18.122 6.44 11.938 15.51 17.573 15.51 9.635 0-2.236 1.88-4.066 4.18-4.066 2.84 0 3.76 1.58 2.88 4.963-.97 3.695.44 5.452 5.51 6.883 3.75 1.057 7.81 1.691 9.02 1.409 1.21-.282 4.41.187 7.11 1.042 5.8 1.841 6.61 8.959 1.02 8.959-2.13 0-3.87 2.169-3.87 4.82 0 6.938 9.83 18.436 15.77 18.436 6.06 0 9.36 6.919 5.25 11.026-1.61 1.61-2.93 7.183-2.93 12.384 0 6.965 1.63 10.684 6.2 14.112 5.89 4.426 6.03 5.143 2.7 14.574-2.79 7.894-2.83 9.919-.22 9.919 4.29 0 14.58 23.719 14.58 33.616 0 10.161-6.66 10.27-16.11.264-3.87-4.104-11.99-10.041-18.04-13.193-21.55-11.23-61.49-48.087-61.49-56.75 0-6.887-5.39-18.2-8.68-18.2-1.63 0-1.47-1.221.41-3.101 4.59-4.586 4-31.699-.77-35.659-2.13-1.769-3.88-5.331-3.88-7.916 0-2.584-1.22-5.452-2.71-6.373-1.89-1.167-1.88-2.668.01-4.954 1.94-2.339 1.44-6.736-1.75-15.338-3.72-10.036-3.91-12.949-1.15-17.365 3.76-6.023 2.19-9.052-10.77-20.759-4.67-4.218-7.54-9.385-7.54-13.565 0-7.793-3.73-8.751-8.68-2.231-4.79 6.311-4.41 10.321 1.57 16.745 2.93 3.141 5.17 9.119 5.17 13.781 0 4.529.71 11.784 1.58 16.122 1.27 6.352.76 7.767-2.65 7.268-2.32-.341-6-3.164-8.18-6.273-4.58-6.533-8.84-7.39-8.84-1.777 0 2.132-1.85 3.876-4.12 3.876-2.26 0-4.73 2.325-5.47 5.168-.74 2.842-2.29 5.168-3.43 5.168-3.66 0-5.71 15.498-2.55 19.307 1.64 1.975 3.65 10.358 4.46 18.628.82 8.27 3.15 18.338 5.19 22.374 3.56 7.05 3.9 7.161 8.69 2.829 2.92-2.641 4.98-3.265 4.98-1.507 0 1.651-2.9 5.53-6.46 8.619-3.55 3.089-6.46 7.229-6.46 9.201 0 2.355-1.7 3.045-4.95 2.013-2.73-.865-5.63-.471-6.47.875-.83 1.345-3.83 1.839-6.68 1.096-3.59-.94-5.16-.078-5.16 2.826 0 2.298-.88 4.04-1.94 3.872-7.69-1.213-11.26 1.049-12.66 7.999-1.58 7.916-5.12 11.971-14.76 16.904-3.04 1.56-5.37 4.844-5.16 7.298.26 3.086-.55 3.701-2.6 1.996-2.02-1.674-6.05.352-12.56 6.32-14.5 13.285-18.37 20.402-16.49 30.375.88 4.727.73 9.47-.34 10.541-1.07 1.07-2.15 7.735-2.41 14.809-.26 7.075-1.71 14.361-3.23 16.192-1.52 1.831-2.65 10.915-2.51 20.187.14 9.272-1.03 19.264-2.61 22.204-1.57 2.941-2.86 8.262-2.86 11.824 0 3.563-1.16 7.196-2.59 8.074-1.42.879-2.58 3.854-2.58 6.613 0 3.827 1.8 5.015 7.6 5.015 4.18 0 8.32-1.154 9.19-2.565.87-1.416 4.38.608 7.82 4.522 5.01 5.682 6.26 6.19 6.33 2.565.09-5.494 5.25-6.128 5.25-.646a3.883 3.883 0 003.87 3.876c2.14 0 3.88-1.744 3.88-3.876 0-2.132 1.75-3.876 3.88-3.876 4.41 0 5.26-6.593 1.16-9.121-5.02-3.103 3.18-9.515 10.32-8.072 15.67 3.163 23.66 5.692 23.58 7.46-.04 1.042 4.07 6.046 9.15 11.12 5.8 5.803 8.65 10.711 7.68 13.233-2.04 5.318 3.34 22.798 8.82 28.685 2.41 2.579 7.49 10.881 11.29 18.449 6.89 13.719 6.91 13.907 5.75 60.629-1.22 49.514-1.92 58.066-5.15 63.294-1.1 1.786-1.33 5.961-.49 9.279 1.95 7.793-7.26 28.701-16.18 36.718-5.68 5.11-8.65 5.886-17.75 4.65l-10.93-1.483-1.68 10.486c-1.33 8.329-2.77 10.486-7.01 10.486-5.08 0-5.11-.163-.61-3.451zm124.44-128.533c-3.9-4.374-6.46-9.606-5.68-11.627.78-2.022.37-3.675-.9-3.675-2.64 0-10.45-14.627-10.45-19.566 0-1.798-3.93-5.699-8.74-8.67-4.81-2.971-10.27-9.17-12.13-13.777-1.86-4.606-7.33-13.607-12.16-20.002-4.83-6.396-10.36-15.407-12.3-20.026-2.34-5.601-5.28-8.398-8.82-8.398-5.3 0-15.64-8.33-15.64-12.604 0-1.247-1.74-3.715-3.88-5.484-2.13-1.769-3.87-5.018-3.87-7.219 0-2.201-1.99-6.199-4.42-8.885-3.44-3.797-3.7-5.334-1.15-6.908 4.61-2.848.88-16.104-4.96-17.631-2.68-.701-4.04-2.733-3.23-4.831 2.15-5.616 5.87-4.292 8.68 3.089 1.41 3.69 4.87 7.314 7.69 8.053 2.83.739 5.14 2.988 5.14 4.999 0 2.011 2.04 4.381 4.52 5.268 7.92 2.823 11.22 6.46 8.66 9.55-3.07 3.707 3.78 12.139 13.31 16.399 3.91 1.745 7.11 4.361 7.11 5.813 0 1.451 1.28 2.639 2.84 2.639 1.56 0 9.99 6.277 18.74 13.949 8.74 7.671 19.97 15.716 24.95 17.877l9.05 3.928-12.36.211c-15.05.256-16.62 3.15-10.9 19.996 5.75 16.929 13.72 29.293 18.94 29.392 2.37.045 6.58 1.795 9.35 3.888 2.77 2.093 6.94 3.203 9.26 2.465 5.6-1.778 12.24 11.416 7.29 14.478-1.79 1.101-4.3 1.352-5.58.557-1.29-.794-.76-2.444 1.17-3.666 2.58-1.634 2.65-2.232.27-2.261-5.57-.068-13.19 9.322-10.72 13.222 6.39 10.084.05 9.705-9.08-.543zm-11.66-8.627c-.11-2.724.5-4.25 1.36-3.391.86.858.95 3.087.2 4.952-.82 2.061-1.43 1.449-1.56-1.561zm72.17-11.05c0-7.348 1.28-11.064 4.17-12.176 3.56-1.365 3.91-.171 2.39 8.121-2.62 14.238-6.56 16.674-6.56 4.055zm9.55-17.947c-3.64-3.637-1.94-26.163 2.08-27.708 2.14-.818 3.88-3.268 3.88-5.444 0-2.177 1.16-3.957 2.59-3.957 3.52 0 3.25 2.933-1.27 13.751-2.12 5.069-3.18 10.954-2.37 13.079 1.74 4.517-2.27 12.912-4.91 10.279zm13.9-51.815c-.1-4.535.98-8.964 2.4-9.842 3.1-1.916 3.1 5.708 0 12.92-1.87 4.356-2.25 3.873-2.4-3.078zm7.98-39.558c0-3.553.59-5.006 1.3-3.23.72 1.777.72 4.684 0 6.46-.71 1.777-1.3.323-1.3-3.23zm-257.6-12.92c-.87-1.421-.36-2.584 1.14-2.584 1.51 0 2.74 1.163 2.74 2.584 0 1.422-.51 2.584-1.14 2.584-.62 0-1.86-1.162-2.74-2.584zm248.06-33.721c-2.37-3.84-.48-5.199 3.67-2.637 2.22 1.373 2.48 2.705.75 3.778-1.48.911-3.47.398-4.42-1.141zm-3.79-17.958a2.59 2.59 0 012.58-2.584c1.42 0 2.59 1.163 2.59 2.584a2.598 2.598 0 01-2.59 2.584 2.59 2.59 0 01-2.58-2.584zm-2.8-14.212c-.22-1.421-.25-3.503-.06-4.626.19-1.124-.78-4.143-2.16-6.71-1.69-3.162-1.53-5.629.48-7.648 3.72-3.717 8.01-3.927 5.76-.282-.92 1.483-.5 4.103.93 5.821 1.76 2.129 1.45 5.18-.98 9.577-1.97 3.549-3.75 5.289-3.97 3.868zm-167.8-103.206c0-.627 1.16-1.858 2.59-2.736 1.42-.879 2.58-.366 2.58 1.139s-1.16 2.736-2.58 2.736c-1.43 0-2.59-.512-2.59-1.139zM614.057 247.073c-5.594-6.656-6.531-9.334-4.234-12.101 3.852-4.641.81-16.54-4.23-16.54-3.056 0-3.337-1.087-1.277-4.935 1.66-3.101 4.443-4.464 7.488-3.668 2.946.77 7.667-1.348 12.043-5.401 8.272-7.664 11.251-8.138 18.225-2.9 4.823 3.622 4.579 4.163-6.276 13.903-10.222 9.172-11.449 11.562-12.924 25.163l-1.63 15.028-7.185-8.549zm34.325-46.729c-1.876-3.504-1.905-5.168-.091-5.168 1.472 0 2.385-1.453 2.03-3.23-.361-1.805 1.35-2.895 3.877-2.471 2.488.418 4.523-.313 4.523-1.624 0-1.311 3.49-3.829 7.755-5.595 4.265-1.766 7.754-3.979 7.754-4.918 0-.938 3.002-1.955 6.671-2.259 3.668-.303 8.551-1.603 10.849-2.889 2.494-1.395 6.666-1.393 10.347.007 3.393 1.289 7.285 1.654 8.65.811 1.365-.843 4.197-.109 6.293 1.63 2.528 2.097 8.639 2.665 18.128 1.686 11.218-1.157 14.631-.651 15.779 2.339.806 2.099.723 4.558-.184 5.465-2.493 2.491-26.959 5.179-30.007 3.296-1.466-.906-8.754-.628-16.195.618-7.442 1.246-16.837 2.595-20.878 2.998-4.042.403-8.113 1.789-9.047 3.08-.934 1.292-4.606 2.661-8.16 3.043-3.554.383-7.754 2.417-9.332 4.522-3.811 5.082-5.458 4.83-8.762-1.341z" stroke="#C477D5" stroke-width="4" mask="url(#a)"/><path d="M68.002 467h6l-6-10.5c-2.5 0-6.9-1.3-4.5-6.5 2.4-5.2-1-22.833-3-31l-3.5 7c-.8 1.6-12.333-6.333-18-10.5 1.167 5 3.5 16 3.5 20 0 5-12.5 14.5-5 14.5s12 4 13.5 6.5 9.5-1.5 9.5 3c0 3.6 5 9.167 7.5 11.5v-4z" stroke="#C477D5" stroke-width="2" stroke-linejoin="round"/></svg>